<svg width="380" height="91" viewBox="0 0 380 91" fill="none" xmlns="http://www.w3.org/2000/svg">
<mask id="path-1-outside-1_74_122" maskUnits="userSpaceOnUse" x="-2" y="-2" width="384" height="95" fill="black">
<rect fill="white" x="-2" y="-2" width="384" height="95"/>
<path d="M0.256 70L0.256 6.64L28 6.64C35.68 6.64 41.344 8.144 44.992 11.152C48.64 14.16 50.464 18.416 50.464 23.92C50.464 27.312 49.44 30.32 47.392 32.944C45.344 35.568 42.336 37.232 38.368 37.936V38.032C42.784 38.672 46.176 40.336 48.544 43.024C50.912 45.712 52.096 48.912 52.096 52.624C52.096 58.064 50.112 62.32 46.144 65.392C42.24 68.464 36.512 70 28.96 70H0.256ZM13.12 60.016H27.808C31.392 60.016 34.048 59.28 35.776 57.808C37.504 56.336 38.368 54.288 38.368 51.664C38.368 48.976 37.504 46.928 35.776 45.52C34.048 44.112 31.392 43.408 27.808 43.408H13.12V60.016ZM13.12 33.232H26.272C33.248 33.232 36.736 30.512 36.736 25.072C36.736 19.632 33.248 16.912 26.272 16.912H13.12V33.232ZM85.3 21.04C90.164 21.04 94.42 22.032 98.068 24.016C101.78 26 104.66 28.848 106.708 32.56C108.82 36.272 109.876 40.752 109.876 46C109.876 51.184 108.82 55.664 106.708 59.44C104.66 63.152 101.78 66 98.068 67.984C94.42 69.968 90.164 70.96 85.3 70.96C80.5 70.96 76.244 69.968 72.532 67.984C68.82 66 65.908 63.152 63.796 59.44C61.748 55.664 60.724 51.184 60.724 46C60.724 40.752 61.748 36.272 63.796 32.56C65.908 28.848 68.82 26 72.532 24.016C76.244 22.032 80.5 21.04 85.3 21.04ZM85.3 30.832C82.868 30.832 80.788 31.408 79.06 32.56C77.396 33.648 76.116 35.312 75.22 37.552C74.324 39.792 73.876 42.608 73.876 46C73.876 49.392 74.324 52.208 75.22 54.448C76.116 56.688 77.396 58.384 79.06 59.536C80.788 60.624 82.868 61.168 85.3 61.168C87.668 61.168 89.684 60.624 91.348 59.536C93.076 58.384 94.388 56.688 95.284 54.448C96.18 52.208 96.628 49.392 96.628 46C96.628 42.608 96.18 39.792 95.284 37.552C94.388 35.312 93.076 33.648 91.348 32.56C89.684 31.408 87.668 30.832 85.3 30.832ZM120.881 70V22H132.689L133.457 36.4L131.825 34.864C132.593 31.728 133.809 29.136 135.473 27.088C137.137 25.04 139.153 23.536 141.521 22.576C143.953 21.552 146.609 21.04 149.489 21.04C152.817 21.04 155.761 21.68 158.321 22.96C160.945 24.24 162.993 26.192 164.465 28.816C166.001 31.376 166.769 34.608 166.769 38.512V70H153.617V42.256C153.617 38.16 152.817 35.344 151.217 33.808C149.617 32.208 147.537 31.408 144.977 31.408C143.185 31.408 141.425 31.856 139.697 32.752C138.033 33.584 136.657 34.96 135.569 36.88C134.545 38.8 134.033 41.36 134.033 44.56V70H120.881ZM186.942 15.088C184.19 15.088 182.142 14.512 180.798 13.36C179.454 12.144 178.782 10.384 178.782 8.08C178.782 5.712 179.454 3.952 180.798 2.8C182.142 1.584 184.19 0.975996 186.942 0.975996C189.694 0.975996 191.742 1.584 193.086 2.8C194.43 3.952 195.102 5.712 195.102 8.08C195.102 10.384 194.43 12.144 193.086 13.36C191.742 14.512 189.694 15.088 186.942 15.088ZM193.47 22V73.552C193.47 77.712 192.702 81.04 191.166 83.536C189.694 86.032 187.678 87.824 185.118 88.912C182.558 90.064 179.646 90.64 176.382 90.64C174.014 90.64 171.87 90.352 169.95 89.776C168.03 89.264 166.366 88.528 164.958 87.568L166.974 78.16C167.742 78.8 168.702 79.344 169.854 79.792C171.006 80.24 172.286 80.464 173.694 80.464C175.678 80.464 177.278 79.856 178.494 78.64C179.71 77.424 180.318 75.312 180.318 72.304V22L193.47 22ZM229.3 21.04C234.164 21.04 238.42 22.032 242.068 24.016C245.78 26 248.66 28.848 250.708 32.56C252.82 36.272 253.876 40.752 253.876 46C253.876 51.184 252.82 55.664 250.708 59.44C248.66 63.152 245.78 66 242.068 67.984C238.42 69.968 234.164 70.96 229.3 70.96C224.5 70.96 220.244 69.968 216.532 67.984C212.82 66 209.908 63.152 207.796 59.44C205.748 55.664 204.724 51.184 204.724 46C204.724 40.752 205.748 36.272 207.796 32.56C209.908 28.848 212.82 26 216.532 24.016C220.244 22.032 224.5 21.04 229.3 21.04ZM229.3 30.832C226.868 30.832 224.788 31.408 223.06 32.56C221.396 33.648 220.116 35.312 219.22 37.552C218.324 39.792 217.876 42.608 217.876 46C217.876 49.392 218.324 52.208 219.22 54.448C220.116 56.688 221.396 58.384 223.06 59.536C224.788 60.624 226.868 61.168 229.3 61.168C231.668 61.168 233.684 60.624 235.348 59.536C237.076 58.384 238.388 56.688 239.284 54.448C240.18 52.208 240.628 49.392 240.628 46C240.628 42.608 240.18 39.792 239.284 37.552C238.388 35.312 237.076 33.648 235.348 32.56C233.684 31.408 231.668 30.832 229.3 30.832ZM281.585 70.96C278.385 70.96 275.505 70.384 272.945 69.232C270.385 68.08 268.337 66.256 266.801 63.76C265.329 61.2 264.593 57.904 264.593 53.872V22H277.745V50.704C277.745 54.416 278.513 57.008 280.049 58.48C281.585 59.888 283.793 60.592 286.673 60.592C288.017 60.592 289.329 60.368 290.609 59.92C291.889 59.408 293.009 58.64 293.969 57.616C294.993 56.592 295.793 55.28 296.369 53.68C296.945 52.016 297.233 50.064 297.233 47.824V22L310.385 22V70H298.673L298.193 61.648C296.593 64.848 294.385 67.216 291.569 68.752C288.817 70.224 285.489 70.96 281.585 70.96ZM324.225 70V22H335.649L336.513 31.408C337.793 28.08 339.649 25.52 342.081 23.728C344.577 21.936 347.681 21.04 351.393 21.04C352.481 21.04 353.473 21.136 354.369 21.328C355.265 21.52 356.001 21.776 356.577 22.096L355.041 33.136C354.401 32.88 353.601 32.688 352.641 32.56C351.745 32.432 350.561 32.368 349.089 32.368C347.169 32.368 345.313 32.848 343.521 33.808C341.729 34.704 340.257 36.112 339.105 38.032C337.953 39.888 337.377 42.256 337.377 45.136V70H324.225ZM378.645 6.64V29.68L377.013 49.552L366.453 49.552L364.821 29.68V6.64H378.645ZM371.733 56.08C374.229 56.08 376.213 56.752 377.685 58.096C379.157 59.44 379.893 61.232 379.893 63.472C379.893 65.776 379.157 67.6 377.685 68.944C376.213 70.224 374.229 70.864 371.733 70.864C369.237 70.864 367.253 70.224 365.781 68.944C364.309 67.6 363.573 65.776 363.573 63.472C363.573 61.232 364.309 59.44 365.781 58.096C367.253 56.752 369.237 56.08 371.733 56.08Z"/>
</mask>
<path d="M0.256001 70H-1.744V72H0.256001V70ZM0.256001 6.64V4.64H-1.744L-1.744 6.64H0.256001ZM44.992 11.152L46.2644 9.60892L44.992 11.152ZM47.392 32.944L48.9686 34.1745H48.9686L47.392 32.944ZM38.368 37.936L38.0186 35.9668L36.368 36.2596V37.936H38.368ZM38.368 38.032H36.368V39.763L38.0811 40.0113L38.368 38.032ZM48.544 43.024L50.0447 41.7019L48.544 43.024ZM46.144 65.392L44.9197 63.8106L44.9134 63.8154L44.9072 63.8203L46.144 65.392ZM13.12 60.016H11.12V62.016H13.12V60.016ZM35.776 57.808L37.0729 59.3305L35.776 57.808ZM35.776 45.52L37.0393 43.9695L35.776 45.52ZM13.12 43.408V41.408H11.12V43.408H13.12ZM13.12 33.232H11.12V35.232H13.12V33.232ZM13.12 16.912V14.912H11.12V16.912H13.12ZM2.256 70L2.256 6.64H-1.744L-1.744 70H2.256ZM0.256001 8.64L28 8.64V4.64L0.256001 4.64V8.64ZM28 8.64C35.4855 8.64 40.5939 10.1177 43.7196 12.6951L46.2644 9.60892C42.0942 6.17032 35.8745 4.64 28 4.64V8.64ZM43.7196 12.6951C46.8287 15.2587 48.464 18.9039 48.464 23.92H52.464C52.464 17.9281 50.4513 13.0613 46.2644 9.60892L43.7196 12.6951ZM48.464 23.92C48.464 26.8753 47.5834 29.4482 45.8154 31.7135L48.9686 34.1745C51.2966 31.1918 52.464 27.7487 52.464 23.92H48.464ZM45.8154 31.7135C44.1324 33.8698 41.608 35.3299 38.0186 35.9668L38.7174 39.9052C43.064 39.1341 46.5556 37.2662 48.9686 34.1745L45.8154 31.7135ZM36.368 37.936V38.032H40.368V37.936H36.368ZM38.0811 40.0113C42.1465 40.6005 45.0604 42.0952 47.0433 44.3461L50.0447 41.7019C47.2916 38.5768 43.4215 36.7435 38.6549 36.0527L38.0811 40.0113ZM47.0433 44.3461C49.077 46.6546 50.096 49.3794 50.096 52.624H54.096C54.096 48.4445 52.747 44.7694 50.0447 41.7019L47.0433 44.3461ZM50.096 52.624C50.096 57.5052 48.3529 61.1526 44.9197 63.8106L47.3683 66.9734C51.8711 63.4874 54.096 58.6228 54.096 52.624H50.096ZM44.9072 63.8203C41.4976 66.5032 36.2853 68 28.96 68V72C36.7387 72 42.9824 70.4248 47.3808 66.9637L44.9072 63.8203ZM28.96 68H0.256001V72H28.96V68ZM13.12 62.016H27.808V58.016H13.12V62.016ZM27.808 62.016C31.607 62.016 34.8249 61.2455 37.0729 59.3305L34.4791 56.2855C33.2711 57.3145 31.177 58.016 27.808 58.016V62.016ZM37.0729 59.3305C39.319 57.4172 40.368 54.7724 40.368 51.664H36.368C36.368 53.8036 35.689 55.2548 34.4791 56.2855L37.0729 59.3305ZM40.368 51.664C40.368 48.5116 39.3302 45.8361 37.0393 43.9695L34.5127 47.0705C35.6778 48.0199 36.368 49.4404 36.368 51.664H40.368ZM37.0393 43.9695C34.7942 42.1402 31.5911 41.408 27.808 41.408V45.408C31.1929 45.408 33.3018 46.0838 34.5127 47.0705L37.0393 43.9695ZM27.808 41.408H13.12V45.408H27.808V41.408ZM11.12 43.408V60.016H15.12V43.408H11.12ZM13.12 35.232H26.272V31.232H13.12V35.232ZM26.272 35.232C29.9649 35.232 33.1029 34.5214 35.3499 32.7691C37.6915 30.9431 38.736 28.2514 38.736 25.072H34.736C34.736 27.3326 34.0365 28.7209 32.8901 29.6149C31.6491 30.5826 29.5551 31.232 26.272 31.232V35.232ZM38.736 25.072C38.736 21.8926 37.6915 19.2009 35.3499 17.3749C33.1029 15.6226 29.9649 14.912 26.272 14.912V18.912C29.5551 18.912 31.6491 19.5614 32.8901 20.5291C34.0365 21.4231 34.736 22.8114 34.736 25.072H38.736ZM26.272 14.912H13.12V18.912H26.272V14.912ZM11.12 16.912V33.232H15.12V16.912H11.12ZM98.068 24.016L97.1125 25.773L97.1188 25.7764L97.1252 25.7799L98.068 24.016ZM106.708 32.56L104.957 33.5262L104.963 33.5376L104.97 33.549L106.708 32.56ZM106.708 59.44L104.962 58.4637L104.957 58.4738L106.708 59.44ZM98.068 67.984L97.1253 66.2201L97.1188 66.2236L97.1125 66.227L98.068 67.984ZM72.532 67.984L73.4748 66.2201L72.532 67.984ZM63.796 59.44L62.0379 60.3935L62.0476 60.4114L62.0577 60.429L63.796 59.44ZM63.796 32.56L62.0577 31.5709L62.0512 31.5824L62.0448 31.5938L63.796 32.56ZM72.532 24.016L73.4748 25.7799L72.532 24.016ZM79.06 32.56L80.1545 34.2339L80.162 34.2291L80.1694 34.2241L79.06 32.56ZM75.22 37.552L73.363 36.8092L75.22 37.552ZM75.22 54.448L73.363 55.1908L75.22 54.448ZM79.06 59.536L77.9216 61.1804L77.9575 61.2052L77.9944 61.2285L79.06 59.536ZM91.348 59.536L92.4425 61.2099L92.45 61.2051L92.4574 61.2001L91.348 59.536ZM95.284 54.448L97.141 55.1908L95.284 54.448ZM95.284 37.552L97.141 36.8092L95.284 37.552ZM91.348 32.56L90.2096 34.2044L90.2455 34.2292L90.2824 34.2525L91.348 32.56ZM85.3 23.04C89.8876 23.04 93.8043 23.9738 97.1125 25.773L99.0235 22.259C95.0357 20.0902 90.4404 19.04 85.3 19.04V23.04ZM97.1252 25.7799C100.494 27.5803 103.094 30.15 104.957 33.5262L108.459 31.5938C106.226 27.546 103.066 24.4197 99.0108 22.2521L97.1252 25.7799ZM104.97 33.549C106.875 36.8979 107.876 41.0201 107.876 46H111.876C111.876 40.4839 110.765 35.6461 108.446 31.5709L104.97 33.549ZM107.876 46C107.876 50.9098 106.877 55.04 104.962 58.4637L108.454 60.4163C110.763 56.288 111.876 51.4582 111.876 46H107.876ZM104.957 58.4738C103.094 61.85 100.494 64.4197 97.1253 66.2201L99.0108 69.7479C103.066 67.5803 106.226 64.454 108.459 60.4062L104.957 58.4738ZM97.1125 66.227C93.8043 68.0262 89.8876 68.96 85.3 68.96V72.96C90.4404 72.96 95.0357 71.9098 99.0235 69.741L97.1125 66.227ZM85.3 68.96C80.7822 68.96 76.8582 68.0285 73.4748 66.2201L71.5892 69.7479C75.6298 71.9075 80.2178 72.96 85.3 72.96V68.96ZM73.4748 66.2201C70.1009 64.4169 67.4625 61.8399 65.5343 58.451L62.0577 60.429C64.3535 64.4641 67.5391 67.5831 71.5892 69.7479L73.4748 66.2201ZM65.5541 58.4865C63.6946 55.058 62.724 50.9194 62.724 46H58.724C58.724 51.4486 59.8014 56.27 62.0379 60.3935L65.5541 58.4865ZM62.724 46C62.724 41.0105 63.6969 36.8798 65.5472 33.5262L62.0448 31.5938C59.7991 35.6642 58.724 40.4935 58.724 46H62.724ZM65.5343 33.549C67.4625 30.1601 70.1009 27.5831 73.4748 25.7799L71.5892 22.2521C67.5391 24.4169 64.3535 27.5359 62.0577 31.5709L65.5343 33.549ZM73.4748 25.7799C76.8582 23.9715 80.7822 23.04 85.3 23.04V19.04C80.2178 19.04 75.6298 20.0925 71.5892 22.2521L73.4748 25.7799ZM85.3 28.832C82.5422 28.832 80.0602 29.4895 77.9506 30.8959L80.1694 34.2241C81.5158 33.3265 83.1938 32.832 85.3 32.832V28.832ZM77.9655 30.8861C75.89 32.2431 74.3785 34.2707 73.363 36.8092L77.077 38.2948C77.8535 36.3533 78.902 35.0529 80.1545 34.2339L77.9655 30.8861ZM73.363 36.8092C72.3426 39.3604 71.876 42.4492 71.876 46H75.876C75.876 42.7668 76.3054 40.2236 77.077 38.2948L73.363 36.8092ZM71.876 46C71.876 49.5508 72.3426 52.6396 73.363 55.1908L77.077 53.7052C76.3054 51.7764 75.876 49.2332 75.876 46H71.876ZM73.363 55.1908C74.3764 57.7242 75.877 59.7649 77.9216 61.1804L80.1984 57.8916C78.915 57.0031 77.8556 55.6518 77.077 53.7052L73.363 55.1908ZM77.9944 61.2285C80.098 62.553 82.5638 63.168 85.3 63.168V59.168C83.1723 59.168 81.478 58.695 80.1256 57.8435L77.9944 61.2285ZM85.3 63.168C87.9814 63.168 90.3953 62.5485 92.4425 61.2099L90.2535 57.8621C88.9727 58.6995 87.3546 59.168 85.3 59.168V63.168ZM92.4574 61.2001C94.574 59.7891 96.1197 57.744 97.141 55.1908L93.427 53.7052C92.6563 55.632 91.578 56.979 90.2386 57.8719L92.4574 61.2001ZM97.141 55.1908C98.1614 52.6396 98.628 49.5508 98.628 46H94.628C94.628 49.2332 94.1986 51.7764 93.427 53.7052L97.141 55.1908ZM98.628 46C98.628 42.4492 98.1614 39.3604 97.141 36.8092L93.427 38.2948C94.1986 40.2236 94.628 42.7668 94.628 46H98.628ZM97.141 36.8092C96.1174 34.2503 94.5605 32.2193 92.4136 30.8675L90.2824 34.2525C91.5915 35.0767 92.6586 36.3737 93.427 38.2948L97.141 36.8092ZM92.4864 30.9156C90.4339 29.4947 88.0038 28.832 85.3 28.832V32.832C87.3322 32.832 88.9341 33.3213 90.2096 34.2044L92.4864 30.9156ZM120.881 70H118.881V72H120.881V70ZM120.881 22V20H118.881V22H120.881ZM132.689 22L134.686 21.8935L134.585 20H132.689V22ZM133.457 36.4L132.086 37.8564L135.72 41.2763L135.454 36.2935L133.457 36.4ZM131.825 34.864L129.882 34.3883L129.605 35.5211L130.454 36.3204L131.825 34.864ZM141.521 22.576L142.272 24.4295L142.285 24.4245L142.297 24.4193L141.521 22.576ZM158.321 22.96L157.426 24.7489L157.435 24.7532L157.444 24.7575L158.321 22.96ZM164.465 28.816L162.72 29.7945L162.735 29.82L162.75 29.845L164.465 28.816ZM166.769 70V72H168.769V70H166.769ZM153.617 70H151.617V72H153.617V70ZM151.217 33.808L149.803 35.2222L149.817 35.2366L149.832 35.2508L151.217 33.808ZM139.697 32.752L140.591 34.5409L140.604 34.5343L140.617 34.5275L139.697 32.752ZM135.569 36.88L133.829 35.894L133.816 35.9162L133.804 35.9388L135.569 36.88ZM134.033 70V72H136.033V70H134.033ZM122.881 70V22H118.881V70H122.881ZM120.881 24H132.689V20H120.881V24ZM130.692 22.1065L131.46 36.5065L135.454 36.2935L134.686 21.8935L130.692 22.1065ZM134.827 34.9436L133.195 33.4076L130.454 36.3204L132.086 37.8564L134.827 34.9436ZM133.767 35.3397C134.48 32.4282 135.585 30.122 137.025 28.3492L133.921 25.8268C132.033 28.15 130.705 31.0278 129.882 34.3883L133.767 35.3397ZM137.025 28.3492C138.484 26.5541 140.227 25.2585 142.272 24.4295L140.769 20.7225C138.078 21.8135 135.79 23.5259 133.921 25.8268L137.025 28.3492ZM142.297 24.4193C144.462 23.5078 146.851 23.04 149.489 23.04V19.04C146.367 19.04 143.444 19.5962 140.745 20.7327L142.297 24.4193ZM149.489 23.04C152.557 23.04 155.186 23.6287 157.426 24.7489L159.215 21.1711C156.336 19.7313 153.077 19.04 149.489 19.04V23.04ZM157.444 24.7575C159.69 25.8534 161.441 27.5139 162.72 29.7945L166.209 27.8375C164.544 24.8701 162.199 22.6266 159.198 21.1625L157.444 24.7575ZM162.75 29.845C164.05 32.0124 164.769 34.8616 164.769 38.512H168.769C168.769 34.3544 167.951 30.7396 166.18 27.787L162.75 29.845ZM164.769 38.512V70H168.769V38.512H164.769ZM166.769 68H153.617V72H166.769V68ZM155.617 70V42.256H151.617V70H155.617ZM155.617 42.256C155.617 38.034 154.819 34.4935 152.602 32.3652L149.832 35.2508C150.815 36.1945 151.617 38.286 151.617 42.256H155.617ZM152.631 32.3938C150.605 30.3682 147.991 29.408 144.977 29.408V33.408C147.082 33.408 148.628 34.0478 149.803 35.2222L152.631 32.3938ZM144.977 29.408C142.837 29.408 140.764 29.946 138.776 30.9765L140.617 34.5275C142.086 33.766 143.532 33.408 144.977 33.408V29.408ZM138.802 30.9631C136.721 32.0038 135.075 33.6939 133.829 35.894L137.309 37.866C138.238 36.2261 139.344 35.1642 140.591 34.5409L138.802 30.9631ZM133.804 35.9388C132.57 38.2529 132.033 41.1749 132.033 44.56H136.033C136.033 41.5451 136.52 39.3471 137.333 37.8212L133.804 35.9388ZM132.033 44.56V70H136.033V44.56H132.033ZM134.033 68H120.881V72H134.033V68ZM180.798 13.36L179.456 14.8431L179.476 14.8611L179.497 14.8785L180.798 13.36ZM180.798 2.8L182.1 4.31851L182.12 4.30106L182.14 4.28307L180.798 2.8ZM193.086 2.8L191.744 4.28307L191.764 4.30106L191.785 4.31851L193.086 2.8ZM193.086 13.36L194.388 14.8785L194.408 14.8611L194.428 14.8431L193.086 13.36ZM193.47 22H195.47V20H193.47V22ZM191.166 83.536L189.463 82.4878L189.453 82.5038L189.444 82.52L191.166 83.536ZM185.118 88.912L184.336 87.0713L184.317 87.0795L184.298 87.0882L185.118 88.912ZM169.95 89.776L170.525 87.8604L170.495 87.8515L170.466 87.8435L169.95 89.776ZM164.958 87.568L163.003 87.1489L162.721 88.4632L163.832 89.2205L164.958 87.568ZM166.974 78.16L168.255 76.6236L165.712 74.5048L165.019 77.7409L166.974 78.16ZM169.854 79.792L170.579 77.928L169.854 79.792ZM180.318 22V20H178.318V22H180.318ZM186.942 13.088C184.415 13.088 182.927 12.5507 182.1 11.8415L179.497 14.8785C181.357 16.4733 183.965 17.088 186.942 17.088V13.088ZM182.14 11.8769C181.323 11.1375 180.782 9.98245 180.782 8.08H176.782C176.782 10.7855 177.586 13.1505 179.456 14.8431L182.14 11.8769ZM180.782 8.08C180.782 6.0872 181.336 4.97303 182.1 4.31851L179.497 1.28148C177.572 2.93096 176.782 5.3368 176.782 8.08H180.782ZM182.14 4.28307C182.966 3.53576 184.437 2.976 186.942 2.976V-1.024C183.943 -1.024 181.318 -0.367764 179.456 1.31692L182.14 4.28307ZM186.942 2.976C189.447 2.976 190.918 3.53576 191.744 4.28307L194.428 1.31692C192.566 -0.367764 189.941 -1.024 186.942 -1.024V2.976ZM191.785 4.31851C192.548 4.97303 193.102 6.08719 193.102 8.08H197.102C197.102 5.3368 196.312 2.93096 194.388 1.28148L191.785 4.31851ZM193.102 8.08C193.102 9.98245 192.562 11.1375 191.744 11.8769L194.428 14.8431C196.299 13.1505 197.102 10.7855 197.102 8.08H193.102ZM191.785 11.8415C190.957 12.5507 189.469 13.088 186.942 13.088V17.088C189.919 17.088 192.527 16.4733 194.388 14.8785L191.785 11.8415ZM191.47 22V73.552H195.47V22H191.47ZM191.47 73.552C191.47 77.4895 190.74 80.4127 189.463 82.4878L192.87 84.5842C194.665 81.6673 195.47 77.9345 195.47 73.552H191.47ZM189.444 82.52C188.179 84.6641 186.485 86.1579 184.336 87.0713L185.901 90.7527C188.871 89.4901 191.209 87.3999 192.889 84.552L189.444 82.52ZM184.298 87.0882C182.034 88.1067 179.409 88.64 176.382 88.64V92.64C179.884 92.64 183.082 92.0213 185.939 90.7358L184.298 87.0882ZM176.382 88.64C174.175 88.64 172.228 88.3714 170.525 87.8604L169.376 91.6917C171.512 92.3326 173.854 92.64 176.382 92.64V88.64ZM170.466 87.8435C168.728 87.3802 167.278 86.7292 166.085 85.9156L163.832 89.2205C165.454 90.3268 167.332 91.1478 169.435 91.7085L170.466 87.8435ZM166.914 87.9871L168.93 78.5791L165.019 77.7409L163.003 87.1489L166.914 87.9871ZM165.694 79.6964C166.662 80.5033 167.821 81.1474 169.129 81.656L170.579 77.928C169.583 77.5406 168.822 77.0968 168.255 76.6236L165.694 79.6964ZM169.129 81.656C170.542 82.2055 172.072 82.464 173.694 82.464V78.464C172.5 78.464 171.47 78.2745 170.579 77.928L169.129 81.656ZM173.694 82.464C176.12 82.464 178.259 81.7034 179.908 80.0542L177.08 77.2258C176.297 78.0086 175.236 78.464 173.694 78.464V82.464ZM179.908 80.0542C181.697 78.2653 182.318 75.4747 182.318 72.304H178.318C178.318 75.1493 177.723 76.5827 177.08 77.2258L179.908 80.0542ZM182.318 72.304V22L178.318 22V72.304H182.318ZM180.318 24L193.47 24V20L180.318 20V24ZM242.068 24.016L241.112 25.773L241.119 25.7764L241.125 25.7799L242.068 24.016ZM250.708 32.56L248.957 33.5262L248.963 33.5376L248.97 33.549L250.708 32.56ZM250.708 59.44L248.962 58.4637L248.957 58.4738L250.708 59.44ZM242.068 67.984L241.125 66.2201L241.119 66.2236L241.112 66.227L242.068 67.984ZM216.532 67.984L217.475 66.2201L216.532 67.984ZM207.796 59.44L206.038 60.3935L206.048 60.4114L206.058 60.429L207.796 59.44ZM207.796 32.56L206.058 31.5709L206.051 31.5824L206.045 31.5938L207.796 32.56ZM216.532 24.016L217.475 25.7799L216.532 24.016ZM223.06 32.56L224.154 34.2339L224.162 34.2291L224.169 34.2241L223.06 32.56ZM219.22 37.552L217.363 36.8092L219.22 37.552ZM219.22 54.448L217.363 55.1908L219.22 54.448ZM223.06 59.536L221.922 61.1804L221.957 61.2052L221.994 61.2285L223.06 59.536ZM235.348 59.536L236.443 61.2099L236.45 61.2051L236.457 61.2001L235.348 59.536ZM239.284 54.448L241.141 55.1908L239.284 54.448ZM239.284 37.552L241.141 36.8092L239.284 37.552ZM235.348 32.56L234.21 34.2044L234.245 34.2292L234.282 34.2525L235.348 32.56ZM229.3 23.04C233.888 23.04 237.804 23.9738 241.112 25.773L243.024 22.259C239.036 20.0902 234.44 19.04 229.3 19.04V23.04ZM241.125 25.7799C244.494 27.5803 247.094 30.15 248.957 33.5262L252.459 31.5938C250.226 27.546 247.066 24.4197 243.011 22.2521L241.125 25.7799ZM248.97 33.549C250.875 36.8979 251.876 41.0201 251.876 46H255.876C255.876 40.4839 254.765 35.6461 252.446 31.5709L248.97 33.549ZM251.876 46C251.876 50.9098 250.877 55.04 248.962 58.4637L252.454 60.4163C254.763 56.288 255.876 51.4582 255.876 46H251.876ZM248.957 58.4738C247.094 61.85 244.494 64.4197 241.125 66.2201L243.011 69.7479C247.066 67.5803 250.226 64.454 252.459 60.4062L248.957 58.4738ZM241.112 66.227C237.804 68.0262 233.888 68.96 229.3 68.96V72.96C234.44 72.96 239.036 71.9098 243.024 69.741L241.112 66.227ZM229.3 68.96C224.782 68.96 220.858 68.0285 217.475 66.2201L215.589 69.7479C219.63 71.9075 224.218 72.96 229.3 72.96V68.96ZM217.475 66.2201C214.101 64.4169 211.462 61.8399 209.534 58.451L206.058 60.429C208.354 64.4641 211.539 67.5831 215.589 69.7479L217.475 66.2201ZM209.554 58.4865C207.695 55.058 206.724 50.9194 206.724 46H202.724C202.724 51.4486 203.801 56.27 206.038 60.3935L209.554 58.4865ZM206.724 46C206.724 41.0105 207.697 36.8798 209.547 33.5262L206.045 31.5938C203.799 35.6642 202.724 40.4935 202.724 46H206.724ZM209.534 33.549C211.462 30.1601 214.101 27.5831 217.475 25.7799L215.589 22.2521C211.539 24.4169 208.354 27.5359 206.058 31.5709L209.534 33.549ZM217.475 25.7799C220.858 23.9715 224.782 23.04 229.3 23.04V19.04C224.218 19.04 219.63 20.0925 215.589 22.2521L217.475 25.7799ZM229.3 28.832C226.542 28.832 224.06 29.4895 221.951 30.8959L224.169 34.2241C225.516 33.3265 227.194 32.832 229.3 32.832V28.832ZM221.965 30.8861C219.89 32.2431 218.378 34.2707 217.363 36.8092L221.077 38.2948C221.854 36.3533 222.902 35.0529 224.154 34.2339L221.965 30.8861ZM217.363 36.8092C216.343 39.3604 215.876 42.4492 215.876 46H219.876C219.876 42.7668 220.305 40.2236 221.077 38.2948L217.363 36.8092ZM215.876 46C215.876 49.5508 216.343 52.6396 217.363 55.1908L221.077 53.7052C220.305 51.7764 219.876 49.2332 219.876 46H215.876ZM217.363 55.1908C218.376 57.7242 219.877 59.7649 221.922 61.1804L224.198 57.8916C222.915 57.0031 221.856 55.6518 221.077 53.7052L217.363 55.1908ZM221.994 61.2285C224.098 62.553 226.564 63.168 229.3 63.168V59.168C227.172 59.168 225.478 58.695 224.126 57.8435L221.994 61.2285ZM229.3 63.168C231.981 63.168 234.395 62.5485 236.443 61.2099L234.253 57.8621C232.973 58.6995 231.355 59.168 229.3 59.168V63.168ZM236.457 61.2001C238.574 59.7891 240.12 57.744 241.141 55.1908L237.427 53.7052C236.656 55.632 235.578 56.979 234.239 57.8719L236.457 61.2001ZM241.141 55.1908C242.161 52.6396 242.628 49.5508 242.628 46H238.628C238.628 49.2332 238.199 51.7764 237.427 53.7052L241.141 55.1908ZM242.628 46C242.628 42.4492 242.161 39.3604 241.141 36.8092L237.427 38.2948C238.199 40.2236 238.628 42.7668 238.628 46H242.628ZM241.141 36.8092C240.117 34.2503 238.561 32.2193 236.414 30.8675L234.282 34.2525C235.591 35.0767 236.659 36.3737 237.427 38.2948L241.141 36.8092ZM236.486 30.9156C234.434 29.4947 232.004 28.832 229.3 28.832V32.832C231.332 32.832 232.934 33.3213 234.21 34.2044L236.486 30.9156ZM272.945 69.232L272.124 71.0558L272.945 69.232ZM266.801 63.76L265.067 64.7569L265.082 64.7828L265.097 64.8082L266.801 63.76ZM264.593 22V20H262.593V22H264.593ZM277.745 22H279.745V20H277.745V22ZM280.049 58.48L278.665 59.924L278.681 59.9393L278.697 59.9543L280.049 58.48ZM290.609 59.92L291.269 61.8077L291.311 61.7932L291.352 61.777L290.609 59.92ZM293.969 57.616L292.555 56.2018L292.532 56.2246L292.51 56.2481L293.969 57.616ZM296.369 53.68L298.251 54.3574L298.255 54.3459L298.259 54.3342L296.369 53.68ZM297.233 22V20H295.233V22H297.233ZM310.385 22H312.385V20H310.385V22ZM310.385 70V72H312.385V70H310.385ZM298.673 70L296.676 70.1148L296.784 72H298.673V70ZM298.193 61.648L300.189 61.5332L299.759 54.0434L296.404 60.7536L298.193 61.648ZM291.569 68.752L292.512 70.5156L292.519 70.5117L292.526 70.5078L291.569 68.752ZM281.585 68.96C278.628 68.96 276.034 68.4288 273.765 67.4082L272.124 71.0558C274.976 72.3391 278.141 72.96 281.585 72.96V68.96ZM273.765 67.4082C271.587 66.428 269.84 64.8826 268.504 62.7118L265.097 64.8082C266.834 67.6294 269.182 69.732 272.124 71.0558L273.765 67.4082ZM268.535 62.7631C267.289 60.5974 266.593 57.6766 266.593 53.872H262.593C262.593 58.1314 263.368 61.8026 265.067 64.7569L268.535 62.7631ZM266.593 53.872V22H262.593V53.872H266.593ZM264.593 24H277.745V20H264.593V24ZM275.745 22V50.704H279.745V22H275.745ZM275.745 50.704C275.745 54.5826 276.527 57.8752 278.665 59.924L281.433 57.036C280.498 56.1408 279.745 54.2494 279.745 50.704H275.745ZM278.697 59.9543C280.723 61.8112 283.485 62.592 286.673 62.592V58.592C284.101 58.592 282.447 57.9648 281.4 57.0057L278.697 59.9543ZM286.673 62.592C288.244 62.592 289.779 62.3294 291.269 61.8077L289.948 58.0323C288.878 58.4066 287.79 58.592 286.673 58.592V62.592ZM291.352 61.777C292.908 61.1543 294.271 60.2173 295.428 58.9839L292.51 56.2481C291.746 57.0627 290.869 57.6617 289.866 58.063L291.352 61.777ZM295.383 59.0302C296.648 57.7648 297.592 56.1865 298.251 54.3574L294.487 53.0026C293.993 54.3735 293.337 55.4192 292.555 56.2018L295.383 59.0302ZM298.259 54.3342C298.924 52.4114 299.233 50.229 299.233 47.824H295.233C295.233 49.899 294.965 51.6206 294.479 53.0258L298.259 54.3342ZM299.233 47.824V22H295.233V47.824H299.233ZM297.233 24L310.385 24V20L297.233 20V24ZM308.385 22V70H312.385V22L308.385 22ZM310.385 68H298.673V72H310.385V68ZM300.669 69.8852L300.189 61.5332L296.196 61.7628L296.676 70.1148L300.669 69.8852ZM296.404 60.7536C294.965 63.6322 293.028 65.678 290.611 66.9962L292.526 70.5078C295.742 68.754 298.221 66.0638 299.982 62.5424L296.404 60.7536ZM290.625 66.9884C288.228 68.271 285.241 68.96 281.585 68.96V72.96C285.737 72.96 289.406 72.177 292.512 70.5156L290.625 66.9884ZM324.224 70H322.224V72H324.224V70ZM324.224 22V20H322.224V22H324.224ZM335.648 22L337.64 21.8171L337.473 20H335.648V22ZM336.513 31.408L334.521 31.5909L338.379 32.126L336.513 31.408ZM342.081 23.728L340.914 22.1034L340.904 22.1106L340.894 22.1179L342.081 23.728ZM356.577 22.096L358.557 22.3716L358.746 21.0136L357.548 20.3477L356.577 22.096ZM355.04 33.136L354.298 34.993L356.669 35.9416L357.021 33.4116L355.04 33.136ZM352.641 32.56L352.358 34.5399L352.367 34.5412L352.376 34.5425L352.641 32.56ZM343.521 33.808L344.415 35.5969L344.44 35.5843L344.465 35.571L343.521 33.808ZM339.104 38.032L340.804 39.0867L340.812 39.0739L340.819 39.061L339.104 38.032ZM337.376 70V72H339.376V70H337.376ZM326.224 70V22H322.224V70H326.224ZM324.224 24H335.648V20H324.224V24ZM333.657 22.1829L334.521 31.5909L338.504 31.2251L337.64 21.8171L333.657 22.1829ZM338.379 32.126C339.547 29.0889 341.194 26.8656 343.267 25.3381L340.894 22.1179C338.103 24.1744 336.038 27.0711 334.646 30.69L338.379 32.126ZM343.247 25.3526C345.337 23.8519 348.01 23.04 351.393 23.04V19.04C347.351 19.04 343.816 20.0201 340.914 22.1034L343.247 25.3526ZM351.393 23.04C352.365 23.04 353.214 23.126 353.949 23.2836L354.788 19.3724C353.731 19.146 352.596 19.04 351.393 19.04V23.04ZM353.949 23.2836C354.722 23.4491 355.255 23.6496 355.605 23.8443L357.548 20.3477C356.746 19.9024 355.807 19.5909 354.788 19.3724L353.949 23.2836ZM354.596 21.8204L353.06 32.8604L357.021 33.4116L358.557 22.3716L354.596 21.8204ZM355.783 31.279C354.942 30.9424 353.968 30.7193 352.905 30.5775L352.376 34.5425C353.233 34.6567 353.859 34.8176 354.298 34.993L355.783 31.279ZM352.923 30.5801C351.894 30.4331 350.604 30.368 349.089 30.368V34.368C350.517 34.368 351.595 34.4309 352.358 34.5399L352.923 30.5801ZM349.089 30.368C346.82 30.368 344.641 30.9389 342.576 32.045L344.465 35.571C345.984 34.7571 347.517 34.368 349.089 34.368V30.368ZM342.626 32.0191C340.455 33.1048 338.713 34.7964 337.39 37.003L340.819 39.061C341.8 37.4276 343.002 36.3032 344.415 35.5969L342.626 32.0191ZM337.405 36.9773C336.003 39.2358 335.376 41.9992 335.376 45.136H339.376C339.376 42.5128 339.902 40.5402 340.804 39.0867L337.405 36.9773ZM335.376 45.136V70H339.376V45.136H335.376ZM337.376 68H324.224V72H337.376V68ZM378.645 6.64H380.645V4.64H378.645V6.64ZM378.645 29.68L380.638 29.8437L380.645 29.762V29.68H378.645ZM377.013 49.552V51.552H378.855L379.006 49.7157L377.013 49.552ZM366.453 49.552L364.459 49.7157L364.61 51.552H366.453V49.552ZM364.82 29.68H362.82V29.762L362.827 29.8437L364.82 29.68ZM364.82 6.64V4.64H362.82V6.64H364.82ZM377.685 58.096L379.033 56.619L377.685 58.096ZM377.685 68.944L378.997 70.4532L379.015 70.4373L379.033 70.421L377.685 68.944ZM365.78 68.944L364.432 70.421L364.45 70.4373L364.468 70.4532L365.78 68.944ZM365.78 58.096L367.129 59.573L365.78 58.096ZM376.645 6.64V29.68H380.645V6.64H376.645ZM376.651 29.5163L375.019 49.3883L379.006 49.7157L380.638 29.8437L376.651 29.5163ZM377.013 47.552L366.453 47.552V51.552L377.013 51.552V47.552ZM368.446 49.3883L366.814 29.5163L362.827 29.8437L364.459 49.7157L368.446 49.3883ZM366.82 29.68V6.64H362.82V29.68H366.82ZM364.82 8.64H378.645V4.64H364.82V8.64ZM371.733 58.08C373.861 58.08 375.319 58.6444 376.336 59.573L379.033 56.619C377.106 54.8596 374.596 54.08 371.733 54.08V58.08ZM376.336 59.573C377.339 60.489 377.892 61.7169 377.892 63.472H381.892C381.892 60.7471 380.974 58.391 379.033 56.619L376.336 59.573ZM377.892 63.472C377.892 65.3103 377.327 66.5623 376.336 67.467L379.033 70.421C380.986 68.6377 381.892 66.2417 381.892 63.472H377.892ZM376.372 67.4348C375.357 68.318 373.885 68.864 371.733 68.864V72.864C374.572 72.864 377.069 72.13 378.997 70.4532L376.372 67.4348ZM371.733 68.864C369.58 68.864 368.108 68.318 367.093 67.4348L364.468 70.4532C366.396 72.13 368.893 72.864 371.733 72.864V68.864ZM367.129 67.467C366.138 66.5623 365.573 65.3103 365.573 63.472H361.573C361.573 66.2417 362.479 68.6377 364.432 70.421L367.129 67.467ZM365.573 63.472C365.573 61.7169 366.126 60.489 367.129 59.573L364.432 56.619C362.491 58.391 361.573 60.7471 361.573 63.472H365.573ZM367.129 59.573C368.146 58.6444 369.604 58.08 371.733 58.08V54.08C368.869 54.08 366.359 54.8596 364.432 56.619L367.129 59.573Z" fill="#555555" mask="url(#path-1-outside-1_74_122)"/>
</svg>
