<svg width="638" height="93" viewBox="0 0 638 93" fill="none" xmlns="http://www.w3.org/2000/svg">
<mask id="path-1-outside-1_78_286" maskUnits="userSpaceOnUse" x="-2" y="-2" width="642" height="97" fill="black">
<rect fill="white" x="-2" y="-2" width="642" height="97"/>
<path d="M57.496 54.528C56.28 58.624 54.36 62.048 51.736 64.8C49.112 67.552 46.008 69.6 42.424 70.944C38.84 72.288 34.904 72.96 30.616 72.96C24.344 72.96 18.904 71.648 14.296 69.024C9.752 66.4 6.232 62.656 3.736 57.792C1.304 52.928 0.0880003 47.104 0.0880003 40.32C0.0880003 33.536 1.304 27.712 3.736 22.848C6.232 17.984 9.752 14.24 14.296 11.616C18.904 8.992 24.28 7.68 30.424 7.68C34.776 7.68 38.712 8.288 42.232 9.504C45.752 10.656 48.728 12.448 51.16 14.88C53.656 17.312 55.48 20.384 56.632 24.096L44.632 29.184C43.544 25.344 41.88 22.624 39.64 21.024C37.4 19.36 34.52 18.528 31 18.528C27.544 18.528 24.504 19.36 21.88 21.024C19.32 22.688 17.336 25.152 15.928 28.416C14.52 31.616 13.816 35.584 13.816 40.32C13.816 44.992 14.456 48.96 15.736 52.224C17.08 55.488 19.032 57.952 21.592 59.616C24.152 61.28 27.288 62.112 31 62.112C34.456 62.112 37.432 61.184 39.928 59.328C42.488 57.472 44.28 54.656 45.304 50.88L57.496 54.528ZM89.3313 23.04C94.1953 23.04 98.4513 24.032 102.099 26.016C105.811 28 108.691 30.848 110.739 34.56C112.851 38.272 113.907 42.752 113.907 48C113.907 53.184 112.851 57.664 110.739 61.44C108.691 65.152 105.811 68 102.099 69.984C98.4513 71.968 94.1953 72.96 89.3313 72.96C84.5313 72.96 80.2753 71.968 76.5633 69.984C72.8513 68 69.9393 65.152 67.8273 61.44C65.7793 57.664 64.7553 53.184 64.7553 48C64.7553 42.752 65.7793 38.272 67.8273 34.56C69.9393 30.848 72.8513 28 76.5633 26.016C80.2753 24.032 84.5313 23.04 89.3313 23.04ZM89.3313 32.832C86.8993 32.832 84.8193 33.408 83.0913 34.56C81.4273 35.648 80.1473 37.312 79.2513 39.552C78.3553 41.792 77.9073 44.608 77.9073 48C77.9073 51.392 78.3553 54.208 79.2513 56.448C80.1473 58.688 81.4273 60.384 83.0913 61.536C84.8193 62.624 86.8993 63.168 89.3313 63.168C91.6993 63.168 93.7153 62.624 95.3793 61.536C97.1073 60.384 98.4193 58.688 99.3153 56.448C100.211 54.208 100.659 51.392 100.659 48C100.659 44.608 100.211 41.792 99.3153 39.552C98.4193 37.312 97.1073 35.648 95.3793 34.56C93.7153 33.408 91.6993 32.832 89.3313 32.832ZM124.912 72V24H136.72L137.2 32.64C138.8 29.44 140.976 27.04 143.728 25.44C146.544 23.84 149.648 23.04 153.04 23.04C156.496 23.04 159.6 23.84 162.352 25.44C165.168 27.04 167.28 29.408 168.688 32.544C169.712 30.432 171.088 28.672 172.816 27.264C174.544 25.856 176.464 24.8 178.576 24.096C180.688 23.392 182.832 23.04 185.008 23.04C188.144 23.04 190.992 23.68 193.552 24.96C196.176 26.24 198.256 28.16 199.792 30.72C201.328 33.28 202.096 36.544 202.096 40.512V72H188.944V43.104C188.944 39.584 188.176 37.088 186.64 35.616C185.104 34.144 183.12 33.408 180.688 33.408C178.768 33.408 176.976 33.888 175.312 34.848C173.712 35.808 172.432 37.248 171.472 39.168C170.576 41.024 170.128 43.36 170.128 46.176V72H156.976V43.104C156.976 39.584 156.176 37.088 154.576 35.616C153.04 34.144 151.056 33.408 148.624 33.408C146.96 33.408 145.296 33.856 143.632 34.752C142.032 35.648 140.688 37.056 139.6 38.976C138.576 40.896 138.064 43.424 138.064 46.56V72H124.912ZM215.662 92.16V24H227.47L228.334 39.264L226.702 37.536C227.278 34.72 228.334 32.224 229.87 30.048C231.47 27.872 233.486 26.176 235.918 24.96C238.35 23.68 241.07 23.04 244.078 23.04C247.982 23.04 251.47 24.032 254.542 26.016C257.614 28 260.014 30.848 261.742 34.56C263.534 38.208 264.43 42.656 264.43 47.904C264.43 53.152 263.534 57.664 261.742 61.44C259.95 65.152 257.486 68 254.35 69.984C251.278 71.968 247.758 72.96 243.79 72.96C239.566 72.96 236.046 71.776 233.23 69.408C230.478 67.04 228.59 64.064 227.566 60.48L228.814 58.464V92.16H215.662ZM239.95 62.88C243.47 62.88 246.222 61.632 248.206 59.136C250.254 56.576 251.278 52.864 251.278 48C251.278 43.136 250.286 39.456 248.302 36.96C246.382 34.4 243.662 33.12 240.142 33.12C237.902 33.12 235.918 33.728 234.19 34.944C232.526 36.096 231.214 37.792 230.254 40.032C229.294 42.208 228.814 44.864 228.814 48C228.814 51.072 229.262 53.728 230.158 55.968C231.054 58.208 232.334 59.936 233.998 61.152C235.726 62.304 237.71 62.88 239.95 62.88ZM298.122 72.96C293.066 72.96 288.65 71.968 284.874 69.984C281.162 68 278.282 65.152 276.234 61.44C274.186 57.728 273.162 53.248 273.162 48C273.162 42.752 274.186 38.272 276.234 34.56C278.282 30.848 281.13 28 284.778 26.016C288.49 24.032 292.714 23.04 297.45 23.04C302.314 23.04 306.442 24.032 309.834 26.016C313.226 27.936 315.818 30.592 317.61 33.984C319.402 37.312 320.298 41.12 320.298 45.408C320.298 46.688 320.266 47.904 320.202 49.056C320.138 50.208 320.042 51.232 319.914 52.128H281.609V43.008H314.154L307.818 45.312C307.818 41.28 306.89 38.176 305.034 36C303.242 33.824 300.682 32.736 297.354 32.736C294.922 32.736 292.81 33.312 291.018 34.464C289.29 35.616 287.978 37.344 287.082 39.648C286.186 41.888 285.738 44.736 285.738 48.192C285.738 51.584 286.218 54.4 287.178 56.64C288.202 58.816 289.61 60.448 291.402 61.536C293.258 62.624 295.466 63.168 298.026 63.168C300.842 63.168 303.114 62.624 304.842 61.536C306.57 60.448 307.914 58.944 308.874 57.024L319.338 61.056C318.314 63.552 316.746 65.696 314.634 67.488C312.586 69.28 310.122 70.656 307.242 71.616C304.426 72.512 301.386 72.96 298.122 72.96ZM297.354 0.767996H310.026L300.426 17.088H290.73L297.354 0.767996ZM347.498 9.31199V56.352C347.498 58.656 348.074 60.352 349.226 61.44C350.442 62.464 352.074 62.976 354.122 62.976C355.722 62.976 357.13 62.752 358.346 62.304C359.562 61.792 360.65 61.12 361.61 60.288L363.722 69.024C362.186 70.24 360.266 71.2 357.962 71.904C355.658 72.608 353.226 72.96 350.666 72.96C347.466 72.96 344.618 72.48 342.122 71.52C339.69 70.56 337.77 69.024 336.362 66.912C335.018 64.8 334.346 61.984 334.346 58.464V12.96L347.498 9.31199ZM362.858 24V33.792H325.514V24H362.858ZM394.028 72.96C388.972 72.96 384.556 71.968 380.78 69.984C377.068 68 374.188 65.152 372.14 61.44C370.092 57.728 369.068 53.248 369.068 48C369.068 42.752 370.092 38.272 372.14 34.56C374.188 30.848 377.036 28 380.684 26.016C384.396 24.032 388.62 23.04 393.356 23.04C398.22 23.04 402.348 24.032 405.74 26.016C409.132 27.936 411.724 30.592 413.516 33.984C415.308 37.312 416.204 41.12 416.204 45.408C416.204 46.688 416.172 47.904 416.108 49.056C416.044 50.208 415.948 51.232 415.82 52.128L377.516 52.128V43.008H410.06L403.724 45.312C403.724 41.28 402.796 38.176 400.94 36C399.148 33.824 396.588 32.736 393.26 32.736C390.828 32.736 388.716 33.312 386.924 34.464C385.196 35.616 383.884 37.344 382.988 39.648C382.092 41.888 381.644 44.736 381.644 48.192C381.644 51.584 382.124 54.4 383.084 56.64C384.108 58.816 385.516 60.448 387.308 61.536C389.164 62.624 391.372 63.168 393.932 63.168C396.748 63.168 399.02 62.624 400.748 61.536C402.476 60.448 403.82 58.944 404.78 57.024L415.244 61.056C414.22 63.552 412.652 65.696 410.54 67.488C408.492 69.28 406.028 70.656 403.148 71.616C400.332 72.512 397.292 72.96 394.028 72.96ZM427.35 72V24H439.158L439.926 38.4L438.294 36.864C439.062 33.728 440.278 31.136 441.942 29.088C443.606 27.04 445.622 25.536 447.99 24.576C450.422 23.552 453.078 23.04 455.958 23.04C459.286 23.04 462.23 23.68 464.79 24.96C467.414 26.24 469.462 28.192 470.934 30.816C472.47 33.376 473.238 36.608 473.238 40.512V72H460.086V44.256C460.086 40.16 459.286 37.344 457.686 35.808C456.086 34.208 454.006 33.408 451.446 33.408C449.654 33.408 447.894 33.856 446.166 34.752C444.502 35.584 443.126 36.96 442.038 38.88C441.014 40.8 440.502 43.36 440.502 46.56V72H427.35ZM508.579 23.04C512.867 23.04 516.483 23.68 519.427 24.96C522.435 26.176 524.835 27.872 526.627 30.048C528.483 32.16 529.795 34.528 530.563 37.152L518.275 41.568C517.635 38.688 516.547 36.512 515.011 35.04C513.475 33.568 511.395 32.832 508.771 32.832C506.339 32.832 504.259 33.408 502.531 34.56C500.803 35.648 499.491 37.344 498.595 39.648C497.699 41.888 497.251 44.704 497.251 48.096C497.251 51.488 497.699 54.304 498.595 56.544C499.555 58.784 500.899 60.448 502.627 61.536C504.419 62.624 506.499 63.168 508.867 63.168C510.787 63.168 512.419 62.848 513.763 62.208C515.107 61.504 516.195 60.512 517.027 59.232C517.923 57.952 518.531 56.416 518.851 54.624L530.755 58.464C530.051 61.344 528.739 63.872 526.819 66.048C524.899 68.224 522.435 69.92 519.427 71.136C516.419 72.352 512.931 72.96 508.963 72.96C504.035 72.96 499.683 71.968 495.907 69.984C492.131 68 489.219 65.152 487.171 61.44C485.123 57.728 484.099 53.248 484.099 48C484.099 42.752 485.123 38.272 487.171 34.56C489.219 30.848 492.099 28 495.811 26.016C499.523 24.032 503.779 23.04 508.579 23.04ZM563.247 72.96C558.191 72.96 553.775 71.968 549.999 69.984C546.287 68 543.407 65.152 541.359 61.44C539.311 57.728 538.287 53.248 538.287 48C538.287 42.752 539.311 38.272 541.359 34.56C543.407 30.848 546.255 28 549.903 26.016C553.615 24.032 557.839 23.04 562.575 23.04C567.439 23.04 571.567 24.032 574.959 26.016C578.351 27.936 580.943 30.592 582.735 33.984C584.527 37.312 585.423 41.12 585.423 45.408C585.423 46.688 585.391 47.904 585.327 49.056C585.263 50.208 585.167 51.232 585.039 52.128H546.734V43.008L579.279 43.008L572.943 45.312C572.943 41.28 572.015 38.176 570.159 36C568.367 33.824 565.807 32.736 562.479 32.736C560.047 32.736 557.935 33.312 556.143 34.464C554.415 35.616 553.103 37.344 552.207 39.648C551.311 41.888 550.863 44.736 550.863 48.192C550.863 51.584 551.343 54.4 552.303 56.64C553.327 58.816 554.735 60.448 556.527 61.536C558.383 62.624 560.591 63.168 563.151 63.168C565.967 63.168 568.239 62.624 569.967 61.536C571.695 60.448 573.039 58.944 573.999 57.024L584.463 61.056C583.439 63.552 581.871 65.696 579.759 67.488C577.711 69.28 575.247 70.656 572.367 71.616C569.551 72.512 566.511 72.96 563.247 72.96ZM615.768 72.96C610.904 72.96 606.456 72.096 602.424 70.368C598.456 68.64 595.224 66.208 592.728 63.072L600.312 55.392C601.848 57.696 603.896 59.584 606.456 61.056C609.016 62.528 612.056 63.264 615.576 63.264C618.072 63.264 620.056 62.912 621.528 62.208C623.064 61.44 623.832 60.256 623.832 58.656C623.832 57.632 623.48 56.768 622.776 56.064C622.072 55.296 620.664 54.688 618.552 54.24L610.104 52.512C604.536 51.36 600.568 49.632 598.2 47.328C595.896 44.96 594.744 41.92 594.744 38.208C594.744 35.584 595.512 33.12 597.048 30.816C598.648 28.512 601.016 26.656 604.152 25.248C607.288 23.776 611.192 23.04 615.864 23.04C620.664 23.04 624.824 23.808 628.344 25.344C631.928 26.816 634.744 29.024 636.792 31.968L628.92 39.648C627.512 37.408 625.656 35.712 623.352 34.56C621.112 33.344 618.744 32.736 616.248 32.736C614.456 32.736 612.92 32.928 611.64 33.312C610.36 33.696 609.4 34.24 608.76 34.944C608.12 35.584 607.8 36.416 607.8 37.44C607.8 38.464 608.248 39.36 609.144 40.128C610.04 40.832 611.672 41.44 614.04 41.952L623.832 43.968C628.568 44.928 631.96 46.56 634.008 48.864C636.056 51.104 637.08 53.824 637.08 57.024C637.08 60.096 636.248 62.848 634.584 65.28C632.984 67.648 630.584 69.536 627.384 70.944C624.248 72.288 620.376 72.96 615.768 72.96Z"/>
</mask>
<path d="M57.496 54.528L59.4133 55.0972L59.9813 53.184L58.0693 52.6119L57.496 54.528ZM51.736 64.8L53.1835 66.1802L51.736 64.8ZM42.424 70.944L41.7218 69.0713L42.424 70.944ZM14.296 69.024L13.2958 70.756L13.3063 70.762L14.296 69.024ZM3.736 57.792L1.94715 58.6864L1.95183 58.6958L1.95661 58.7051L3.736 57.792ZM3.736 22.848L1.95661 21.9349L1.95183 21.9442L1.94715 21.9536L3.736 22.848ZM14.296 11.616L13.3063 9.878L13.2959 9.88404L14.296 11.616ZM42.232 9.504L41.579 11.3944L41.5944 11.3997L41.6099 11.4048L42.232 9.504ZM51.16 14.88L49.7458 16.2942L49.755 16.3034L49.7643 16.3125L51.16 14.88ZM56.632 24.096L57.4127 25.9373L59.0784 25.2311L58.5421 23.5032L56.632 24.096ZM44.632 29.184L42.7077 29.7292L43.3257 31.9102L45.4127 31.0253L44.632 29.184ZM39.64 21.024L38.4474 22.6295L38.4623 22.6406L38.4775 22.6515L39.64 21.024ZM21.88 21.024L20.8089 19.335L20.7994 19.341L20.79 19.3471L21.88 21.024ZM15.928 28.416L17.7586 29.2215L17.7616 29.2148L17.7644 29.2082L15.928 28.416ZM15.736 52.224L13.8741 52.9542L13.8802 52.9699L13.8866 52.9855L15.736 52.224ZM21.592 59.616L22.682 57.9391L21.592 59.616ZM39.928 59.328L38.7541 57.7088L38.7443 57.7159L38.7346 57.7231L39.928 59.328ZM45.304 50.88L45.8773 48.9639L43.9109 48.3756L43.3737 50.3565L45.304 50.88ZM55.5787 53.9588C54.4416 57.7891 52.6681 60.9242 50.2885 63.4198L53.1835 66.1802C56.0519 63.1718 58.1184 59.4589 59.4133 55.0972L55.5787 53.9588ZM50.2885 63.4198C47.8741 65.9521 45.0253 67.8325 41.7218 69.0713L43.1262 72.8167C46.9907 71.3675 50.3499 69.1519 53.1835 66.1802L50.2885 63.4198ZM41.7218 69.0713C38.3877 70.3216 34.6928 70.96 30.616 70.96V74.96C35.1152 74.96 39.2923 74.2544 43.1262 72.8167L41.7218 69.0713ZM30.616 70.96C24.6273 70.96 19.5412 69.7093 15.2857 67.286L13.3063 70.762C18.2668 73.5867 24.0607 74.96 30.616 74.96V70.96ZM15.2962 67.292C11.0996 64.8687 7.84354 61.4158 5.51539 56.8789L1.95661 58.7051C4.62046 63.8962 8.40437 67.9313 13.2959 70.756L15.2962 67.292ZM5.52485 56.8976C3.2618 52.3715 2.088 46.8686 2.088 40.32H-1.912C-1.912 47.3394 -0.653799 53.4845 1.94715 58.6864L5.52485 56.8976ZM2.088 40.32C2.088 33.7714 3.2618 28.2685 5.52485 23.7424L1.94715 21.9536C-0.653799 27.1555 -1.912 33.3006 -1.912 40.32H2.088ZM5.51539 23.7611C7.84354 19.2242 11.0996 15.7713 15.2962 13.348L13.2959 9.88404C8.40437 12.7087 4.62046 16.7438 1.95661 21.9349L5.51539 23.7611ZM15.2857 13.354C19.5472 10.9273 24.5714 9.68 30.424 9.68V5.68C23.9886 5.68 18.2608 7.05672 13.3063 9.87803L15.2857 13.354ZM30.424 9.68C34.5904 9.68 38.3011 10.262 41.579 11.3944L42.885 7.61362C39.1229 6.31397 34.9616 5.68 30.424 5.68V9.68ZM41.6099 11.4048C44.8548 12.4667 47.5528 14.1012 49.7458 16.2942L52.5742 13.4658C49.9032 10.7948 46.6492 8.84525 42.8541 7.6032L41.6099 11.4048ZM49.7643 16.3125C51.995 18.486 53.6571 21.2578 54.7219 24.6888L58.5421 23.5032C57.3029 19.5102 55.317 16.138 52.5557 13.4475L49.7643 16.3125ZM55.8513 22.2547L43.8513 27.3427L45.4127 31.0253L57.4127 25.9373L55.8513 22.2547ZM46.5563 28.6388C45.3985 24.5528 43.5461 21.3562 40.8025 19.3965L38.4775 22.6515C40.2139 23.8918 41.6895 26.1352 42.7077 29.7292L46.5563 28.6388ZM40.8327 19.4185C38.1666 17.438 34.8361 16.528 31 16.528V20.528C34.2039 20.528 36.6334 21.282 38.4474 22.6295L40.8327 19.4185ZM31 16.528C27.2087 16.528 23.7885 17.4455 20.8089 19.335L22.9511 22.713C25.2195 21.2745 27.8793 20.528 31 20.528V16.528ZM20.79 19.3471C17.8479 21.2595 15.6295 24.0587 14.0916 27.6238L17.7644 29.2082C19.0425 26.2453 20.7921 24.1165 22.97 22.7009L20.79 19.3471ZM14.0974 27.6105C12.5456 31.1374 11.816 35.3994 11.816 40.32H15.816C15.816 35.7686 16.4944 32.0946 17.7586 29.2215L14.0974 27.6105ZM11.816 40.32C11.816 45.1635 12.478 49.3943 13.8741 52.9542L17.5979 51.4938C16.434 48.5257 15.816 44.8205 15.816 40.32H11.816ZM13.8866 52.9855C15.3603 56.5643 17.5511 59.3748 20.502 61.2929L22.682 57.9391C20.5129 56.5292 18.7998 54.4117 17.5854 51.4625L13.8866 52.9855ZM20.502 61.2929C23.4505 63.2094 26.9852 64.112 31 64.112V60.112C27.5908 60.112 24.8535 59.3506 22.682 57.9391L20.502 61.2929ZM31 64.112C34.8357 64.112 38.2422 63.0739 41.1214 60.9329L38.7346 57.7231C36.6218 59.2941 34.0763 60.112 31 60.112V64.112ZM41.1019 60.9472C44.1129 58.7643 46.1199 55.5128 47.2343 51.4035L43.3737 50.3565C42.4401 53.7991 40.8631 56.1797 38.7541 57.7088L41.1019 60.9472ZM44.7307 52.7961L56.9227 56.4441L58.0693 52.6119L45.8773 48.9639L44.7307 52.7961ZM102.099 26.016L101.144 27.773L101.15 27.7764L101.156 27.7799L102.099 26.016ZM110.739 34.56L108.988 35.5262L108.994 35.5376L109.001 35.549L110.739 34.56ZM110.739 61.44L108.994 60.4637L108.988 60.4738L110.739 61.44ZM102.099 69.984L101.157 68.2201L101.15 68.2236L101.144 68.227L102.099 69.984ZM76.5632 69.984L77.506 68.2201L76.5632 69.984ZM67.8272 61.44L66.0692 62.3935L66.0789 62.4114L66.0889 62.429L67.8272 61.44ZM67.8272 34.56L66.0889 33.5709L66.0824 33.5824L66.0761 33.5938L67.8272 34.56ZM76.5632 26.016L77.506 27.7799L76.5632 26.016ZM83.0912 34.56L84.1858 36.2339L84.1932 36.2291L84.2007 36.2241L83.0912 34.56ZM79.2513 39.552L77.3943 38.8092L79.2513 39.552ZM79.2513 56.448L77.3943 57.1908L79.2513 56.448ZM83.0912 61.536L81.9528 63.1804L81.9887 63.2052L82.0256 63.2285L83.0912 61.536ZM95.3792 61.536L96.4737 63.2099L96.4812 63.2051L96.4886 63.2001L95.3792 61.536ZM99.3153 56.448L101.172 57.1908L99.3153 56.448ZM99.3153 39.552L101.172 38.8092L99.3153 39.552ZM95.3792 34.56L94.2408 36.2044L94.2767 36.2292L94.3136 36.2525L95.3792 34.56ZM89.3313 25.04C93.9188 25.04 97.8355 25.9738 101.144 27.773L103.055 24.259C99.067 22.0902 94.4717 21.04 89.3313 21.04V25.04ZM101.156 27.7799C104.525 29.5803 107.125 32.15 108.988 35.5262L112.49 33.5938C110.257 29.546 107.098 26.4197 103.042 24.2521L101.156 27.7799ZM109.001 35.549C110.906 38.8979 111.907 43.0201 111.907 48H115.907C115.907 42.4839 114.796 37.6461 112.478 33.5709L109.001 35.549ZM111.907 48C111.907 52.9098 110.909 57.04 108.994 60.4637L112.485 62.4163C114.794 58.288 115.907 53.4582 115.907 48H111.907ZM108.988 60.4738C107.125 63.85 104.525 66.4197 101.157 68.2201L103.042 71.7479C107.098 69.5803 110.257 66.454 112.49 62.4062L108.988 60.4738ZM101.144 68.227C97.8355 70.0262 93.9188 70.96 89.3313 70.96V74.96C94.4717 74.96 99.067 73.9098 103.055 71.741L101.144 68.227ZM89.3313 70.96C84.8135 70.96 80.8894 70.0285 77.506 68.2201L75.6205 71.7479C79.6611 73.9075 84.249 74.96 89.3313 74.96V70.96ZM77.506 68.2201C74.1322 66.4169 71.4938 63.8399 69.5656 60.451L66.0889 62.429C68.3848 66.4641 71.5703 69.5831 75.6205 71.7479L77.506 68.2201ZM69.5853 60.4865C67.7258 57.058 66.7552 52.9194 66.7552 48H62.7552C62.7552 53.4486 63.8327 58.27 66.0692 62.3935L69.5853 60.4865ZM66.7552 48C66.7552 43.0105 67.7281 38.8798 69.5784 35.5262L66.0761 33.5938C63.8304 37.6642 62.7552 42.4935 62.7552 48H66.7552ZM69.5656 35.549C71.4938 32.1601 74.1322 29.5831 77.506 27.7799L75.6205 24.2521C71.5703 26.4169 68.3848 29.5359 66.0889 33.5709L69.5656 35.549ZM77.506 27.7799C80.8894 25.9715 84.8135 25.04 89.3313 25.04V21.04C84.249 21.04 79.6611 22.0925 75.6205 24.2521L77.506 27.7799ZM89.3313 30.832C86.5735 30.832 84.0915 31.4895 81.9818 32.8959L84.2007 36.2241C85.547 35.3265 87.225 34.832 89.3313 34.832V30.832ZM81.9967 32.8861C79.9213 34.2431 78.4097 36.2707 77.3943 38.8092L81.1082 40.2948C81.8848 38.3533 82.9332 37.0529 84.1858 36.2339L81.9967 32.8861ZM77.3943 38.8092C76.3738 41.3604 75.9072 44.4492 75.9072 48H79.9072C79.9072 44.7668 80.3367 42.2236 81.1082 40.2948L77.3943 38.8092ZM75.9072 48C75.9072 51.5508 76.3738 54.6396 77.3943 57.1908L81.1082 55.7052C80.3367 53.7764 79.9072 51.2332 79.9072 48H75.9072ZM77.3943 57.1908C78.4077 59.7242 79.9083 61.7649 81.9528 63.1804L84.2297 59.8916C82.9462 59.0031 81.8868 57.6518 81.1082 55.7052L77.3943 57.1908ZM82.0256 63.2285C84.1292 64.553 86.595 65.168 89.3313 65.168V61.168C87.2035 61.168 85.5093 60.695 84.1569 59.8435L82.0256 63.2285ZM89.3313 65.168C92.0126 65.168 94.4265 64.5485 96.4737 63.2099L94.2848 59.8621C93.004 60.6995 91.3859 61.168 89.3313 61.168V65.168ZM96.4886 63.2001C98.6052 61.7891 100.151 59.744 101.172 57.1908L97.4583 55.7052C96.6876 57.632 95.6093 58.979 94.2699 59.8719L96.4886 63.2001ZM101.172 57.1908C102.193 54.6396 102.659 51.5508 102.659 48H98.6592C98.6592 51.2332 98.2298 53.7764 97.4583 55.7052L101.172 57.1908ZM102.659 48C102.659 44.4492 102.193 41.3604 101.172 38.8092L97.4583 40.2948C98.2298 42.2236 98.6592 44.7668 98.6592 48H102.659ZM101.172 38.8092C100.149 36.2503 98.5918 34.2193 96.4449 32.8675L94.3136 36.2525C95.6227 37.0767 96.6899 38.3737 97.4583 40.2948L101.172 38.8092ZM96.5177 32.9156C94.4652 31.4947 92.035 30.832 89.3313 30.832V34.832C91.3635 34.832 92.9653 35.3213 94.2408 36.2044L96.5177 32.9156ZM124.912 72L122.912 72V74L124.912 74V72ZM124.912 24V22H122.912V24H124.912ZM136.72 24L138.717 23.8891L138.612 22H136.72V24ZM137.2 32.64L135.203 32.7509L135.621 40.2705L138.989 33.5344L137.2 32.64ZM143.728 25.44L142.74 23.7011L142.731 23.706L142.723 23.711L143.728 25.44ZM162.352 25.44L161.347 27.169L161.355 27.174L161.364 27.1789L162.352 25.44ZM168.688 32.544L166.863 33.3632L168.618 37.2719L170.488 33.4165L168.688 32.544ZM172.816 27.264L174.079 28.8145L172.816 27.264ZM178.576 24.096L179.208 25.9934L178.576 24.096ZM193.552 24.96L192.658 26.7489L192.666 26.7532L192.675 26.7575L193.552 24.96ZM199.792 30.72L198.077 31.749L199.792 30.72ZM202.096 72V74H204.096V72H202.096ZM188.944 72H186.944V74H188.944V72ZM175.312 34.848L174.313 33.1156L174.298 33.1242L174.283 33.133L175.312 34.848ZM171.472 39.168L169.683 38.2736L169.677 38.286L169.671 38.2985L171.472 39.168ZM170.128 72V74H172.128V72H170.128ZM156.976 72H154.976V74H156.976V72ZM154.576 35.616L153.192 37.06L153.207 37.0741L153.222 37.0879L154.576 35.616ZM143.632 34.752L142.684 32.9911L142.669 32.9989L142.655 33.007L143.632 34.752ZM139.6 38.976L137.86 37.99L137.847 38.0122L137.835 38.0348L139.6 38.976ZM138.064 72V74H140.064V72H138.064ZM126.912 72V24H122.912V72L126.912 72ZM124.912 26H136.72V22H124.912V26ZM134.723 24.1109L135.203 32.7509L139.197 32.5291L138.717 23.8891L134.723 24.1109ZM138.989 33.5344C140.437 30.6384 142.359 28.5495 144.733 27.169L142.723 23.711C139.593 25.5305 137.163 28.2416 135.411 31.7456L138.989 33.5344ZM144.716 27.1789C147.216 25.7583 149.977 25.04 153.04 25.04V21.04C149.319 21.04 145.872 21.9217 142.74 23.7011L144.716 27.1789ZM153.04 25.04C156.174 25.04 158.926 25.7616 161.347 27.169L163.357 23.711C160.274 21.9184 156.818 21.04 153.04 21.04V25.04ZM161.364 27.1789C163.787 28.5557 165.618 30.5896 166.863 33.3632L170.513 31.7248C168.942 28.2264 166.549 25.5243 163.34 23.7011L161.364 27.1789ZM170.488 33.4165C171.391 31.5527 172.589 30.0286 174.079 28.8145L171.553 25.7135C169.587 27.3154 168.033 29.3113 166.888 31.6715L170.488 33.4165ZM174.079 28.8145C175.62 27.5591 177.326 26.6208 179.208 25.9934L177.944 22.1986C175.602 22.9792 173.468 24.1529 171.553 25.7135L174.079 28.8145ZM179.208 25.9934C181.121 25.3557 183.052 25.04 185.008 25.04V21.04C182.612 21.04 180.255 21.4282 177.944 22.1986L179.208 25.9934ZM185.008 25.04C187.864 25.04 190.401 25.6206 192.658 26.7489L194.446 23.1711C191.583 21.7394 188.424 21.04 185.008 21.04V25.04ZM192.675 26.7575C194.943 27.8638 196.735 29.5129 198.077 31.749L201.507 29.691C199.777 26.8071 197.409 24.6162 194.429 23.1625L192.675 26.7575ZM198.077 31.749C199.375 33.9119 200.096 36.7906 200.096 40.512H204.096C204.096 36.2974 203.281 32.6481 201.507 29.691L198.077 31.749ZM200.096 40.512V72H204.096V40.512H200.096ZM202.096 70H188.944V74H202.096V70ZM190.944 72V43.104L186.944 43.104V72H190.944ZM190.944 43.104C190.944 39.3795 190.146 36.2054 188.024 34.172L185.256 37.06C186.206 37.9706 186.944 39.7885 186.944 43.104L190.944 43.104ZM188.024 34.172C186.062 32.2916 183.556 31.408 180.688 31.408V35.408C182.684 35.408 184.146 35.9964 185.256 37.06L188.024 34.172ZM180.688 31.408C178.417 31.408 176.28 31.9804 174.313 33.1156L176.311 36.5804C177.672 35.7956 179.119 35.408 180.688 35.408V31.408ZM174.283 33.133C172.31 34.3168 170.787 36.0657 169.683 38.2736L173.261 40.0624C174.077 38.4303 175.114 37.2992 176.341 36.563L174.283 33.133ZM169.671 38.2985C168.605 40.5061 168.128 43.1632 168.128 46.176H172.128C172.128 43.5568 172.547 41.5419 173.273 40.0375L169.671 38.2985ZM168.128 46.176V72H172.128V46.176H168.128ZM170.128 70H156.976V74H170.128V70ZM158.976 72V43.104H154.976V72H158.976ZM158.976 43.104C158.976 39.3605 158.137 36.1743 155.93 34.1441L153.222 37.0879C154.215 38.0017 154.976 39.8075 154.976 43.104H158.976ZM155.96 34.172C153.998 32.2916 151.492 31.408 148.624 31.408V35.408C150.62 35.408 152.082 35.9964 153.192 37.06L155.96 34.172ZM148.624 31.408C146.586 31.408 144.599 31.9597 142.684 32.9911L144.58 36.5129C145.993 35.7523 147.334 35.408 148.624 35.408V31.408ZM142.655 33.007C140.677 34.1148 139.091 35.817 137.86 37.99L141.34 39.962C142.285 38.295 143.387 37.1812 144.609 36.497L142.655 33.007ZM137.835 38.0348C136.604 40.3441 136.064 43.231 136.064 46.56H140.064C140.064 43.617 140.548 41.4479 141.365 39.9172L137.835 38.0348ZM136.064 46.56V72H140.064V46.56H136.064ZM138.064 70H124.912V74H138.064V70ZM215.662 92.16H213.662V94.16H215.662V92.16ZM215.662 24V22H213.662V24H215.662ZM227.47 24L229.467 23.887L229.36 22H227.47V24ZM228.334 39.264L226.88 40.6372L230.64 44.6188L230.331 39.151L228.334 39.264ZM226.702 37.536L224.743 37.1352L224.534 38.1536L225.248 38.9092L226.702 37.536ZM229.87 30.048L228.259 28.8632L228.247 28.8788L228.236 28.8946L229.87 30.048ZM235.918 24.96L236.812 26.7489L236.831 26.7395L236.85 26.7298L235.918 24.96ZM261.742 34.56L259.929 35.4041L259.938 35.423L259.947 35.4418L261.742 34.56ZM261.742 61.44L263.543 62.3095L263.549 62.2975L261.742 61.44ZM254.35 69.984L253.281 68.2938L253.273 68.2988L253.265 68.3039L254.35 69.984ZM233.23 69.408L231.926 70.924L231.934 70.9314L231.943 70.9387L233.23 69.408ZM227.566 60.48L225.865 59.4273L225.4 60.1792L225.643 61.0294L227.566 60.48ZM228.814 58.464H230.814V51.4335L227.113 57.4113L228.814 58.464ZM228.814 92.16V94.16H230.814V92.16H228.814ZM248.206 59.136L246.644 57.8866L246.64 57.8915L248.206 59.136ZM248.302 36.96L246.702 38.16L246.719 38.1825L246.736 38.2045L248.302 36.96ZM234.19 34.944L235.328 36.5884L235.335 36.584L235.341 36.5796L234.19 34.944ZM230.254 40.032L232.084 40.8393L232.088 40.8296L232.092 40.8198L230.254 40.032ZM230.158 55.968L228.301 56.7108L230.158 55.968ZM233.998 61.152L232.818 62.7668L232.853 62.7922L232.889 62.8161L233.998 61.152ZM217.662 92.16V24H213.662V92.16H217.662ZM215.662 26H227.47V22H215.662V26ZM225.473 24.113L226.337 39.377L230.331 39.151L229.467 23.887L225.473 24.113ZM229.788 37.8908L228.156 36.1628L225.248 38.9092L226.88 40.6372L229.788 37.8908ZM228.661 37.9368C229.187 35.3698 230.14 33.1343 231.504 31.2014L228.236 28.8946C226.528 31.3137 225.369 34.0702 224.743 37.1352L228.661 37.9368ZM231.481 31.2328C232.892 29.3139 234.662 27.8241 236.812 26.7489L235.024 23.1711C232.31 24.5279 230.048 26.4301 228.259 28.8632L231.481 31.2328ZM236.85 26.7298C238.968 25.6149 241.363 25.04 244.078 25.04V21.04C240.777 21.04 237.732 21.7451 234.987 23.1902L236.85 26.7298ZM244.078 25.04C247.624 25.04 250.73 25.9352 253.457 27.6961L255.627 24.3359C252.21 22.1288 248.34 21.04 244.078 21.04V25.04ZM253.457 27.6961C256.175 29.4518 258.34 31.9917 259.929 35.4041L263.555 33.7159C261.688 29.7043 259.053 26.5482 255.627 24.3359L253.457 27.6961ZM259.947 35.4418C261.571 38.7475 262.43 42.8758 262.43 47.904H266.43C266.43 42.4362 265.497 37.6685 263.537 33.6782L259.947 35.4418ZM262.43 47.904C262.43 52.9291 261.572 57.1339 259.935 60.5825L263.549 62.2975C265.496 58.1941 266.43 53.3749 266.43 47.904H262.43ZM259.941 60.5705C258.293 63.9844 256.067 66.5313 253.281 68.2938L255.419 71.6742C258.905 69.4687 261.607 66.3196 263.543 62.3095L259.941 60.5705ZM253.265 68.3039C250.544 70.0613 247.407 70.96 243.79 70.96V74.96C248.109 74.96 252.012 73.8747 255.435 71.6641L253.265 68.3039ZM243.79 70.96C239.963 70.96 236.92 69.8979 234.517 67.8773L231.943 70.9387C235.172 73.6541 239.169 74.96 243.79 74.96V70.96ZM234.534 67.892C232.087 65.7859 230.409 63.1495 229.489 59.9306L225.643 61.0294C226.771 64.9785 228.869 68.2941 231.926 70.924L234.534 67.892ZM229.267 61.5327L230.515 59.5167L227.113 57.4113L225.865 59.4273L229.267 61.5327ZM226.814 58.464V92.16H230.814V58.464H226.814ZM228.814 90.16H215.662V94.16H228.814V90.16ZM239.95 64.88C244.007 64.88 247.365 63.4077 249.772 60.3805L246.64 57.8915C245.079 59.8563 242.933 60.88 239.95 60.88V64.88ZM249.768 60.3854C252.208 57.335 253.278 53.1068 253.278 48H249.278C249.278 52.6212 248.3 55.817 246.644 57.8866L249.768 60.3854ZM253.278 48C253.278 42.9098 252.247 38.7089 249.868 35.7155L246.736 38.2045C248.325 40.2031 249.278 43.3622 249.278 48H253.278ZM249.902 35.76C247.563 32.641 244.219 31.12 240.142 31.12V35.12C243.105 35.12 245.201 36.159 246.702 38.16L249.902 35.76ZM240.142 31.12C237.516 31.12 235.125 31.8406 233.039 33.3084L235.341 36.5796C236.711 35.6154 238.288 35.12 240.142 35.12V31.12ZM233.052 33.2996C231.02 34.7058 229.493 36.7296 228.416 39.2442L232.092 40.8198C232.935 38.8544 234.032 37.4862 235.328 36.5884L233.052 33.2996ZM228.424 39.2247C227.322 41.7223 226.814 44.6703 226.814 48H230.814C230.814 45.0577 231.266 42.6937 232.084 40.8393L228.424 39.2247ZM226.814 48C226.814 51.2598 227.289 54.1797 228.301 56.7108L232.015 55.2252C231.235 53.2763 230.814 50.8842 230.814 48H226.814ZM228.301 56.7108C229.312 59.2388 230.802 61.2939 232.818 62.7668L235.178 59.5372C233.866 58.5781 232.796 57.1772 232.015 55.2252L228.301 56.7108ZM232.889 62.8161C234.971 64.2045 237.348 64.88 239.95 64.88V60.88C238.072 60.88 236.481 60.4035 235.107 59.4879L232.889 62.8161ZM284.874 69.984L283.931 71.7479L283.937 71.7512L283.943 71.7545L284.874 69.984ZM276.233 61.44L277.985 60.4738L276.233 61.44ZM276.233 34.56L277.985 35.5262L276.233 34.56ZM284.777 26.016L283.835 24.2521L283.828 24.2556L283.822 24.259L284.777 26.016ZM309.833 26.016L308.824 27.7424L308.836 27.7495L308.848 27.7565L309.833 26.016ZM317.609 33.984L315.841 34.9182L315.845 34.9252L315.849 34.9322L317.609 33.984ZM319.914 52.128V54.128H321.648L321.893 52.4108L319.914 52.128ZM281.609 52.128H279.609V54.128H281.609V52.128ZM281.609 43.008V41.008H279.609V43.008H281.609ZM314.154 43.008L314.837 44.8876L314.154 41.008V43.008ZM307.818 45.312H305.818V48.1674L308.501 47.1916L307.818 45.312ZM305.034 36L303.49 37.2714L303.501 37.2847L303.512 37.2979L305.034 36ZM291.017 34.464L289.936 32.7816L289.922 32.7907L289.908 32.7999L291.017 34.464ZM287.082 39.648L288.938 40.3908L288.942 40.3819L288.945 40.3729L287.082 39.648ZM287.177 56.64L285.339 57.4278L285.353 57.46L285.368 57.4916L287.177 56.64ZM291.401 61.536L290.364 63.2456L290.377 63.2536L290.39 63.2614L291.401 61.536ZM308.874 57.024L309.593 55.1578L307.897 54.5045L307.085 56.1296L308.874 57.024ZM319.337 61.056L321.188 61.8151L321.963 59.9245L320.057 59.1898L319.337 61.056ZM314.634 67.488L313.34 65.963L313.328 65.9728L313.316 65.9828L314.634 67.488ZM307.242 71.616L307.848 73.5219L307.861 73.5177L307.874 73.5134L307.242 71.616ZM297.354 0.767996V-1.232H296.007L295.5 0.0158272L297.354 0.767996ZM310.026 0.767996L311.749 1.78204L313.522 -1.232H310.026V0.767996ZM300.426 17.088V19.088H301.569L302.149 18.102L300.426 17.088ZM290.729 17.088L288.876 16.3358L287.759 19.088H290.729V17.088ZM298.121 70.96C293.33 70.96 289.244 70.0212 285.804 68.2135L283.943 71.7545C288.055 73.9148 292.801 74.96 298.121 74.96V70.96ZM285.816 68.2201C282.448 66.4197 279.847 63.85 277.985 60.4738L274.482 62.4062C276.716 66.454 279.875 69.5803 283.931 71.7479L285.816 68.2201ZM277.985 60.4738C276.134 57.1202 275.161 52.9895 275.161 48H271.161C271.161 53.5065 272.237 58.3358 274.482 62.4062L277.985 60.4738ZM275.161 48C275.161 43.0105 276.134 38.8798 277.985 35.5262L274.482 33.5938C272.237 37.6642 271.161 42.4935 271.161 48H275.161ZM277.985 35.5262C279.852 32.1409 282.428 29.5707 285.733 27.773L283.822 24.259C279.831 26.4293 276.711 29.5551 274.482 33.5938L277.985 35.5262ZM285.72 27.7799C289.107 25.9694 293.001 25.04 297.449 25.04V21.04C292.426 21.04 287.872 22.0945 283.835 24.2521L285.72 27.7799ZM297.449 25.04C302.042 25.04 305.803 25.9756 308.824 27.7424L310.843 24.2896C307.08 22.0884 302.585 21.04 297.449 21.04V25.04ZM308.848 27.7565C311.913 29.4913 314.231 31.87 315.841 34.9182L319.378 33.0498C317.404 29.314 314.538 26.3806 310.819 24.2755L308.848 27.7565ZM315.849 34.9322C317.464 37.9315 318.298 41.4059 318.298 45.408H322.298C322.298 40.8341 321.339 36.6925 319.37 33.0358L315.849 34.9322ZM318.298 45.408C318.298 46.6549 318.266 47.8337 318.205 48.9451L322.198 49.1669C322.265 47.9743 322.298 46.7211 322.298 45.408H318.298ZM318.205 48.9451C318.143 50.0543 318.052 51.0191 317.934 51.8452L321.893 52.4108C322.031 51.4449 322.132 50.3617 322.198 49.1669L318.205 48.9451ZM319.914 50.128H281.609V54.128H319.914V50.128ZM283.609 52.128V43.008H279.609V52.128H283.609ZM281.609 45.008H314.154V41.008H281.609V45.008ZM313.47 41.1284L307.134 43.4324L308.501 47.1916L314.837 44.8876L313.47 41.1284ZM309.818 45.312C309.818 40.9971 308.825 37.3638 306.555 34.7021L303.512 37.2979C304.954 38.9882 305.818 41.5629 305.818 45.312H309.818ZM306.577 34.7286C304.335 32.006 301.159 30.736 297.354 30.736V34.736C300.204 34.736 302.148 35.642 303.49 37.2714L306.577 34.7286ZM297.354 30.736C294.594 30.736 292.094 31.394 289.936 32.7816L292.099 36.1464C293.525 35.23 295.249 34.736 297.354 34.736V30.736ZM289.908 32.7999C287.777 34.2207 286.233 36.3105 285.217 38.9231L288.945 40.3729C289.721 38.3775 290.802 37.0113 292.127 36.1281L289.908 32.7999ZM285.225 38.9052C284.203 41.4601 283.737 44.5828 283.737 48.192H287.737C287.737 44.8892 288.168 42.3159 288.938 40.3908L285.225 38.9052ZM283.737 48.192C283.737 51.7559 284.239 54.8617 285.339 57.4278L289.016 55.8522C288.196 53.9383 287.737 51.4121 287.737 48.192H283.737ZM285.368 57.4916C286.534 59.9694 288.188 61.9248 290.364 63.2456L292.439 59.8264C291.031 58.9712 289.869 57.6626 288.987 55.7884L285.368 57.4916ZM290.39 63.2614C292.606 64.5607 295.178 65.168 298.026 65.168V61.168C295.753 61.168 293.909 60.6873 292.413 59.8106L290.39 63.2614ZM298.026 65.168C301.081 65.168 303.761 64.5799 305.907 63.2285L303.776 59.8435C302.466 60.6681 300.602 61.168 298.026 61.168V65.168ZM305.907 63.2285C307.961 61.9354 309.548 60.1481 310.662 57.9184L307.085 56.1296C306.279 57.7399 305.178 58.9606 303.776 59.8435L305.907 63.2285ZM308.154 58.8903L318.618 62.9222L320.057 59.1898L309.593 55.1578L308.154 58.8903ZM317.487 60.2969C316.588 62.4887 315.214 64.3724 313.34 65.963L315.927 69.013C318.277 67.0196 320.039 64.6153 321.188 61.8151L317.487 60.2969ZM313.316 65.9828C311.49 67.5808 309.266 68.8329 306.609 69.7186L307.874 73.5134C310.977 72.4791 313.681 70.9792 315.951 68.9932L313.316 65.9828ZM306.635 69.7102C304.035 70.5376 301.201 70.96 298.121 70.96V74.96C301.57 74.96 304.816 74.4864 307.848 73.5219L306.635 69.7102ZM297.354 2.768H310.026V-1.232L297.354 -1.232V2.768ZM308.302 -0.246044L298.702 16.074L302.149 18.102L311.749 1.78204L308.302 -0.246044ZM300.426 15.088H290.729V19.088H300.426V15.088ZM292.583 17.8402L299.207 1.52016L295.5 0.0158272L288.876 16.3358L292.583 17.8402ZM347.498 9.31199H349.498V6.68174L346.963 7.38476L347.498 9.31199ZM349.226 61.44L347.853 62.894L347.894 62.9331L347.937 62.9698L349.226 61.44ZM358.346 62.304L359.037 64.1807L359.08 64.1649L359.122 64.1473L358.346 62.304ZM361.61 60.288L363.554 59.818L362.782 56.6255L360.3 58.7766L361.61 60.288ZM363.722 69.024L364.963 70.5921L365.966 69.7978L365.666 68.554L363.722 69.024ZM357.962 71.904L357.377 69.9913L357.962 71.904ZM342.122 71.52L341.387 73.3803L341.396 73.3835L341.404 73.3867L342.122 71.52ZM336.362 66.912L334.674 67.9857L334.686 68.0037L334.698 68.0214L336.362 66.912ZM334.346 12.96L333.811 11.0328L332.346 11.4392V12.96H334.346ZM362.858 24H364.858V22H362.858V24ZM362.858 33.792V35.792H364.858V33.792H362.858ZM325.514 33.792H323.514V35.792H325.514V33.792ZM325.514 24V22H323.514V24H325.514ZM345.498 9.31199V56.352H349.498V9.31199L345.498 9.31199ZM345.498 56.352C345.498 58.9541 346.148 61.2843 347.853 62.894L350.599 59.986C349.999 59.4197 349.498 58.3579 349.498 56.352H345.498ZM347.937 62.9698C349.608 64.3762 351.741 64.976 354.122 64.976V60.976C352.407 60.976 351.276 60.5518 350.514 59.9102L347.937 62.9698ZM354.122 64.976C355.904 64.976 357.555 64.7269 359.037 64.1807L357.654 60.4273C356.705 60.7771 355.539 60.976 354.122 60.976V64.976ZM359.122 64.1473C360.525 63.5566 361.794 62.7747 362.92 61.7994L360.3 58.7766C359.505 59.4653 358.599 60.0274 357.57 60.4607L359.122 64.1473ZM359.666 60.758L361.778 69.494L365.666 68.554L363.554 59.818L359.666 60.758ZM362.48 67.4559C361.179 68.486 359.496 69.344 357.377 69.9913L358.546 73.8167C361.036 73.056 363.192 71.994 364.963 70.5921L362.48 67.4559ZM357.377 69.9913C355.274 70.6339 353.04 70.96 350.666 70.96V74.96C353.411 74.96 356.041 74.5821 358.546 73.8167L357.377 69.9913ZM350.666 70.96C347.664 70.96 345.066 70.5097 342.84 69.6533L341.404 73.3867C344.169 74.4503 347.267 74.96 350.666 74.96V70.96ZM342.856 69.6597C340.791 68.8446 339.201 67.5647 338.026 65.8026L334.698 68.0214C336.339 70.4833 338.588 72.2754 341.387 73.3803L342.856 69.6597ZM338.049 65.8382C336.976 64.1525 336.346 61.7515 336.346 58.464H332.346C332.346 62.2165 333.059 65.4475 334.674 67.9857L338.049 65.8382ZM336.346 58.464V12.96H332.346V58.464H336.346ZM334.88 14.8872L348.032 11.2392L346.963 7.38476L333.811 11.0328L334.88 14.8872ZM360.858 24V33.792H364.858V24H360.858ZM362.858 31.792H325.514V35.792H362.858V31.792ZM327.514 33.792V24H323.514V33.792H327.514ZM325.514 26H362.858V22H325.514V26ZM380.78 69.984L379.837 71.7479L379.843 71.7512L379.849 71.7545L380.78 69.984ZM372.14 61.44L373.891 60.4738L372.14 61.44ZM372.14 34.56L373.891 35.5262L372.14 34.56ZM380.684 26.016L379.741 24.2521L379.735 24.2556L379.728 24.259L380.684 26.016ZM405.74 26.016L404.73 27.7424L404.742 27.7495L404.755 27.7565L405.74 26.016ZM413.516 33.984L411.747 34.9182L411.751 34.9252L411.755 34.9322L413.516 33.984ZM415.82 52.128V54.128H417.554L417.8 52.4108L415.82 52.128ZM377.516 52.128H375.516V54.128H377.516V52.128ZM377.516 43.008V41.008H375.516V43.008H377.516ZM410.06 43.008L410.743 44.8876L410.06 41.008V43.008ZM403.724 45.312H401.724V48.1674L404.407 47.1916L403.724 45.312ZM400.94 36L399.396 37.2714L399.407 37.2847L399.418 37.2979L400.94 36ZM386.924 34.464L385.842 32.7816L385.828 32.7907L385.814 32.7999L386.924 34.464ZM382.988 39.648L384.845 40.3908L384.848 40.3819L384.852 40.3729L382.988 39.648ZM383.084 56.64L381.245 57.4278L381.259 57.46L381.274 57.4916L383.084 56.64ZM387.308 61.536L386.27 63.2456L386.283 63.2536L386.296 63.2614L387.308 61.536ZM404.78 57.024L405.499 55.1578L403.803 54.5045L402.991 56.1296L404.78 57.024ZM415.244 61.056L417.094 61.8151L417.87 59.9245L415.963 59.1898L415.244 61.056ZM410.54 67.488L409.246 65.963L409.234 65.9728L409.223 65.9828L410.54 67.488ZM403.148 71.616L403.754 73.5219L403.767 73.5177L403.78 73.5134L403.148 71.616ZM394.028 70.96C389.236 70.96 385.15 70.0212 381.71 68.2135L379.849 71.7545C383.961 73.9148 388.708 74.96 394.028 74.96V70.96ZM381.723 68.2201C378.354 66.4197 375.754 63.85 373.891 60.4738L370.389 62.4062C372.622 66.454 375.781 69.5803 379.837 71.7479L381.723 68.2201ZM373.891 60.4738C372.041 57.1202 371.068 52.9895 371.068 48H367.068C367.068 53.5065 368.143 58.3358 370.389 62.4062L373.891 60.4738ZM371.068 48C371.068 43.0105 372.041 38.8798 373.891 35.5262L370.389 33.5938C368.143 37.6642 367.068 42.4935 367.068 48H371.068ZM373.891 35.5262C375.759 32.1409 378.334 29.5707 381.639 27.773L379.728 24.259C375.738 26.4293 372.617 29.5551 370.389 33.5938L373.891 35.5262ZM381.626 27.7799C385.014 25.9694 388.907 25.04 393.356 25.04V21.04C388.333 21.04 383.778 22.0945 379.741 24.2521L381.626 27.7799ZM393.356 25.04C397.949 25.04 401.709 25.9756 404.73 27.7424L406.75 24.2896C402.986 22.0884 398.491 21.04 393.356 21.04V25.04ZM404.755 27.7565C407.819 29.4913 410.137 31.87 411.747 34.9182L415.284 33.0498C413.311 29.314 410.444 26.3806 406.725 24.2755L404.755 27.7565ZM411.755 34.9322C413.37 37.9315 414.204 41.4059 414.204 45.408H418.204C418.204 40.8341 417.246 36.6925 415.277 33.0358L411.755 34.9322ZM414.204 45.408C414.204 46.6549 414.173 47.8337 414.111 48.9451L418.105 49.1669C418.171 47.9743 418.204 46.7211 418.204 45.408H414.204ZM414.111 48.9451C414.049 50.0543 413.958 51.0191 413.84 51.8452L417.8 52.4108C417.938 51.4449 418.038 50.3617 418.105 49.1669L414.111 48.9451ZM415.82 50.128L377.516 50.128V54.128L415.82 54.128V50.128ZM379.516 52.128V43.008H375.516V52.128L379.516 52.128ZM377.516 45.008H410.06V41.008H377.516V45.008ZM409.376 41.1284L403.04 43.4324L404.407 47.1916L410.743 44.8876L409.376 41.1284ZM405.724 45.312C405.724 40.9971 404.732 37.3638 402.461 34.7021L399.418 37.2979C400.86 38.9882 401.724 41.5629 401.724 45.312H405.724ZM402.484 34.7286C400.242 32.006 397.065 30.736 393.26 30.736V34.736C396.11 34.736 398.054 35.642 399.396 37.2714L402.484 34.7286ZM393.26 30.736C390.5 30.736 388.001 31.394 385.842 32.7816L388.005 36.1464C389.431 35.23 391.156 34.736 393.26 34.736V30.736ZM385.814 32.7999C383.683 34.2207 382.14 36.3105 381.124 38.9231L384.852 40.3729C385.628 38.3775 386.708 37.0113 388.033 36.1281L385.814 32.7999ZM381.131 38.9052C380.109 41.4601 379.644 44.5828 379.644 48.192H383.644C383.644 44.8892 384.075 42.3159 384.845 40.3908L381.131 38.9052ZM379.644 48.192C379.644 51.7559 380.146 54.8617 381.245 57.4278L384.922 55.8522C384.102 53.9383 383.644 51.4121 383.644 48.192H379.644ZM381.274 57.4916C382.44 59.9694 384.094 61.9248 386.27 63.2456L388.346 59.8264C386.937 58.9712 385.775 57.6626 384.893 55.7884L381.274 57.4916ZM386.296 63.2614C388.513 64.5607 391.084 65.168 393.932 65.168V61.168C391.659 61.168 389.815 60.6873 388.319 59.8106L386.296 63.2614ZM393.932 65.168C396.987 65.168 399.667 64.5799 401.813 63.2285L399.682 59.8435C398.373 60.6681 396.508 61.168 393.932 61.168V65.168ZM401.813 63.2285C403.867 61.9354 405.454 60.1481 406.569 57.9184L402.991 56.1296C402.186 57.7399 401.084 58.9606 399.682 59.8435L401.813 63.2285ZM404.061 58.8903L414.525 62.9222L415.963 59.1898L405.499 55.1578L404.061 58.8903ZM413.393 60.2969C412.494 62.4887 411.12 64.3724 409.246 65.963L411.834 69.013C414.183 67.0196 415.945 64.6153 417.094 61.8151L413.393 60.2969ZM409.223 65.9828C407.397 67.5808 405.172 68.8329 402.515 69.7186L403.78 73.5134C406.883 72.4791 409.587 70.9792 411.857 68.9932L409.223 65.9828ZM402.541 69.7102C399.941 70.5376 397.107 70.96 394.028 70.96V74.96C397.476 74.96 400.723 74.4864 403.754 73.5219L402.541 69.7102ZM427.349 72H425.349V74H427.349V72ZM427.349 24V22H425.349V24H427.349ZM439.158 24L441.155 23.8935L441.054 22H439.158V24ZM439.926 38.4L438.555 39.8564L442.188 43.2763L441.923 38.2935L439.926 38.4ZM438.293 36.864L436.351 36.3883L436.073 37.5211L436.923 38.3204L438.293 36.864ZM447.99 24.576L448.741 26.4295L448.753 26.4245L448.766 26.4193L447.99 24.576ZM464.789 24.96L463.895 26.7489L463.904 26.7532L463.913 26.7575L464.789 24.96ZM470.934 30.816L469.189 31.7945L469.203 31.82L469.219 31.845L470.934 30.816ZM473.237 72V74H475.237V72H473.237ZM460.086 72H458.086V74H460.086V72ZM457.685 35.808L456.271 37.2222L456.286 37.2366L456.3 37.2508L457.685 35.808ZM446.165 34.752L447.06 36.5409L447.073 36.5343L447.086 36.5275L446.165 34.752ZM442.038 38.88L440.297 37.894L440.285 37.9162L440.273 37.9388L442.038 38.88ZM440.501 72V74H442.501V72H440.501ZM429.349 72V24H425.349V72H429.349ZM427.349 26H439.158V22H427.349V26ZM437.16 24.1065L437.928 38.5065L441.923 38.2935L441.155 23.8935L437.16 24.1065ZM441.296 36.9436L439.664 35.4076L436.923 38.3204L438.555 39.8564L441.296 36.9436ZM440.236 37.3397C440.949 34.4282 442.053 32.122 443.494 30.3492L440.389 27.8268C438.502 30.15 437.174 33.0278 436.351 36.3883L440.236 37.3397ZM443.494 30.3492C444.952 28.5541 446.696 27.2585 448.741 26.4295L447.238 22.7225C444.547 23.8135 442.259 25.5259 440.389 27.8268L443.494 30.3492ZM448.766 26.4193C450.93 25.5078 453.32 25.04 455.957 25.04V21.04C452.835 21.04 449.913 21.5962 447.213 22.7327L448.766 26.4193ZM455.957 25.04C459.026 25.04 461.655 25.6287 463.895 26.7489L465.684 23.1711C462.804 21.7313 459.546 21.04 455.957 21.04V25.04ZM463.913 26.7575C466.159 27.8534 467.91 29.5139 469.189 31.7945L472.678 29.8375C471.013 26.8701 468.668 24.6266 465.666 23.1625L463.913 26.7575ZM469.219 31.845C470.519 34.0124 471.237 36.8616 471.237 40.512H475.237C475.237 36.3544 474.42 32.7396 472.648 29.787L469.219 31.845ZM471.237 40.512V72H475.237V40.512H471.237ZM473.237 70H460.086V74H473.237V70ZM462.086 72V44.256H458.086V72H462.086ZM462.086 44.256C462.086 40.034 461.287 36.4935 459.071 34.3652L456.3 37.2508C457.284 38.1945 458.086 40.286 458.086 44.256H462.086ZM459.1 34.3938C457.074 32.3682 454.46 31.408 451.445 31.408V35.408C453.551 35.408 455.097 36.0478 456.271 37.2222L459.1 34.3938ZM451.445 31.408C449.306 31.408 447.232 31.946 445.245 32.9765L447.086 36.5275C448.555 35.766 450.001 35.408 451.445 35.408V31.408ZM445.271 32.9631C443.19 34.0038 441.544 35.6939 440.297 37.894L443.778 39.866C444.707 38.2261 445.813 37.1642 447.06 36.5409L445.271 32.9631ZM440.273 37.9388C439.039 40.2529 438.501 43.1749 438.501 46.56H442.501C442.501 43.5451 442.988 41.3471 443.802 39.8212L440.273 37.9388ZM438.501 46.56V72H442.501V46.56H438.501ZM440.501 70H427.349V74H440.501V70ZM519.427 24.96L518.63 26.7941L518.653 26.8045L518.677 26.8142L519.427 24.96ZM526.627 30.048L525.083 31.3194L525.104 31.3442L525.125 31.3682L526.627 30.048ZM530.563 37.152L531.239 39.0341L533.011 38.3973L532.482 36.5902L530.563 37.152ZM518.275 41.568L516.323 42.0019L516.815 44.2179L518.951 43.4501L518.275 41.568ZM515.011 35.04L516.395 33.596V33.596L515.011 35.04ZM502.531 34.56L503.597 36.2525L503.619 36.2386L503.64 36.2241L502.531 34.56ZM498.595 39.648L500.452 40.3908L500.456 40.3819L500.459 40.3729L498.595 39.648ZM498.595 56.544L496.738 57.2868L496.747 57.3094L496.757 57.3318L498.595 56.544ZM502.627 61.536L501.561 63.2285L501.575 63.2371L501.589 63.2456L502.627 61.536ZM513.763 62.208L514.623 64.0137L514.657 63.9973L514.691 63.9797L513.763 62.208ZM517.027 59.232L515.389 58.0851L515.369 58.1132L515.35 58.142L517.027 59.232ZM518.851 54.624L519.465 52.7206L517.285 52.0173L516.882 54.2724L518.851 54.624ZM530.755 58.464L532.698 58.9389L533.14 57.1317L531.369 56.5606L530.755 58.464ZM526.819 66.048L525.319 64.7248L526.819 66.048ZM519.427 71.136L520.177 72.9902L519.427 71.136ZM495.907 69.984L496.837 68.2135L495.907 69.984ZM487.171 61.44L488.922 60.4738L487.171 61.44ZM487.171 34.56L488.922 35.5262L487.171 34.56ZM495.811 26.016L496.754 27.7799L495.811 26.016ZM508.579 25.04C512.68 25.04 516.006 25.6537 518.63 26.7941L520.224 23.1259C516.96 21.7063 513.054 21.04 508.579 21.04V25.04ZM518.677 26.8142C521.423 27.9243 523.533 29.4374 525.083 31.3194L528.171 28.7766C526.137 26.3066 523.447 24.4277 520.177 23.1058L518.677 26.8142ZM525.125 31.3682C526.794 33.2673 527.96 35.3781 528.644 37.7138L532.482 36.5902C531.63 33.6779 530.172 31.0527 528.129 28.7278L525.125 31.3682ZM529.887 35.2699L517.599 39.6859L518.951 43.4501L531.239 39.0341L529.887 35.2699ZM520.227 41.1341C519.534 38.0128 518.306 35.428 516.395 33.596L513.627 36.484C514.788 37.596 515.736 39.3632 516.323 42.0019L520.227 41.1341ZM516.395 33.596C514.404 31.6881 511.784 30.832 508.771 30.832V34.832C511.006 34.832 512.546 35.4479 513.627 36.484L516.395 33.596ZM508.771 30.832C506.013 30.832 503.531 31.4895 501.422 32.8959L503.64 36.2241C504.987 35.3265 506.665 34.832 508.771 34.832V30.832ZM501.465 32.8675C499.303 34.2289 497.749 36.3055 496.731 38.9231L500.459 40.3729C501.233 38.3824 502.303 37.0671 503.597 36.2525L501.465 32.8675ZM496.738 38.9052C495.718 41.4564 495.251 44.5452 495.251 48.096H499.251C499.251 44.8628 499.68 42.3196 500.452 40.3908L496.738 38.9052ZM495.251 48.096C495.251 51.6468 495.718 54.7356 496.738 57.2868L500.452 55.8012C499.68 53.8724 499.251 51.3292 499.251 48.096H495.251ZM496.757 57.3318C497.845 59.8712 499.428 61.8852 501.561 63.2285L503.693 59.8435C502.37 59.0108 501.265 57.6968 500.433 55.7562L496.757 57.3318ZM501.589 63.2456C503.733 64.5473 506.182 65.168 508.867 65.168V61.168C506.816 61.168 505.105 60.7007 503.665 59.8264L501.589 63.2456ZM508.867 65.168C511.001 65.168 512.944 64.8131 514.623 64.0137L512.903 60.4023C511.894 60.8829 510.573 61.168 508.867 61.168V65.168ZM514.691 63.9797C516.341 63.1154 517.686 61.8878 518.704 60.322L515.35 58.142C514.704 59.1362 513.873 59.8926 512.835 60.4363L514.691 63.9797ZM518.665 60.3789C519.753 58.8248 520.457 57.0066 520.82 54.9756L516.882 54.2724C516.605 55.8254 516.093 57.0792 515.389 58.0851L518.665 60.3789ZM518.237 56.5274L530.141 60.3674L531.369 56.5606L519.465 52.7206L518.237 56.5274ZM528.812 57.9891C528.183 60.5617 527.02 62.7969 525.319 64.7248L528.319 67.3712C530.458 64.9471 531.919 62.1263 532.698 58.9389L528.812 57.9891ZM525.319 64.7248C523.628 66.6417 521.432 68.1683 518.677 69.2818L520.177 72.9902C523.438 71.6717 526.17 69.8063 528.319 67.3712L525.319 64.7248ZM518.677 69.2818C515.954 70.3826 512.73 70.96 508.963 70.96V74.96C513.132 74.96 516.884 74.3214 520.177 72.9902L518.677 69.2818ZM508.963 70.96C504.309 70.96 500.285 70.0249 496.837 68.2135L494.977 71.7545C499.081 73.9111 503.761 74.96 508.963 74.96V70.96ZM496.837 68.2135C493.405 66.4103 490.78 63.841 488.922 60.4738L485.42 62.4062C487.658 66.463 490.857 69.5897 494.977 71.7545L496.837 68.2135ZM488.922 60.4738C487.072 57.1202 486.099 52.9895 486.099 48H482.099C482.099 53.5065 483.174 58.3358 485.42 62.4062L488.922 60.4738ZM486.099 48C486.099 43.0105 487.072 38.8798 488.922 35.5262L485.42 33.5938C483.174 37.6642 482.099 42.4935 482.099 48H486.099ZM488.922 35.5262C490.785 32.15 493.385 29.5803 496.754 27.7799L494.868 24.2521C490.813 26.4197 487.653 29.546 485.42 33.5938L488.922 35.5262ZM496.754 27.7799C500.137 25.9715 504.061 25.04 508.579 25.04V21.04C503.497 21.04 498.909 22.0925 494.868 24.2521L496.754 27.7799ZM549.998 69.984L549.056 71.7479L549.062 71.7512L549.068 71.7545L549.998 69.984ZM541.359 61.44L543.11 60.4738L541.359 61.44ZM541.359 34.56L543.11 35.5262L541.359 34.56ZM549.903 26.016L548.96 24.2521L548.953 24.2556L548.947 24.259L549.903 26.016ZM574.958 26.016L573.949 27.7424L573.961 27.7495L573.973 27.7565L574.958 26.016ZM582.734 33.984L580.966 34.9182L580.97 34.9252L580.974 34.9322L582.734 33.984ZM585.039 52.128V54.128H586.773L587.018 52.4108L585.039 52.128ZM546.734 52.128H544.734V54.128H546.734V52.128ZM546.734 43.008V41.008H544.734V43.008H546.734ZM579.279 43.008L579.962 44.8876L579.279 41.008V43.008ZM572.943 45.312L570.943 45.312V48.1674L573.626 47.1916L572.943 45.312ZM570.159 36L568.615 37.2714L568.626 37.2847L568.637 37.2979L570.159 36ZM556.143 34.464L555.061 32.7816L555.047 32.7907L555.033 32.7999L556.143 34.464ZM552.206 39.648L554.063 40.3908L554.067 40.3819L554.07 40.3729L552.206 39.648ZM552.302 56.64L550.464 57.4278L550.478 57.46L550.493 57.4916L552.302 56.64ZM556.526 61.536L555.489 63.2456L555.502 63.2536L555.515 63.2614L556.526 61.536ZM573.998 57.024L574.718 55.1578L573.022 54.5045L572.21 56.1296L573.998 57.024ZM584.463 61.056L586.313 61.8151L587.089 59.9245L585.182 59.1898L584.463 61.056ZM579.758 67.488L578.465 65.963L578.453 65.9728L578.441 65.9828L579.758 67.488ZM572.367 71.616L572.973 73.5219L572.986 73.5177L572.999 73.5134L572.367 71.616ZM563.247 70.96C558.455 70.96 554.369 70.0212 550.929 68.2135L549.068 71.7545C553.18 73.9148 557.926 74.96 563.247 74.96V70.96ZM550.941 68.2201C547.573 66.4197 544.972 63.85 543.11 60.4738L539.607 62.4062C541.841 66.454 545 69.5803 549.056 71.7479L550.941 68.2201ZM543.11 60.4738C541.259 57.1202 540.286 52.9895 540.286 48H536.286C536.286 53.5065 537.362 58.3358 539.607 62.4062L543.11 60.4738ZM540.286 48C540.286 43.0105 541.259 38.8798 543.11 35.5262L539.607 33.5938C537.362 37.6642 536.286 42.4935 536.286 48H540.286ZM543.11 35.5262C544.977 32.1409 547.553 29.5707 550.858 27.773L548.947 24.259C544.956 26.4293 541.836 29.5551 539.607 33.5938L543.11 35.5262ZM550.845 27.7799C554.232 25.9694 558.126 25.04 562.575 25.04V21.04C557.551 21.04 552.997 22.0945 548.96 24.2521L550.845 27.7799ZM562.575 25.04C567.167 25.04 570.928 25.9756 573.949 27.7424L575.968 24.2896C572.205 22.0884 567.71 21.04 562.575 21.04V25.04ZM573.973 27.7565C577.038 29.4913 579.356 31.87 580.966 34.9182L584.503 33.0498C582.529 29.314 579.663 26.3806 575.944 24.2755L573.973 27.7565ZM580.974 34.9322C582.589 37.9315 583.422 41.4059 583.422 45.408H587.422C587.422 40.8341 586.464 36.6925 584.495 33.0358L580.974 34.9322ZM583.422 45.408C583.422 46.6549 583.391 47.8337 583.33 48.9451L587.323 49.1669C587.39 47.9743 587.422 46.7211 587.422 45.408H583.422ZM583.33 48.9451C583.268 50.0543 583.177 51.0191 583.059 51.8452L587.018 52.4108C587.156 51.4449 587.257 50.3617 587.323 49.1669L583.33 48.9451ZM585.039 50.128H546.734V54.128H585.039V50.128ZM548.734 52.128V43.008H544.734V52.128H548.734ZM546.734 45.008L579.279 45.008V41.008L546.734 41.008V45.008ZM578.595 41.1284L572.259 43.4324L573.626 47.1916L579.962 44.8876L578.595 41.1284ZM574.943 45.312C574.943 40.9971 573.95 37.3638 571.68 34.7021L568.637 37.2979C570.079 38.9882 570.943 41.5629 570.943 45.312L574.943 45.312ZM571.702 34.7286C569.46 32.006 566.284 30.736 562.479 30.736V34.736C565.329 34.736 567.273 35.642 568.615 37.2714L571.702 34.7286ZM562.479 30.736C559.719 30.736 557.219 31.394 555.061 32.7816L557.224 36.1464C558.65 35.23 560.374 34.736 562.479 34.736V30.736ZM555.033 32.7999C552.902 34.2207 551.359 36.3105 550.342 38.9231L554.07 40.3729C554.846 38.3775 555.927 37.0113 557.252 36.1281L555.033 32.7999ZM550.35 38.9052C549.328 41.4601 548.862 44.5828 548.862 48.192H552.862C552.862 44.8892 553.293 42.3159 554.063 40.3908L550.35 38.9052ZM548.862 48.192C548.862 51.7559 549.364 54.8617 550.464 57.4278L554.141 55.8522C553.321 53.9383 552.862 51.4121 552.862 48.192H548.862ZM550.493 57.4916C551.659 59.9694 553.313 61.9248 555.489 63.2456L557.564 59.8264C556.156 58.9712 554.994 57.6626 554.112 55.7884L550.493 57.4916ZM555.515 63.2614C557.732 64.5607 560.303 65.168 563.151 65.168V61.168C560.878 61.168 559.034 60.6873 557.538 59.8106L555.515 63.2614ZM563.151 65.168C566.206 65.168 568.886 64.5799 571.032 63.2285L568.901 59.8435C567.591 60.6681 565.727 61.168 563.151 61.168V65.168ZM571.032 63.2285C573.086 61.9354 574.673 60.1481 575.787 57.9184L572.21 56.1296C571.404 57.7399 570.303 58.9606 568.901 59.8435L571.032 63.2285ZM573.279 58.8903L583.743 62.9222L585.182 59.1898L574.718 55.1578L573.279 58.8903ZM582.612 60.2969C581.713 62.4887 580.339 64.3724 578.465 65.963L581.052 69.013C583.402 67.0196 585.164 64.6153 586.313 61.8151L582.612 60.2969ZM578.441 65.9828C576.615 67.5808 574.391 68.8329 571.734 69.7186L572.999 73.5134C576.102 72.4791 578.806 70.9792 581.076 68.9932L578.441 65.9828ZM571.76 69.7102C569.16 70.5376 566.326 70.96 563.247 70.96V74.96C566.695 74.96 569.941 74.4864 572.973 73.5219L571.76 69.7102ZM602.424 70.368L601.626 72.2017L601.636 72.2063L602.424 70.368ZM592.728 63.072L591.305 61.6667L590.058 62.9292L591.163 64.3175L592.728 63.072ZM600.312 55.392L601.976 54.2826L600.614 52.2397L598.889 53.9867L600.312 55.392ZM606.456 61.056L607.453 59.3222L606.456 61.056ZM621.528 62.208L622.391 64.0123L622.407 64.0047L622.423 63.9969L621.528 62.208ZM622.776 56.064L621.302 57.4155L621.331 57.4475L621.362 57.4782L622.776 56.064ZM618.552 54.24L618.967 52.2835L618.96 52.282L618.953 52.2806L618.552 54.24ZM610.104 52.512L609.699 54.4705L609.703 54.4714L610.104 52.512ZM598.2 47.328L596.767 48.7227L596.786 48.7423L596.806 48.7615L598.2 47.328ZM597.048 30.816L595.406 29.6752L595.395 29.6908L595.384 29.7066L597.048 30.816ZM604.152 25.248L604.971 27.0725L604.987 27.0656L605.002 27.0585L604.152 25.248ZM628.344 25.344L627.544 27.1771L627.564 27.1858L627.584 27.194L628.344 25.344ZM636.792 31.968L638.189 33.3996L639.401 32.2165L638.434 30.8259L636.792 31.968ZM628.92 39.648L627.227 40.7123L628.545 42.8086L630.317 41.0796L628.92 39.648ZM623.352 34.56L622.398 36.3177L622.428 36.3338L622.458 36.3489L623.352 34.56ZM611.64 33.312L611.066 31.3963L611.64 33.312ZM608.76 34.944L610.174 36.3582L610.208 36.3246L610.24 36.2893L608.76 34.944ZM609.144 40.128L607.843 41.6465L607.875 41.6743L607.909 41.7006L609.144 40.128ZM614.04 41.952L613.618 43.9068L613.627 43.9089L613.637 43.9109L614.04 41.952ZM623.832 43.968L623.429 45.9269L623.435 45.9281L623.832 43.968ZM634.008 48.864L632.513 50.1927L632.523 50.2032L632.532 50.2135L634.008 48.864ZM634.584 65.28L632.934 64.1506L632.927 64.1603L634.584 65.28ZM627.384 70.944L628.172 72.7823L628.181 72.7785L628.19 72.7746L627.384 70.944ZM615.768 70.96C611.146 70.96 606.969 70.14 603.212 68.5297L601.636 72.2063C605.943 74.052 610.663 74.96 615.768 74.96V70.96ZM603.223 68.5343C599.53 66.9261 596.57 64.6866 594.293 61.8265L591.163 64.3175C593.879 67.7294 597.383 70.3539 601.626 72.2017L603.223 68.5343ZM594.151 64.4773L601.735 56.7973L598.889 53.9867L591.305 61.6667L594.151 64.4773ZM598.648 56.5014C600.367 59.0791 602.65 61.1744 605.459 62.7898L607.453 59.3222C605.143 57.9936 603.33 56.3129 601.976 54.2826L598.648 56.5014ZM605.459 62.7898C608.376 64.467 611.774 65.264 615.576 65.264V61.264C612.339 61.264 609.656 60.589 607.453 59.3222L605.459 62.7898ZM615.576 65.264C618.228 65.264 620.545 64.8952 622.391 64.0123L620.665 60.4037C619.568 60.9288 617.917 61.264 615.576 61.264V65.264ZM622.423 63.9969C623.441 63.4879 624.318 62.7823 624.934 61.8324C625.556 60.8744 625.832 59.7891 625.832 58.656H621.832C621.832 59.1229 621.725 59.4296 621.578 59.6556C621.426 59.8897 621.152 60.1601 620.634 60.4191L622.423 63.9969ZM625.832 58.656C625.832 57.1185 625.281 55.7407 624.19 54.6498L621.362 57.4782C621.679 57.7953 621.832 58.1455 621.832 58.656H625.832ZM624.251 54.7125C623.091 53.4481 621.13 52.7422 618.967 52.2835L618.137 56.1965C620.199 56.6338 621.053 57.1439 621.302 57.4155L624.251 54.7125ZM618.953 52.2806L610.505 50.5526L609.703 54.4714L618.151 56.1994L618.953 52.2806ZM610.509 50.5535C605.077 49.4296 601.557 47.8033 599.595 45.8945L596.806 48.7615C599.58 51.4607 603.995 53.2904 609.699 54.4705L610.509 50.5535ZM599.634 45.9333C597.739 43.986 596.744 41.469 596.744 38.208H592.744C592.744 42.371 594.053 45.934 596.767 48.7227L599.634 45.9333ZM596.744 38.208C596.744 36.0012 597.383 33.92 598.712 31.9254L595.384 29.7066C593.642 32.32 592.744 35.1668 592.744 38.208H596.744ZM598.691 31.9568C600.042 30.012 602.092 28.3652 604.971 27.0725L603.333 23.4235C599.94 24.9468 597.255 27.012 595.406 29.6752L598.691 31.9568ZM605.002 27.0585C607.796 25.7468 611.389 25.04 615.864 25.04V21.04C610.996 21.04 606.78 21.8051 603.302 23.4375L605.002 27.0585ZM615.864 25.04C620.456 25.04 624.331 25.775 627.544 27.1771L629.144 23.5109C625.317 21.841 620.873 21.04 615.864 21.04V25.04ZM627.584 27.194C630.842 28.5321 633.34 30.5075 635.15 33.1101L638.434 30.8259C636.149 27.5405 633.014 25.0999 629.104 23.494L627.584 27.194ZM635.396 30.5364L627.524 38.2164L630.317 41.0796L638.189 33.3996L635.396 30.5364ZM630.614 38.5837C629.016 36.0424 626.888 34.0915 624.247 32.7711L622.458 36.3489C624.425 37.3324 626.008 38.7736 627.227 40.7123L630.614 38.5837ZM624.306 32.8023C621.78 31.4308 619.085 30.736 616.248 30.736V34.736C618.404 34.736 620.445 35.2572 622.398 36.3177L624.306 32.8023ZM616.248 30.736C614.323 30.736 612.583 30.9411 611.066 31.3963L612.215 35.2276C613.257 34.9149 614.589 34.736 616.248 34.736V30.736ZM611.066 31.3963C609.572 31.8445 608.244 32.5384 607.28 33.5987L610.24 36.2893C610.556 35.9416 611.149 35.5475 612.215 35.2276L611.066 31.3963ZM607.346 33.5298C606.28 34.5953 605.8 35.9615 605.8 37.44H609.8C609.8 36.8705 609.96 36.5727 610.174 36.3582L607.346 33.5298ZM605.8 37.44C605.8 39.14 606.578 40.5629 607.843 41.6465L610.446 38.6095C609.918 38.1571 609.8 37.788 609.8 37.44H605.8ZM607.909 41.7006C609.189 42.7068 611.214 43.3872 613.618 43.9068L614.463 39.9972C612.13 39.4928 610.891 38.9572 610.38 38.5554L607.909 41.7006ZM613.637 43.9109L623.429 45.9269L624.236 42.0091L614.444 39.9931L613.637 43.9109ZM623.435 45.9281C627.971 46.8477 630.875 48.35 632.513 50.1927L635.503 47.5353C633.045 44.77 629.165 43.0083 624.23 42.0079L623.435 45.9281ZM632.532 50.2135C634.224 52.0635 635.08 54.2937 635.08 57.024H639.08C639.08 53.3543 637.889 50.1445 635.484 47.5145L632.532 50.2135ZM635.08 57.024C635.08 59.7111 634.36 62.066 632.934 64.1506L636.235 66.4094C638.137 63.63 639.08 60.4809 639.08 57.024H635.08ZM632.927 64.1603C631.581 66.1524 629.511 67.8233 626.579 69.1134L628.19 72.7746C631.658 71.2487 634.387 69.1436 636.241 66.3997L632.927 64.1603ZM626.596 69.1057C623.78 70.3127 620.195 70.96 615.768 70.96V74.96C620.558 74.96 624.716 74.2634 628.172 72.7823L626.596 69.1057Z" fill="#555555" mask="url(#path-1-outside-1_78_286)"/>
</svg>
