<svg width="620" height="65" viewBox="0 0 620 65" fill="none" xmlns="http://www.w3.org/2000/svg">
<mask id="path-1-outside-1_78_401" maskUnits="userSpaceOnUse" x="-2" y="-2" width="624" height="69" fill="black">
<rect fill="white" x="-2" y="-2" width="624" height="69"/>
<path d="M69.184 0.639997V64H57.184V30.976L57.856 12.448H57.664L40.096 64H29.248L11.776 12.448H11.584L12.256 30.976V64H0.256L0.256 0.639997H19.456L30.88 35.2L34.912 49.504H35.104L39.232 35.296L50.56 0.639997H69.184ZM106.122 64.96C101.066 64.96 96.6495 63.968 92.8735 61.984C89.1615 60 86.2815 57.152 84.2335 53.44C82.1855 49.728 81.1615 45.248 81.1615 40C81.1615 34.752 82.1855 30.272 84.2335 26.56C86.2815 22.848 89.1295 20 92.7775 18.016C96.4895 16.032 100.714 15.04 105.45 15.04C110.314 15.04 114.442 16.032 117.834 18.016C121.226 19.936 123.818 22.592 125.61 25.984C127.402 29.312 128.298 33.12 128.298 37.408C128.298 38.688 128.266 39.904 128.202 41.056C128.138 42.208 128.042 43.232 127.914 44.128L89.6095 44.128V35.008H122.154L115.818 37.312C115.818 33.28 114.89 30.176 113.034 28C111.242 25.824 108.682 24.736 105.354 24.736C102.922 24.736 100.81 25.312 99.0175 26.464C97.2895 27.616 95.9775 29.344 95.0815 31.648C94.1855 33.888 93.7375 36.736 93.7375 40.192C93.7375 43.584 94.2175 46.4 95.1775 48.64C96.2015 50.816 97.6095 52.448 99.4015 53.536C101.258 54.624 103.466 55.168 106.026 55.168C108.842 55.168 111.114 54.624 112.842 53.536C114.57 52.448 115.914 50.944 116.874 49.024L127.338 53.056C126.314 55.552 124.746 57.696 122.634 59.488C120.586 61.28 118.122 62.656 115.242 63.616C112.426 64.512 109.386 64.96 106.122 64.96ZM190.579 15.04C194.867 15.04 198.483 15.68 201.427 16.96C204.435 18.176 206.835 19.872 208.627 22.048C210.483 24.16 211.795 26.528 212.563 29.152L200.275 33.568C199.635 30.688 198.547 28.512 197.011 27.04C195.475 25.568 193.395 24.832 190.771 24.832C188.339 24.832 186.259 25.408 184.531 26.56C182.803 27.648 181.491 29.344 180.595 31.648C179.699 33.888 179.251 36.704 179.251 40.096C179.251 43.488 179.699 46.304 180.595 48.544C181.555 50.784 182.899 52.448 184.627 53.536C186.419 54.624 188.499 55.168 190.867 55.168C192.787 55.168 194.419 54.848 195.763 54.208C197.107 53.504 198.195 52.512 199.027 51.232C199.923 49.952 200.531 48.416 200.851 46.624L212.755 50.464C212.051 53.344 210.739 55.872 208.819 58.048C206.899 60.224 204.435 61.92 201.427 63.136C198.419 64.352 194.931 64.96 190.963 64.96C186.035 64.96 181.683 63.968 177.907 61.984C174.131 60 171.219 57.152 169.171 53.44C167.123 49.728 166.099 45.248 166.099 40C166.099 34.752 167.123 30.272 169.171 26.56C171.219 22.848 174.099 20 177.811 18.016C181.523 16.032 185.779 15.04 190.579 15.04ZM244.863 15.04C249.727 15.04 253.983 16.032 257.631 18.016C261.343 20 264.223 22.848 266.271 26.56C268.383 30.272 269.439 34.752 269.439 40C269.439 45.184 268.383 49.664 266.271 53.44C264.223 57.152 261.343 60 257.631 61.984C253.983 63.968 249.727 64.96 244.863 64.96C240.063 64.96 235.807 63.968 232.095 61.984C228.383 60 225.471 57.152 223.359 53.44C221.311 49.664 220.287 45.184 220.287 40C220.287 34.752 221.311 30.272 223.359 26.56C225.471 22.848 228.383 20 232.095 18.016C235.807 16.032 240.063 15.04 244.863 15.04ZM244.863 24.832C242.431 24.832 240.351 25.408 238.623 26.56C236.959 27.648 235.679 29.312 234.783 31.552C233.887 33.792 233.439 36.608 233.439 40C233.439 43.392 233.887 46.208 234.783 48.448C235.679 50.688 236.959 52.384 238.623 53.536C240.351 54.624 242.431 55.168 244.863 55.168C247.231 55.168 249.247 54.624 250.911 53.536C252.639 52.384 253.951 50.688 254.847 48.448C255.743 46.208 256.191 43.392 256.191 40C256.191 36.608 255.743 33.792 254.847 31.552C253.951 29.312 252.639 27.648 250.911 26.56C249.247 25.408 247.231 24.832 244.863 24.832ZM280.443 64V16H292.251L293.019 30.4L291.387 28.864C292.155 25.728 293.371 23.136 295.035 21.088C296.699 19.04 298.715 17.536 301.083 16.576C303.515 15.552 306.171 15.04 309.051 15.04C312.379 15.04 315.323 15.68 317.883 16.96C320.507 18.24 322.555 20.192 324.027 22.816C325.563 25.376 326.331 28.608 326.331 32.512V64H313.179V36.256C313.179 32.16 312.379 29.344 310.779 27.808C309.179 26.208 307.099 25.408 304.539 25.408C302.747 25.408 300.987 25.856 299.259 26.752C297.595 27.584 296.219 28.96 295.131 30.88C294.107 32.8 293.595 35.36 293.595 38.56V64H280.443ZM356.498 1.31199V48.352C356.498 50.656 357.074 52.352 358.226 53.44C359.442 54.464 361.074 54.976 363.122 54.976C364.722 54.976 366.13 54.752 367.346 54.304C368.562 53.792 369.65 53.12 370.61 52.288L372.722 61.024C371.186 62.24 369.266 63.2 366.962 63.904C364.658 64.608 362.226 64.96 359.666 64.96C356.466 64.96 353.618 64.48 351.122 63.52C348.69 62.56 346.77 61.024 345.362 58.912C344.018 56.8 343.346 53.984 343.346 50.464V4.96L356.498 1.31199ZM371.858 16V25.792H334.514V16H371.858ZM408.585 33.376C408.585 30.624 407.785 28.48 406.185 26.944C404.649 25.408 402.601 24.64 400.041 24.64C397.673 24.64 395.593 25.248 393.801 26.464C392.009 27.68 390.697 29.696 389.865 32.512L378.633 29.056C379.721 24.832 382.089 21.44 385.737 18.88C389.449 16.32 394.409 15.04 400.617 15.04C404.841 15.04 408.521 15.712 411.657 17.056C414.793 18.336 417.225 20.288 418.953 22.912C420.745 25.536 421.641 28.832 421.641 32.8V52.288C421.641 54.72 422.793 55.936 425.097 55.936C426.185 55.936 427.209 55.776 428.169 55.456L427.401 63.616C425.737 64.448 423.657 64.864 421.161 64.864C418.921 64.864 416.905 64.48 415.113 63.712C413.321 62.944 411.913 61.792 410.889 60.256C409.865 58.656 409.353 56.672 409.353 54.304V53.92L411.657 53.536C411.273 55.968 410.217 58.048 408.489 59.776C406.761 61.44 404.649 62.72 402.153 63.616C399.721 64.512 397.193 64.96 394.569 64.96C391.305 64.96 388.489 64.48 386.121 63.52C383.753 62.496 381.929 61.024 380.648 59.104C379.369 57.184 378.729 54.816 378.729 52C378.729 48.416 379.881 45.504 382.185 43.264C384.489 40.96 387.785 39.392 392.073 38.56L410.121 34.912L410.025 43.072L398.505 45.376C396.329 45.824 394.665 46.432 393.513 47.2C392.425 47.904 391.881 49.088 391.881 50.752C391.881 52.352 392.457 53.568 393.609 54.4C394.825 55.232 396.265 55.648 397.929 55.648C399.273 55.648 400.585 55.488 401.865 55.168C403.145 54.848 404.297 54.336 405.321 53.632C406.345 52.928 407.145 51.968 407.721 50.752C408.297 49.536 408.585 48.064 408.585 46.336V33.376ZM457.954 15.04C462.242 15.04 465.858 15.68 468.802 16.96C471.81 18.176 474.21 19.872 476.002 22.048C477.858 24.16 479.17 26.528 479.938 29.152L467.65 33.568C467.01 30.688 465.922 28.512 464.386 27.04C462.85 25.568 460.77 24.832 458.146 24.832C455.714 24.832 453.634 25.408 451.906 26.56C450.178 27.648 448.866 29.344 447.97 31.648C447.074 33.888 446.626 36.704 446.626 40.096C446.626 43.488 447.074 46.304 447.97 48.544C448.93 50.784 450.274 52.448 452.002 53.536C453.794 54.624 455.874 55.168 458.242 55.168C460.162 55.168 461.794 54.848 463.138 54.208C464.482 53.504 465.57 52.512 466.402 51.232C467.298 49.952 467.906 48.416 468.226 46.624L480.13 50.464C479.426 53.344 478.114 55.872 476.194 58.048C474.274 60.224 471.81 61.92 468.802 63.136C465.794 64.352 462.306 64.96 458.338 64.96C453.41 64.96 449.058 63.968 445.282 61.984C441.506 60 438.594 57.152 436.546 53.44C434.498 49.728 433.474 45.248 433.474 40C433.474 34.752 434.498 30.272 436.546 26.56C438.594 22.848 441.474 20 445.186 18.016C448.898 16.032 453.154 15.04 457.954 15.04ZM507.342 1.31199V48.352C507.342 50.656 507.918 52.352 509.07 53.44C510.286 54.464 511.918 54.976 513.966 54.976C515.566 54.976 516.974 54.752 518.19 54.304C519.406 53.792 520.494 53.12 521.454 52.288L523.566 61.024C522.03 62.24 520.11 63.2 517.806 63.904C515.502 64.608 513.07 64.96 510.51 64.96C507.31 64.96 504.462 64.48 501.966 63.52C499.534 62.56 497.614 61.024 496.206 58.912C494.862 56.8 494.19 53.984 494.19 50.464V4.96L507.342 1.31199ZM522.702 16V25.792H485.358V16H522.702ZM553.872 64.96C548.816 64.96 544.4 63.968 540.624 61.984C536.912 60 534.032 57.152 531.984 53.44C529.936 49.728 528.912 45.248 528.912 40C528.912 34.752 529.936 30.272 531.984 26.56C534.032 22.848 536.88 20 540.528 18.016C544.24 16.032 548.464 15.04 553.2 15.04C558.064 15.04 562.192 16.032 565.584 18.016C568.976 19.936 571.568 22.592 573.36 25.984C575.152 29.312 576.048 33.12 576.048 37.408C576.048 38.688 576.016 39.904 575.952 41.056C575.888 42.208 575.792 43.232 575.664 44.128H537.359V35.008L569.904 35.008L563.568 37.312C563.568 33.28 562.64 30.176 560.784 28C558.992 25.824 556.432 24.736 553.104 24.736C550.672 24.736 548.56 25.312 546.768 26.464C545.04 27.616 543.728 29.344 542.832 31.648C541.936 33.888 541.488 36.736 541.488 40.192C541.488 43.584 541.968 46.4 542.928 48.64C543.952 50.816 545.36 52.448 547.152 53.536C549.008 54.624 551.216 55.168 553.776 55.168C556.592 55.168 558.864 54.624 560.592 53.536C562.32 52.448 563.664 50.944 564.624 49.024L575.088 53.056C574.064 55.552 572.496 57.696 570.384 59.488C568.336 61.28 565.872 62.656 562.992 63.616C560.176 64.512 557.136 64.96 553.872 64.96ZM587.193 64V16H598.617L599.481 25.408C600.761 22.08 602.617 19.52 605.049 17.728C607.545 15.936 610.649 15.04 614.361 15.04C615.449 15.04 616.441 15.136 617.337 15.328C618.233 15.52 618.969 15.776 619.545 16.096L618.009 27.136C617.369 26.88 616.569 26.688 615.609 26.56C614.713 26.432 613.529 26.368 612.057 26.368C610.137 26.368 608.281 26.848 606.489 27.808C604.697 28.704 603.225 30.112 602.073 32.032C600.921 33.888 600.345 36.256 600.345 39.136V64H587.193Z"/>
</mask>
<path d="M69.184 0.639997H71.184V-1.36H69.184V0.639997ZM69.184 64V66H71.184V64H69.184ZM57.184 64H55.184V66H57.184V64ZM57.184 30.976L55.1853 30.9035L55.184 30.9397V30.976L57.184 30.976ZM57.856 12.448L59.8547 12.5205L59.9299 10.448H57.856V12.448ZM57.664 12.448V10.448H56.2326L55.7709 11.8029L57.664 12.448ZM40.096 64V66H41.5274L41.9891 64.6451L40.096 64ZM29.248 64L27.3538 64.642L27.8141 66H29.248V64ZM11.776 12.448L13.6702 11.806L13.2099 10.448H11.776V12.448ZM11.584 12.448V10.448H9.51015L9.58532 12.5205L11.584 12.448ZM12.256 30.976H14.256V30.9397L14.2547 30.9035L12.256 30.976ZM12.256 64V66H14.256V64H12.256ZM0.256001 64H-1.744V66H0.256001V64ZM0.256001 0.639997V-1.36H-1.744L-1.744 0.639997H0.256001ZM19.456 0.639997L21.3549 0.012291L20.9013 -1.36H19.456V0.639997ZM30.88 35.2L32.805 34.6574L32.7929 34.6145L32.7789 34.5723L30.88 35.2ZM34.912 49.504L32.987 50.0466L33.3978 51.504H34.912V49.504ZM35.104 49.504V51.504H36.6056L37.0246 50.062L35.104 49.504ZM39.232 35.296L37.331 34.6746L37.3207 34.7061L37.3114 34.738L39.232 35.296ZM50.56 0.639997V-1.36H49.1096L48.659 0.0186119L50.56 0.639997ZM67.184 0.639997V64H71.184V0.639997H67.184ZM69.184 62H57.184V66H69.184V62ZM59.184 64V30.976L55.184 30.976L55.184 64H59.184ZM59.1827 31.0485L59.8547 12.5205L55.8573 12.3755L55.1853 30.9035L59.1827 31.0485ZM57.856 10.448H57.664V14.448H57.856V10.448ZM55.7709 11.8029L38.2029 63.3549L41.9891 64.6451L59.5571 13.0931L55.7709 11.8029ZM40.096 62H29.248V66H40.096V62ZM31.1422 63.358L13.6702 11.806L9.88183 13.09L27.3538 64.642L31.1422 63.358ZM11.776 10.448H11.584V14.448H11.776V10.448ZM9.58532 12.5205L10.2573 31.0485L14.2547 30.9035L13.5827 12.3755L9.58532 12.5205ZM10.256 30.976V64H14.256V30.976H10.256ZM12.256 62H0.256001V66H12.256V62ZM2.256 64L2.256 0.639997H-1.744L-1.744 64H2.256ZM0.256001 2.64H19.456V-1.36H0.256001V2.64ZM17.5571 1.2677L28.9811 35.8277L32.7789 34.5723L21.3549 0.012291L17.5571 1.2677ZM28.955 35.7426L32.987 50.0466L36.837 48.9614L32.805 34.6574L28.955 35.7426ZM34.912 51.504H35.104V47.504H34.912V51.504ZM37.0246 50.062L41.1526 35.854L37.3114 34.738L33.1834 48.946L37.0246 50.062ZM41.133 35.9174L52.461 1.26138L48.659 0.0186119L37.331 34.6746L41.133 35.9174ZM50.56 2.64H69.184V-1.36H50.56V2.64ZM92.8735 61.984L91.9307 63.7479L91.937 63.7512L91.9432 63.7545L92.8735 61.984ZM84.2335 53.44L85.9847 52.4738L84.2335 53.44ZM84.2335 26.56L85.9847 27.5262L84.2335 26.56ZM92.7775 18.016L91.8347 16.2521L91.8283 16.2556L91.822 16.259L92.7775 18.016ZM117.834 18.016L116.824 19.7424L116.836 19.7495L116.848 19.7565L117.834 18.016ZM125.609 25.984L123.841 26.9182L123.845 26.9252L123.849 26.9322L125.609 25.984ZM127.913 44.128V46.128H129.648L129.893 44.4108L127.913 44.128ZM89.6095 44.128H87.6095V46.128H89.6095V44.128ZM89.6095 35.008V33.008H87.6095V35.008H89.6095ZM122.154 35.008L122.837 36.8876L122.154 33.008V35.008ZM115.818 37.312H113.818V40.1674L116.501 39.1916L115.818 37.312ZM113.034 28L111.49 29.2714L111.501 29.2847L111.512 29.2979L113.034 28ZM99.0175 26.464L97.936 24.7816L97.922 24.7907L97.9081 24.7999L99.0175 26.464ZM95.0815 31.648L96.9385 32.3908L96.942 32.3819L96.9455 32.3729L95.0815 31.648ZM95.1775 48.64L93.3392 49.4278L93.353 49.46L93.3679 49.4916L95.1775 48.64ZM99.4015 53.536L98.3635 55.2456L98.3767 55.2536L98.3901 55.2614L99.4015 53.536ZM116.874 49.024L117.593 47.1578L115.897 46.5045L115.085 48.1296L116.874 49.024ZM127.338 53.056L129.188 53.8151L129.963 51.9245L128.057 51.1898L127.338 53.056ZM122.633 59.488L121.34 57.963L121.328 57.9728L121.316 57.9828L122.633 59.488ZM115.242 63.616L115.848 65.5219L115.861 65.5177L115.874 65.5134L115.242 63.616ZM106.122 62.96C101.33 62.96 97.2441 62.0212 93.8038 60.2135L91.9432 63.7545C96.0549 65.9148 100.801 66.96 106.122 66.96V62.96ZM93.8163 60.2201C90.4478 58.4197 87.8474 55.85 85.9847 52.4738L82.4823 54.4062C84.7156 58.454 87.8752 61.5803 91.9307 63.7479L93.8163 60.2201ZM85.9847 52.4738C84.1344 49.1202 83.1615 44.9895 83.1615 40H79.1615C79.1615 45.5065 80.2366 50.3358 82.4823 54.4062L85.9847 52.4738ZM83.1615 40C83.1615 35.0105 84.1344 30.8798 85.9847 27.5262L82.4823 25.5938C80.2366 29.6642 79.1615 34.4935 79.1615 40H83.1615ZM85.9847 27.5262C87.8524 24.1409 90.4276 21.5707 93.733 19.773L91.822 16.259C87.8314 18.4293 84.7106 21.5551 82.4823 25.5938L85.9847 27.5262ZM93.7203 19.7799C97.1075 17.9694 101.001 17.04 105.45 17.04V13.04C100.426 13.04 95.8715 14.0945 91.8347 16.2521L93.7203 19.7799ZM105.45 17.04C110.042 17.04 113.803 17.9756 116.824 19.7424L118.843 16.2896C115.08 14.0884 110.585 13.04 105.45 13.04V17.04ZM116.848 19.7565C119.913 21.4913 122.231 23.87 123.841 26.9182L127.378 25.0498C125.404 21.314 122.538 18.3806 118.819 16.2755L116.848 19.7565ZM123.849 26.9322C125.464 29.9315 126.298 33.4059 126.298 37.408H130.298C130.298 32.8341 129.339 28.6925 127.37 25.0358L123.849 26.9322ZM126.298 37.408C126.298 38.6549 126.266 39.8337 126.205 40.9451L130.198 41.1669C130.265 39.9743 130.298 38.7211 130.298 37.408H126.298ZM126.205 40.9451C126.143 42.0543 126.052 43.0191 125.934 43.8452L129.893 44.4108C130.031 43.4449 130.132 42.3617 130.198 41.1669L126.205 40.9451ZM127.913 42.128L89.6095 42.128V46.128L127.913 46.128V42.128ZM91.6095 44.128V35.008H87.6095V44.128H91.6095ZM89.6095 37.008H122.154V33.008H89.6095V37.008ZM121.47 33.1284L115.134 35.4324L116.501 39.1916L122.837 36.8876L121.47 33.1284ZM117.818 37.312C117.818 32.9971 116.825 29.3638 114.555 26.7021L111.512 29.2979C112.954 30.9882 113.818 33.5629 113.818 37.312H117.818ZM114.577 26.7286C112.335 24.006 109.159 22.736 105.354 22.736V26.736C108.204 26.736 110.148 27.642 111.49 29.2714L114.577 26.7286ZM105.354 22.736C102.594 22.736 100.094 23.394 97.936 24.7816L100.099 28.1464C101.525 27.23 103.249 26.736 105.354 26.736V22.736ZM97.9081 24.7999C95.7769 26.2207 94.2335 28.3105 93.2175 30.9231L96.9455 32.3729C97.7215 30.3775 98.8021 29.0113 100.127 28.1281L97.9081 24.7999ZM93.2245 30.9052C92.2026 33.4601 91.7375 36.5828 91.7375 40.192H95.7375C95.7375 36.8892 96.1684 34.3159 96.9385 32.3908L93.2245 30.9052ZM91.7375 40.192C91.7375 43.7559 92.2394 46.8617 93.3392 49.4278L97.0158 47.8522C96.1956 45.9383 95.7375 43.4121 95.7375 40.192H91.7375ZM93.3679 49.4916C94.5339 51.9694 96.1881 53.9248 98.3635 55.2456L100.439 51.8264C99.0309 50.9712 97.8691 49.6626 96.9871 47.7884L93.3679 49.4916ZM98.3901 55.2614C100.606 56.5607 103.178 57.168 106.025 57.168V53.168C103.753 53.168 101.909 52.6873 100.413 51.8106L98.3901 55.2614ZM106.025 57.168C109.081 57.168 111.761 56.5799 113.907 55.2285L111.776 51.8435C110.466 52.6681 108.602 53.168 106.025 53.168V57.168ZM113.907 55.2285C115.961 53.9354 117.548 52.1481 118.662 49.9184L115.085 48.1296C114.279 49.7399 113.178 50.9606 111.776 51.8435L113.907 55.2285ZM116.154 50.8903L126.618 54.9222L128.057 51.1898L117.593 47.1578L116.154 50.8903ZM125.487 52.2969C124.588 54.4887 123.214 56.3724 121.34 57.963L123.927 61.013C126.277 59.0196 128.039 56.6153 129.188 53.8151L125.487 52.2969ZM121.316 57.9828C119.49 59.5808 117.266 60.8329 114.609 61.7186L115.874 65.5134C118.977 64.4791 121.681 62.9792 123.951 60.9932L121.316 57.9828ZM114.635 61.7102C112.035 62.5376 109.201 62.96 106.122 62.96V66.96C109.57 66.96 112.816 66.4864 115.848 65.5219L114.635 61.7102ZM201.427 16.96L200.63 18.7941L200.653 18.8045L200.677 18.8142L201.427 16.96ZM208.627 22.048L207.083 23.3194L207.104 23.3442L207.125 23.3682L208.627 22.048ZM212.563 29.152L213.239 31.0341L215.011 30.3973L214.482 28.5902L212.563 29.152ZM200.275 33.568L198.323 34.0019L198.815 36.2179L200.951 35.4501L200.275 33.568ZM197.011 27.04L198.395 25.596L198.395 25.596L197.011 27.04ZM184.531 26.56L185.597 28.2525L185.619 28.2386L185.64 28.2241L184.531 26.56ZM180.595 31.648L182.452 32.3908L182.456 32.3819L182.459 32.3729L180.595 31.648ZM180.595 48.544L178.738 49.2868L178.747 49.3094L178.757 49.3318L180.595 48.544ZM184.627 53.536L183.561 55.2285L183.575 55.2371L183.589 55.2456L184.627 53.536ZM195.763 54.208L196.623 56.0137L196.657 55.9973L196.691 55.9797L195.763 54.208ZM199.027 51.232L197.389 50.0851L197.369 50.1132L197.35 50.142L199.027 51.232ZM200.851 46.624L201.465 44.7206L199.285 44.0173L198.882 46.2724L200.851 46.624ZM212.755 50.464L214.698 50.9389L215.14 49.1317L213.369 48.5606L212.755 50.464ZM208.819 58.048L207.319 56.7248L208.819 58.048ZM201.427 63.136L202.177 64.9902L201.427 63.136ZM177.907 61.984L178.837 60.2135L177.907 61.984ZM169.171 53.44L170.922 52.4738L169.171 53.44ZM169.171 26.56L170.922 27.5262L169.171 26.56ZM177.811 18.016L178.754 19.7799L177.811 18.016ZM190.579 17.04C194.68 17.04 198.006 17.6537 200.63 18.7941L202.224 15.1259C198.96 13.7063 195.054 13.04 190.579 13.04V17.04ZM200.677 18.8142C203.423 19.9243 205.533 21.4374 207.083 23.3194L210.171 20.7766C208.137 18.3066 205.447 16.4277 202.177 15.1058L200.677 18.8142ZM207.125 23.3682C208.794 25.2673 209.96 27.3781 210.644 29.7138L214.482 28.5902C213.63 25.6779 212.172 23.0527 210.129 20.7278L207.125 23.3682ZM211.887 27.2699L199.599 31.6859L200.951 35.4501L213.239 31.0341L211.887 27.2699ZM202.227 33.1341C201.534 30.0128 200.306 27.428 198.395 25.596L195.627 28.484C196.788 29.596 197.736 31.3632 198.323 34.0019L202.227 33.1341ZM198.395 25.596C196.404 23.6881 193.784 22.832 190.771 22.832V26.832C193.006 26.832 194.546 27.4479 195.627 28.484L198.395 25.596ZM190.771 22.832C188.013 22.832 185.531 23.4895 183.422 24.8959L185.64 28.2241C186.987 27.3265 188.665 26.832 190.771 26.832V22.832ZM183.465 24.8675C181.303 26.2289 179.749 28.3055 178.731 30.9231L182.459 32.3729C183.233 30.3824 184.303 29.0671 185.597 28.2525L183.465 24.8675ZM178.738 30.9052C177.718 33.4564 177.251 36.5452 177.251 40.096H181.251C181.251 36.8628 181.68 34.3196 182.452 32.3908L178.738 30.9052ZM177.251 40.096C177.251 43.6468 177.718 46.7356 178.738 49.2868L182.452 47.8012C181.68 45.8724 181.251 43.3292 181.251 40.096H177.251ZM178.757 49.3318C179.845 51.8712 181.428 53.8852 183.561 55.2285L185.693 51.8435C184.37 51.0108 183.265 49.6968 182.433 47.7562L178.757 49.3318ZM183.589 55.2456C185.733 56.5473 188.182 57.168 190.867 57.168V53.168C188.816 53.168 187.105 52.7007 185.665 51.8264L183.589 55.2456ZM190.867 57.168C193.001 57.168 194.944 56.8131 196.623 56.0137L194.903 52.4023C193.894 52.8829 192.573 53.168 190.867 53.168V57.168ZM196.691 55.9797C198.341 55.1154 199.686 53.8878 200.704 52.322L197.35 50.142C196.704 51.1362 195.873 51.8926 194.835 52.4363L196.691 55.9797ZM200.665 52.3789C201.753 50.8248 202.457 49.0066 202.82 46.9756L198.882 46.2724C198.605 47.8254 198.093 49.0792 197.389 50.0851L200.665 52.3789ZM200.237 48.5274L212.141 52.3674L213.369 48.5606L201.465 44.7206L200.237 48.5274ZM210.812 49.9891C210.183 52.5617 209.02 54.7969 207.319 56.7248L210.319 59.3712C212.458 56.9471 213.919 54.1263 214.698 50.9389L210.812 49.9891ZM207.319 56.7248C205.628 58.6417 203.432 60.1683 200.677 61.2818L202.177 64.9902C205.438 63.6717 208.17 61.8063 210.319 59.3712L207.319 56.7248ZM200.677 61.2818C197.954 62.3826 194.73 62.96 190.963 62.96V66.96C195.132 66.96 198.884 66.3214 202.177 64.9902L200.677 61.2818ZM190.963 62.96C186.309 62.96 182.285 62.0249 178.837 60.2135L176.977 63.7545C181.081 65.9111 185.761 66.96 190.963 66.96V62.96ZM178.837 60.2135C175.405 58.4103 172.78 55.841 170.922 52.4738L167.42 54.4062C169.658 58.463 172.857 61.5897 176.977 63.7545L178.837 60.2135ZM170.922 52.4738C169.072 49.1202 168.099 44.9895 168.099 40H164.099C164.099 45.5065 165.174 50.3358 167.42 54.4062L170.922 52.4738ZM168.099 40C168.099 35.0105 169.072 30.8798 170.922 27.5262L167.42 25.5938C165.174 29.6642 164.099 34.4935 164.099 40H168.099ZM170.922 27.5262C172.785 24.15 175.385 21.5803 178.754 19.7799L176.868 16.2521C172.813 18.4197 169.653 21.546 167.42 25.5938L170.922 27.5262ZM178.754 19.7799C182.137 17.9715 186.061 17.04 190.579 17.04V13.04C185.497 13.04 180.909 14.0925 176.868 16.2521L178.754 19.7799ZM257.63 18.016L256.675 19.773L256.681 19.7764L256.688 19.7799L257.63 18.016ZM266.271 26.56L264.519 27.5262L264.526 27.5376L264.532 27.549L266.271 26.56ZM266.271 53.44L264.525 52.4637L264.519 52.4738L266.271 53.44ZM257.63 61.984L256.688 60.2201L256.681 60.2236L256.675 60.227L257.63 61.984ZM232.094 61.984L233.037 60.2201L232.094 61.984ZM223.359 53.44L221.6 54.3935L221.61 54.4114L221.62 54.429L223.359 53.44ZM223.359 26.56L221.62 25.5709L221.614 25.5824L221.607 25.5938L223.359 26.56ZM232.094 18.016L233.037 19.7799L232.094 18.016ZM238.622 26.56L239.717 28.2339L239.724 28.2291L239.732 28.2241L238.622 26.56ZM234.783 31.552L232.926 30.8092L234.783 31.552ZM234.783 48.448L232.926 49.1908L234.783 48.448ZM238.622 53.536L237.484 55.1804L237.52 55.2052L237.557 55.2285L238.622 53.536ZM250.91 53.536L252.005 55.2099L252.012 55.2051L252.02 55.2001L250.91 53.536ZM254.846 48.448L256.703 49.1908L254.846 48.448ZM254.846 31.552L256.703 30.8092L254.846 31.552ZM250.91 26.56L249.772 28.2044L249.808 28.2292L249.845 28.2525L250.91 26.56ZM244.863 17.04C249.45 17.04 253.367 17.9738 256.675 19.773L258.586 16.259C254.598 14.0902 250.003 13.04 244.863 13.04V17.04ZM256.688 19.7799C260.056 21.5803 262.657 24.15 264.519 27.5262L268.022 25.5938C265.788 21.546 262.629 18.4197 258.573 16.2521L256.688 19.7799ZM264.532 27.549C266.438 30.8979 267.439 35.0201 267.439 40H271.439C271.439 34.4839 270.327 29.6461 268.009 25.5709L264.532 27.549ZM267.439 40C267.439 44.9098 266.44 49.04 264.525 52.4637L268.016 54.4163C270.325 50.288 271.439 45.4582 271.439 40H267.439ZM264.519 52.4738C262.657 55.85 260.056 58.4197 256.688 60.2201L258.573 63.7479C262.629 61.5803 265.788 58.454 268.022 54.4062L264.519 52.4738ZM256.675 60.227C253.367 62.0262 249.45 62.96 244.863 62.96V66.96C250.003 66.96 254.598 65.9098 258.586 63.741L256.675 60.227ZM244.863 62.96C240.345 62.96 236.421 62.0285 233.037 60.2201L231.152 63.7479C235.192 65.9075 239.78 66.96 244.863 66.96V62.96ZM233.037 60.2201C229.663 58.4169 227.025 55.8399 225.097 52.451L221.62 54.429C223.916 58.4641 227.102 61.5831 231.152 63.7479L233.037 60.2201ZM225.117 52.4865C223.257 49.058 222.286 44.9194 222.286 40H218.286C218.286 45.4486 219.364 50.27 221.6 54.3935L225.117 52.4865ZM222.286 40C222.286 35.0105 223.259 30.8798 225.11 27.5262L221.607 25.5938C219.362 29.6642 218.286 34.4935 218.286 40H222.286ZM225.097 27.549C227.025 24.1601 229.663 21.5831 233.037 19.7799L231.152 16.2521C227.102 18.4169 223.916 21.5359 221.62 25.5709L225.097 27.549ZM233.037 19.7799C236.421 17.9715 240.345 17.04 244.863 17.04V13.04C239.78 13.04 235.192 14.0925 231.152 16.2521L233.037 19.7799ZM244.863 22.832C242.105 22.832 239.623 23.4895 237.513 24.8959L239.732 28.2241C241.078 27.3265 242.756 26.832 244.863 26.832V22.832ZM237.528 24.8861C235.453 26.2431 233.941 28.2707 232.926 30.8092L236.639 32.2948C237.416 30.3533 238.464 29.0529 239.717 28.2339L237.528 24.8861ZM232.926 30.8092C231.905 33.3604 231.439 36.4492 231.439 40H235.439C235.439 36.7668 235.868 34.2236 236.639 32.2948L232.926 30.8092ZM231.439 40C231.439 43.5508 231.905 46.6396 232.926 49.1908L236.639 47.7052C235.868 45.7764 235.439 43.2332 235.439 40H231.439ZM232.926 49.1908C233.939 51.7242 235.44 53.7649 237.484 55.1804L239.761 51.8916C238.477 51.0031 237.418 49.6518 236.639 47.7052L232.926 49.1908ZM237.557 55.2285C239.66 56.553 242.126 57.168 244.863 57.168V53.168C242.735 53.168 241.041 52.695 239.688 51.8435L237.557 55.2285ZM244.863 57.168C247.544 57.168 249.958 56.5485 252.005 55.2099L249.816 51.8621C248.535 52.6995 246.917 53.168 244.863 53.168V57.168ZM252.02 55.2001C254.136 53.7891 255.682 51.744 256.703 49.1908L252.99 47.7052C252.219 49.632 251.141 50.979 249.801 51.8719L252.02 55.2001ZM256.703 49.1908C257.724 46.6396 258.19 43.5508 258.19 40H254.19C254.19 43.2332 253.761 45.7764 252.99 47.7052L256.703 49.1908ZM258.19 40C258.19 36.4492 257.724 33.3604 256.703 30.8092L252.99 32.2948C253.761 34.2236 254.19 36.7668 254.19 40H258.19ZM256.703 30.8092C255.68 28.2503 254.123 26.2193 251.976 24.8675L249.845 28.2525C251.154 29.0767 252.221 30.3737 252.99 32.2948L256.703 30.8092ZM252.049 24.9156C249.996 23.4947 247.566 22.832 244.863 22.832V26.832C246.895 26.832 248.497 27.3213 249.772 28.2044L252.049 24.9156ZM280.443 64H278.443V66H280.443V64ZM280.443 16V14H278.443V16H280.443ZM292.251 16L294.248 15.8935L294.147 14H292.251V16ZM293.019 30.4L291.649 31.8564L295.282 35.2763L295.016 30.2935L293.019 30.4ZM291.387 28.864L289.445 28.3883L289.167 29.5211L290.017 30.3204L291.387 28.864ZM301.083 16.576L301.835 18.4295L301.847 18.4245L301.859 18.4193L301.083 16.576ZM317.883 16.96L316.989 18.7489L316.998 18.7532L317.006 18.7575L317.883 16.96ZM324.027 22.816L322.283 23.7945L322.297 23.82L322.312 23.845L324.027 22.816ZM326.331 64V66H328.331V64H326.331ZM313.179 64H311.179V66H313.179V64ZM310.779 27.808L309.365 29.2222L309.379 29.2366L309.394 29.2508L310.779 27.808ZM299.259 26.752L300.154 28.5409L300.167 28.5343L300.18 28.5275L299.259 26.752ZM295.131 30.88L293.391 29.894L293.379 29.9162L293.367 29.9388L295.131 30.88ZM293.595 64V66H295.595V64H293.595ZM282.443 64V16H278.443V64H282.443ZM280.443 18H292.251V14H280.443V18ZM290.254 16.1065L291.022 30.5065L295.016 30.2935L294.248 15.8935L290.254 16.1065ZM294.39 28.9436L292.758 27.4076L290.017 30.3204L291.649 31.8564L294.39 28.9436ZM293.33 29.3397C294.043 26.4282 295.147 24.122 296.587 22.3492L293.483 19.8268C291.595 22.15 290.268 25.0278 289.445 28.3883L293.33 29.3397ZM296.587 22.3492C298.046 20.5541 299.79 19.2585 301.835 18.4295L300.332 14.7225C297.641 15.8135 295.353 17.5259 293.483 19.8268L296.587 22.3492ZM301.859 18.4193C304.024 17.5078 306.413 17.04 309.051 17.04V13.04C305.929 13.04 303.006 13.5962 300.307 14.7327L301.859 18.4193ZM309.051 17.04C312.119 17.04 314.748 17.6287 316.989 18.7489L318.778 15.1711C315.898 13.7313 312.639 13.04 309.051 13.04V17.04ZM317.006 18.7575C319.253 19.8534 321.004 21.5139 322.283 23.7945L325.772 21.8375C324.107 18.8701 321.762 16.6266 318.76 15.1625L317.006 18.7575ZM322.312 23.845C323.613 26.0124 324.331 28.8616 324.331 32.512H328.331C328.331 28.3544 327.514 24.7396 325.742 21.787L322.312 23.845ZM324.331 32.512V64H328.331V32.512H324.331ZM326.331 62H313.179V66H326.331V62ZM315.179 64V36.256L311.179 36.256V64H315.179ZM315.179 36.256C315.179 32.034 314.381 28.4935 312.164 26.3652L309.394 29.2508C310.377 30.1945 311.179 32.286 311.179 36.256L315.179 36.256ZM312.193 26.3938C310.168 24.3682 307.554 23.408 304.539 23.408V27.408C306.645 27.408 308.191 28.0478 309.365 29.2222L312.193 26.3938ZM304.539 23.408C302.4 23.408 300.326 23.946 298.339 24.9765L300.18 28.5275C301.648 27.766 303.095 27.408 304.539 27.408V23.408ZM298.365 24.9631C296.284 26.0038 294.638 27.6939 293.391 29.894L296.871 31.866C297.801 30.2261 298.907 29.1642 300.154 28.5409L298.365 24.9631ZM293.367 29.9388C292.132 32.2529 291.595 35.1749 291.595 38.56H295.595C295.595 35.5451 296.082 33.3471 296.896 31.8212L293.367 29.9388ZM291.595 38.56V64H295.595V38.56H291.595ZM293.595 62H280.443V66H293.595V62ZM356.498 1.31199H358.498V-1.31826L355.963 -0.615242L356.498 1.31199ZM358.226 53.44L356.853 54.894L356.894 54.9331L356.937 54.9698L358.226 53.44ZM367.346 54.304L368.037 56.1807L368.08 56.1649L368.122 56.1473L367.346 54.304ZM370.61 52.288L372.554 51.818L371.782 48.6255L369.3 50.7766L370.61 52.288ZM372.722 61.024L373.963 62.5921L374.966 61.7978L374.666 60.554L372.722 61.024ZM366.962 63.904L366.377 61.9913L366.962 63.904ZM351.122 63.52L350.387 65.3803L350.396 65.3835L350.404 65.3867L351.122 63.52ZM345.362 58.912L343.674 59.9857L343.686 60.0037L343.698 60.0214L345.362 58.912ZM343.346 4.96L342.811 3.03276L341.346 3.43923V4.96H343.346ZM371.858 16H373.858V14H371.858V16ZM371.858 25.792V27.792H373.858V25.792H371.858ZM334.514 25.792H332.514V27.792H334.514V25.792ZM334.514 16V14H332.514V16H334.514ZM354.498 1.31199V48.352H358.498V1.31199H354.498ZM354.498 48.352C354.498 50.9541 355.148 53.2843 356.853 54.894L359.599 51.986C358.999 51.4197 358.498 50.3579 358.498 48.352H354.498ZM356.937 54.9698C358.608 56.3762 360.741 56.976 363.122 56.976V52.976C361.407 52.976 360.276 52.5518 359.514 51.9102L356.937 54.9698ZM363.122 56.976C364.904 56.976 366.555 56.7269 368.037 56.1807L366.654 52.4273C365.705 52.7771 364.539 52.976 363.122 52.976V56.976ZM368.122 56.1473C369.525 55.5566 370.794 54.7747 371.92 53.7994L369.3 50.7766C368.505 51.4653 367.599 52.0274 366.57 52.4607L368.122 56.1473ZM368.666 52.758L370.778 61.494L374.666 60.554L372.554 51.818L368.666 52.758ZM371.48 59.4559C370.179 60.486 368.496 61.344 366.377 61.9913L367.546 65.8167C370.036 65.056 372.192 63.994 373.963 62.5921L371.48 59.4559ZM366.377 61.9913C364.274 62.6339 362.04 62.96 359.666 62.96V66.96C362.411 66.96 365.041 66.5821 367.546 65.8167L366.377 61.9913ZM359.666 62.96C356.664 62.96 354.066 62.5097 351.84 61.6533L350.404 65.3867C353.169 66.4503 356.267 66.96 359.666 66.96V62.96ZM351.856 61.6597C349.791 60.8446 348.201 59.5647 347.026 57.8026L343.698 60.0214C345.339 62.4833 347.588 64.2754 350.387 65.3803L351.856 61.6597ZM347.049 57.8382C345.976 56.1525 345.346 53.7515 345.346 50.464H341.346C341.346 54.2165 342.059 57.4475 343.674 59.9857L347.049 57.8382ZM345.346 50.464V4.96L341.346 4.96V50.464H345.346ZM343.88 6.88724L357.032 3.23923L355.963 -0.615242L342.811 3.03276L343.88 6.88724ZM369.858 16V25.792H373.858V16H369.858ZM371.858 23.792H334.514V27.792H371.858V23.792ZM336.514 25.792V16H332.514V25.792H336.514ZM334.514 18H371.858V14H334.514V18ZM406.185 26.944L404.77 28.3582L404.785 28.3726L404.799 28.3868L406.185 26.944ZM393.801 26.464L392.677 24.809V24.809L393.801 26.464ZM389.865 32.512L389.276 34.4236L391.209 35.0184L391.783 33.0787L389.865 32.512ZM378.633 29.056L376.696 28.5571L376.219 30.4061L378.044 30.9676L378.633 29.056ZM385.737 18.88L384.601 17.2336L384.594 17.2382L384.588 17.2429L385.737 18.88ZM411.656 17.056L410.869 18.8943L410.885 18.9011L410.901 18.9077L411.656 17.056ZM418.953 22.912L417.282 24.012L417.291 24.026L417.301 24.0399L418.953 22.912ZM428.169 55.456L430.16 55.6434L430.447 52.5882L427.536 53.5586L428.169 55.456ZM427.401 63.616L428.295 65.4049L429.288 64.9085L429.392 63.8034L427.401 63.616ZM410.888 60.256L409.204 61.3341L409.214 61.3498L409.224 61.3654L410.888 60.256ZM409.353 53.92L409.024 51.9472L407.353 52.2257V53.92H409.353ZM411.656 53.536L413.632 53.8479L414.065 51.107L411.328 51.5632L411.656 53.536ZM408.488 59.776L409.876 61.2166L409.889 61.2036L409.903 61.1902L408.488 59.776ZM402.152 63.616L401.477 61.7336L401.469 61.7364L401.461 61.7393L402.152 63.616ZM386.121 63.52L385.327 65.3557L385.348 65.3648L385.369 65.3735L386.121 63.52ZM380.648 59.104L378.984 60.2134L380.648 59.104ZM382.185 43.264L383.579 44.698L383.589 44.6882L383.599 44.6782L382.185 43.264ZM392.073 38.56L392.453 40.5234L392.461 40.5219L392.469 40.5204L392.073 38.56ZM410.121 34.912L412.12 34.9355L412.149 32.4614L409.724 32.9516L410.121 34.912ZM410.025 43.072L410.417 45.0332L412.005 44.7154L412.024 43.0955L410.025 43.072ZM398.504 45.376L398.112 43.4148L398.101 43.4171L398.504 45.376ZM393.513 47.2L394.599 48.8791L394.611 48.8717L394.622 48.8641L393.513 47.2ZM393.608 54.4L392.438 56.0214L392.458 56.0362L392.479 56.0506L393.608 54.4ZM401.865 55.168L401.379 53.2277L401.865 55.168ZM407.72 50.752L405.913 49.8958L407.72 50.752ZM410.585 33.376C410.585 30.2192 409.653 27.5013 407.57 25.5012L404.799 28.3868C405.916 29.4587 406.585 31.0288 406.585 33.376H410.585ZM407.599 25.5298C405.621 23.5523 403.029 22.64 400.04 22.64V26.64C402.172 26.64 403.676 27.2637 404.77 28.3582L407.599 25.5298ZM400.04 22.64C397.311 22.64 394.832 23.3472 392.677 24.809L394.923 28.1189C396.353 27.1488 398.034 26.64 400.04 26.64V22.64ZM392.677 24.809C390.386 26.3643 388.863 28.8432 387.946 31.9453L391.783 33.0787C392.53 30.5488 393.631 28.9957 394.923 28.1189L392.677 24.809ZM390.453 30.6004L379.221 27.1444L378.044 30.9676L389.276 34.4236L390.453 30.6004ZM380.569 29.5549C381.536 25.8028 383.618 22.8101 386.885 20.5171L384.588 17.2429C380.559 20.0699 377.905 23.8612 376.696 28.5571L380.569 29.5549ZM386.872 20.5264C390.146 18.2687 394.665 17.04 400.617 17.04V13.04C394.152 13.04 388.751 14.3713 384.601 17.2336L386.872 20.5264ZM400.617 17.04C404.632 17.04 408.033 17.6791 410.869 18.8943L412.444 15.2177C409.008 13.7449 405.049 13.04 400.617 13.04V17.04ZM410.901 18.9077C413.694 20.0477 415.794 21.7517 417.282 24.012L420.623 21.812C418.655 18.8243 415.891 16.6243 412.412 15.2043L410.901 18.9077ZM417.301 24.0399C418.815 26.2572 419.641 29.1339 419.641 32.8H423.641C423.641 28.5301 422.674 24.8148 420.604 21.7841L417.301 24.0399ZM419.641 32.8V52.288H423.641V32.8H419.641ZM419.641 52.288C419.641 53.7861 419.993 55.2814 421.053 56.3995C422.131 57.5378 423.608 57.936 425.096 57.936V53.936C424.281 53.936 424.03 53.7262 423.956 53.6485C423.864 53.5506 423.641 53.2219 423.641 52.288H419.641ZM425.096 57.936C426.383 57.936 427.622 57.7463 428.801 57.3534L427.536 53.5586C426.795 53.8057 425.986 53.936 425.096 53.936V57.936ZM426.177 55.2686L425.409 63.4286L429.392 63.8034L430.16 55.6434L426.177 55.2686ZM426.506 61.8271C425.198 62.4812 423.447 62.864 421.16 62.864V66.864C423.866 66.864 426.275 66.4148 428.295 65.4049L426.506 61.8271ZM421.16 62.864C419.151 62.864 417.409 62.5203 415.9 61.8737L414.325 65.5503C416.4 66.4397 418.69 66.864 421.16 66.864V62.864ZM415.9 61.8737C414.444 61.2495 413.349 60.3413 412.553 59.1466L409.224 61.3654C410.476 63.2427 412.197 64.6385 414.325 65.5503L415.9 61.8737ZM412.573 59.1779C411.8 57.9707 411.353 56.3839 411.353 54.304H407.353C407.353 56.9601 407.929 59.3413 409.204 61.3341L412.573 59.1779ZM411.353 54.304V53.92H407.353V54.304H411.353ZM409.681 55.8928L411.985 55.5088L411.328 51.5632L409.024 51.9472L409.681 55.8928ZM409.681 53.2241C409.362 55.2419 408.501 56.9351 407.074 58.3618L409.903 61.1902C411.932 59.1609 413.183 56.6941 413.632 53.8479L409.681 53.2241ZM407.101 58.3354C405.597 59.7838 403.735 60.9229 401.477 61.7336L402.828 65.4984C405.562 64.5171 407.924 63.0962 409.876 61.2166L407.101 58.3354ZM401.461 61.7393C399.253 62.5527 396.96 62.96 394.569 62.96V66.96C397.425 66.96 400.188 66.4713 402.844 65.4927L401.461 61.7393ZM394.569 62.96C391.494 62.96 388.945 62.507 386.872 61.6665L385.369 65.3735C388.032 66.453 391.115 66.96 394.569 66.96V62.96ZM386.914 61.6843C384.857 60.7947 383.354 59.5566 382.313 57.9946L378.984 60.2134C380.503 62.4914 382.648 64.1973 385.327 65.3557L386.914 61.6843ZM382.313 57.9946C381.296 56.4693 380.729 54.509 380.729 52H376.729C376.729 55.123 377.441 57.8987 378.984 60.2134L382.313 57.9946ZM380.729 52C380.729 48.8877 381.708 46.5162 383.579 44.698L380.79 41.83C378.053 44.4918 376.729 47.9443 376.729 52H380.729ZM383.599 44.6782C385.539 42.7375 388.426 41.3048 392.453 40.5234L391.692 36.5966C387.143 37.4792 383.438 39.1825 380.77 41.8498L383.599 44.6782ZM392.469 40.5204L410.517 36.8724L409.724 32.9516L391.676 36.5996L392.469 40.5204ZM408.121 34.8885L408.025 43.0485L412.024 43.0955L412.12 34.9355L408.121 34.8885ZM409.632 41.1108L398.112 43.4148L398.897 47.3372L410.417 45.0332L409.632 41.1108ZM398.101 43.4171C395.807 43.8894 393.86 44.5649 392.403 45.5359L394.622 48.8641C395.469 48.2991 396.85 47.7586 398.908 47.3349L398.101 43.4171ZM392.426 45.5209C390.607 46.6978 389.88 48.6272 389.88 50.752H393.88C393.88 49.5488 394.242 49.1102 394.599 48.8791L392.426 45.5209ZM389.88 50.752C389.88 52.9008 390.694 54.7618 392.438 56.0214L394.779 52.7786C394.219 52.3742 393.88 51.8032 393.88 50.752H389.88ZM392.479 56.0506C394.07 57.1389 395.915 57.648 397.928 57.648V53.648C396.614 53.648 395.579 53.3251 394.738 52.7494L392.479 56.0506ZM397.928 57.648C399.433 57.648 400.908 57.4687 402.35 57.1083L401.379 53.2277C400.261 53.5073 399.112 53.648 397.928 53.648V57.648ZM402.35 57.1083C403.847 56.734 405.221 56.1276 406.454 55.2801L404.187 51.9839C403.372 52.5444 402.442 52.962 401.379 53.2277L402.35 57.1083ZM406.454 55.2801C407.792 54.3598 408.814 53.1158 409.528 51.6082L405.913 49.8958C405.475 50.8202 404.897 51.4962 404.187 51.9839L406.454 55.2801ZM409.528 51.6082C410.261 50.0598 410.585 48.2789 410.585 46.336H406.585C406.585 47.8491 406.332 49.0122 405.913 49.8958L409.528 51.6082ZM410.585 46.336V33.376H406.585V46.336H410.585ZM468.802 16.96L468.005 18.7941L468.028 18.8045L468.052 18.8142L468.802 16.96ZM476.002 22.048L474.458 23.3194L474.479 23.3442L474.5 23.3682L476.002 22.048ZM479.938 29.152L480.614 31.0341L482.386 30.3973L481.857 28.5902L479.938 29.152ZM467.65 33.568L465.698 34.0019L466.19 36.2179L468.326 35.4501L467.65 33.568ZM464.386 27.04L465.77 25.596V25.596L464.386 27.04ZM451.906 26.56L452.972 28.2525L452.994 28.2386L453.015 28.2241L451.906 26.56ZM447.97 31.648L449.827 32.3908L449.831 32.3819L449.834 32.3729L447.97 31.648ZM447.97 48.544L446.113 49.2868L446.122 49.3094L446.132 49.3318L447.97 48.544ZM452.002 53.536L450.936 55.2285L450.95 55.2371L450.964 55.2456L452.002 53.536ZM463.138 54.208L463.998 56.0137L464.032 55.9973L464.066 55.9797L463.138 54.208ZM466.402 51.232L464.764 50.0851L464.744 50.1132L464.725 50.142L466.402 51.232ZM468.226 46.624L468.84 44.7206L466.66 44.0173L466.257 46.2724L468.226 46.624ZM480.13 50.464L482.073 50.9389L482.515 49.1317L480.744 48.5606L480.13 50.464ZM476.194 58.048L474.694 56.7248L476.194 58.048ZM468.802 63.136L469.552 64.9902L468.802 63.136ZM445.282 61.984L446.212 60.2135L445.282 61.984ZM436.546 53.44L438.297 52.4738L436.546 53.44ZM436.546 26.56L438.297 27.5262L436.546 26.56ZM445.186 18.016L446.129 19.7799L445.186 18.016ZM457.954 17.04C462.055 17.04 465.381 17.6537 468.005 18.7941L469.599 15.1259C466.335 13.7063 462.429 13.04 457.954 13.04V17.04ZM468.052 18.8142C470.798 19.9243 472.908 21.4374 474.458 23.3194L477.546 20.7766C475.512 18.3066 472.822 16.4277 469.552 15.1058L468.052 18.8142ZM474.5 23.3682C476.169 25.2673 477.335 27.3781 478.019 29.7138L481.857 28.5902C481.005 25.6779 479.547 23.0527 477.504 20.7278L474.5 23.3682ZM479.262 27.2699L466.974 31.6859L468.326 35.4501L480.614 31.0341L479.262 27.2699ZM469.602 33.1341C468.909 30.0128 467.681 27.428 465.77 25.596L463.002 28.484C464.163 29.596 465.111 31.3632 465.698 34.0019L469.602 33.1341ZM465.77 25.596C463.779 23.6881 461.159 22.832 458.146 22.832V26.832C460.381 26.832 461.921 27.4479 463.002 28.484L465.77 25.596ZM458.146 22.832C455.388 22.832 452.906 23.4895 450.797 24.8959L453.015 28.2241C454.362 27.3265 456.04 26.832 458.146 26.832V22.832ZM450.84 24.8675C448.678 26.2289 447.124 28.3055 446.106 30.9231L449.834 32.3729C450.608 30.3824 451.678 29.0671 452.972 28.2525L450.84 24.8675ZM446.113 30.9052C445.093 33.4564 444.626 36.5452 444.626 40.096H448.626C448.626 36.8628 449.055 34.3196 449.827 32.3908L446.113 30.9052ZM444.626 40.096C444.626 43.6468 445.093 46.7356 446.113 49.2868L449.827 47.8012C449.055 45.8724 448.626 43.3292 448.626 40.096H444.626ZM446.132 49.3318C447.22 51.8712 448.803 53.8852 450.936 55.2285L453.068 51.8435C451.745 51.0108 450.64 49.6968 449.808 47.7562L446.132 49.3318ZM450.964 55.2456C453.108 56.5473 455.557 57.168 458.242 57.168V53.168C456.191 53.168 454.48 52.7007 453.04 51.8264L450.964 55.2456ZM458.242 57.168C460.376 57.168 462.319 56.8131 463.998 56.0137L462.278 52.4023C461.269 52.8829 459.948 53.168 458.242 53.168V57.168ZM464.066 55.9797C465.716 55.1154 467.061 53.8878 468.079 52.322L464.725 50.142C464.079 51.1362 463.248 51.8926 462.21 52.4363L464.066 55.9797ZM468.04 52.3789C469.128 50.8248 469.832 49.0066 470.195 46.9756L466.257 46.2724C465.98 47.8254 465.468 49.0792 464.764 50.0851L468.04 52.3789ZM467.612 48.5274L479.516 52.3674L480.744 48.5606L468.84 44.7206L467.612 48.5274ZM478.187 49.9891C477.558 52.5617 476.395 54.7969 474.694 56.7248L477.694 59.3712C479.833 56.9471 481.294 54.1263 482.073 50.9389L478.187 49.9891ZM474.694 56.7248C473.003 58.6417 470.807 60.1683 468.052 61.2818L469.552 64.9902C472.813 63.6717 475.545 61.8063 477.694 59.3712L474.694 56.7248ZM468.052 61.2818C465.329 62.3826 462.105 62.96 458.338 62.96V66.96C462.507 66.96 466.259 66.3214 469.552 64.9902L468.052 61.2818ZM458.338 62.96C453.684 62.96 449.66 62.0249 446.212 60.2135L444.352 63.7545C448.456 65.9111 453.136 66.96 458.338 66.96V62.96ZM446.212 60.2135C442.78 58.4103 440.155 55.841 438.297 52.4738L434.795 54.4062C437.033 58.463 440.232 61.5897 444.352 63.7545L446.212 60.2135ZM438.297 52.4738C436.447 49.1202 435.474 44.9895 435.474 40H431.474C431.474 45.5065 432.549 50.3358 434.795 54.4062L438.297 52.4738ZM435.474 40C435.474 35.0105 436.447 30.8798 438.297 27.5262L434.795 25.5938C432.549 29.6642 431.474 34.4935 431.474 40H435.474ZM438.297 27.5262C440.16 24.15 442.76 21.5803 446.129 19.7799L444.243 16.2521C440.188 18.4197 437.028 21.546 434.795 25.5938L438.297 27.5262ZM446.129 19.7799C449.512 17.9715 453.436 17.04 457.954 17.04V13.04C452.872 13.04 448.284 14.0925 444.243 16.2521L446.129 19.7799ZM507.341 1.31199H509.341V-1.31826L506.807 -0.615242L507.341 1.31199ZM509.07 53.44L507.696 54.894L507.738 54.9331L507.781 54.9698L509.07 53.44ZM518.19 54.304L518.881 56.1807L518.924 56.1649L518.966 56.1473L518.19 54.304ZM521.453 52.288L523.398 51.818L522.626 48.6255L520.144 50.7766L521.453 52.288ZM523.565 61.024L524.807 62.5921L525.81 61.7978L525.51 60.554L523.565 61.024ZM517.805 63.904L517.221 61.9913L517.805 63.904ZM501.966 63.52L501.231 65.3803L501.239 65.3835L501.248 65.3867L501.966 63.52ZM496.206 58.912L494.518 59.9857L494.53 60.0037L494.541 60.0214L496.206 58.912ZM494.19 4.96L493.655 3.03276L492.19 3.43923V4.96H494.19ZM522.701 16H524.701V14H522.701V16ZM522.701 25.792V27.792H524.701V25.792H522.701ZM485.358 25.792H483.358V27.792H485.358V25.792ZM485.358 16V14H483.358V16H485.358ZM505.341 1.31199V48.352H509.341V1.31199H505.341ZM505.341 48.352C505.341 50.9541 505.992 53.2843 507.696 54.894L510.443 51.986C509.843 51.4197 509.341 50.3579 509.341 48.352H505.341ZM507.781 54.9698C509.451 56.3762 511.585 56.976 513.966 56.976V52.976C512.25 52.976 511.12 52.5518 510.358 51.9102L507.781 54.9698ZM513.966 56.976C515.748 56.976 517.398 56.7269 518.881 56.1807L517.498 52.4273C516.549 52.7771 515.383 52.976 513.966 52.976V56.976ZM518.966 56.1473C520.368 55.5566 521.638 54.7747 522.763 53.7994L520.144 50.7766C519.349 51.4653 518.443 52.0274 517.413 52.4607L518.966 56.1473ZM519.51 52.758L521.622 61.494L525.51 60.554L523.398 51.818L519.51 52.758ZM522.324 59.4559C521.023 60.486 519.34 61.344 517.221 61.9913L518.39 65.8167C520.879 65.056 523.036 63.994 524.807 62.5921L522.324 59.4559ZM517.221 61.9913C515.118 62.6339 512.884 62.96 510.51 62.96V66.96C513.255 66.96 515.885 66.5821 518.39 65.8167L517.221 61.9913ZM510.51 62.96C507.508 62.96 504.91 62.5097 502.683 61.6533L501.248 65.3867C504.013 66.4503 507.111 66.96 510.51 66.96V62.96ZM502.7 61.6597C500.635 60.8446 499.044 59.5647 497.87 57.8026L494.541 60.0214C496.183 62.4833 498.432 64.2754 501.231 65.3803L502.7 61.6597ZM497.893 57.8382C496.82 56.1525 496.19 53.7515 496.19 50.464H492.19C492.19 54.2165 492.903 57.4475 494.518 59.9857L497.893 57.8382ZM496.19 50.464V4.96H492.19V50.464H496.19ZM494.724 6.88724L507.876 3.23923L506.807 -0.615242L493.655 3.03276L494.724 6.88724ZM520.701 16V25.792H524.701V16H520.701ZM522.701 23.792H485.358V27.792H522.701V23.792ZM487.358 25.792V16H483.358V25.792H487.358ZM485.358 18H522.701V14H485.358V18ZM540.623 61.984L539.681 63.7479L539.687 63.7512L539.693 63.7545L540.623 61.984ZM531.984 53.44L533.735 52.4738L531.984 53.44ZM531.984 26.56L533.735 27.5262L531.984 26.56ZM540.528 18.016L539.585 16.2521L539.578 16.2556L539.572 16.259L540.528 18.016ZM565.583 18.016L564.574 19.7424L564.586 19.7495L564.598 19.7565L565.583 18.016ZM573.359 25.984L571.591 26.9182L571.595 26.9252L571.599 26.9322L573.359 25.984ZM575.664 44.128V46.128H577.398L577.643 44.4108L575.664 44.128ZM537.359 44.128H535.359V46.128H537.359V44.128ZM537.359 35.008V33.008H535.359V35.008H537.359ZM569.904 35.008L570.587 36.8876L569.904 33.008V35.008ZM563.568 37.312H561.568V40.1674L564.251 39.1916L563.568 37.312ZM560.784 28L559.24 29.2714L559.251 29.2847L559.262 29.2979L560.784 28ZM546.768 26.464L545.686 24.7816L545.672 24.7907L545.658 24.7999L546.768 26.464ZM542.831 31.648L544.688 32.3908L544.692 32.3819L544.695 32.3729L542.831 31.648ZM542.927 48.64L541.089 49.4278L541.103 49.46L541.118 49.4916L542.927 48.64ZM547.151 53.536L546.114 55.2456L546.127 55.2536L546.14 55.2614L547.151 53.536ZM564.623 49.024L565.343 47.1578L563.647 46.5045L562.835 48.1296L564.623 49.024ZM575.088 53.056L576.938 53.8151L577.714 51.9245L575.807 51.1898L575.088 53.056ZM570.383 59.488L569.09 57.963L569.078 57.9728L569.066 57.9828L570.383 59.488ZM562.992 63.616L563.598 65.5219L563.611 65.5177L563.624 65.5134L562.992 63.616ZM553.872 62.96C549.08 62.96 544.994 62.0212 541.554 60.2135L539.693 63.7545C543.805 65.9148 548.551 66.96 553.872 66.96V62.96ZM541.566 60.2201C538.198 58.4197 535.597 55.85 533.735 52.4738L530.232 54.4062C532.466 58.454 535.625 61.5803 539.681 63.7479L541.566 60.2201ZM533.735 52.4738C531.884 49.1202 530.911 44.9895 530.911 40H526.911C526.911 45.5065 527.987 50.3358 530.232 54.4062L533.735 52.4738ZM530.911 40C530.911 35.0105 531.884 30.8798 533.735 27.5262L530.232 25.5938C527.987 29.6642 526.911 34.4935 526.911 40H530.911ZM533.735 27.5262C535.602 24.1409 538.178 21.5707 541.483 19.773L539.572 16.259C535.581 18.4293 532.461 21.5551 530.232 25.5938L533.735 27.5262ZM541.47 19.7799C544.857 17.9694 548.751 17.04 553.2 17.04V13.04C548.176 13.04 543.622 14.0945 539.585 16.2521L541.47 19.7799ZM553.2 17.04C557.792 17.04 561.553 17.9756 564.574 19.7424L566.593 16.2896C562.83 14.0884 558.335 13.04 553.2 13.04V17.04ZM564.598 19.7565C567.663 21.4913 569.981 23.87 571.591 26.9182L575.128 25.0498C573.154 21.314 570.288 18.3806 566.569 16.2755L564.598 19.7565ZM571.599 26.9322C573.214 29.9315 574.047 33.4059 574.047 37.408H578.047C578.047 32.8341 577.089 28.6925 575.12 25.0358L571.599 26.9322ZM574.047 37.408C574.047 38.6549 574.016 39.8337 573.955 40.9451L577.948 41.1669C578.015 39.9743 578.047 38.7211 578.047 37.408H574.047ZM573.955 40.9451C573.893 42.0543 573.802 43.0191 573.684 43.8452L577.643 44.4108C577.781 43.4449 577.882 42.3617 577.948 41.1669L573.955 40.9451ZM575.664 42.128H537.359V46.128H575.664V42.128ZM539.359 44.128V35.008H535.359V44.128H539.359ZM537.359 37.008L569.904 37.008V33.008L537.359 33.008V37.008ZM569.22 33.1284L562.884 35.4324L564.251 39.1916L570.587 36.8876L569.22 33.1284ZM565.568 37.312C565.568 32.9971 564.575 29.3638 562.305 26.7021L559.262 29.2979C560.704 30.9882 561.568 33.5629 561.568 37.312H565.568ZM562.327 26.7286C560.085 24.006 556.909 22.736 553.104 22.736V26.736C555.954 26.736 557.898 27.642 559.24 29.2714L562.327 26.7286ZM553.104 22.736C550.344 22.736 547.844 23.394 545.686 24.7816L547.849 28.1464C549.275 27.23 550.999 26.736 553.104 26.736V22.736ZM545.658 24.7999C543.527 26.2207 541.984 28.3105 540.967 30.9231L544.695 32.3729C545.471 30.3775 546.552 29.0113 547.877 28.1281L545.658 24.7999ZM540.975 30.9052C539.953 33.4601 539.487 36.5828 539.487 40.192H543.487C543.487 36.8892 543.918 34.3159 544.688 32.3908L540.975 30.9052ZM539.487 40.192C539.487 43.7559 539.989 46.8617 541.089 49.4278L544.766 47.8522C543.946 45.9383 543.487 43.4121 543.487 40.192H539.487ZM541.118 49.4916C542.284 51.9694 543.938 53.9248 546.114 55.2456L548.189 51.8264C546.781 50.9712 545.619 49.6626 544.737 47.7884L541.118 49.4916ZM546.14 55.2614C548.357 56.5607 550.928 57.168 553.776 57.168V53.168C551.503 53.168 549.659 52.6873 548.163 51.8106L546.14 55.2614ZM553.776 57.168C556.831 57.168 559.511 56.5799 561.657 55.2285L559.526 51.8435C558.216 52.6681 556.352 53.168 553.776 53.168V57.168ZM561.657 55.2285C563.711 53.9354 565.298 52.1481 566.412 49.9184L562.835 48.1296C562.029 49.7399 560.928 50.9606 559.526 51.8435L561.657 55.2285ZM563.904 50.8903L574.368 54.9222L575.807 51.1898L565.343 47.1578L563.904 50.8903ZM573.237 52.2969C572.338 54.4887 570.964 56.3724 569.09 57.963L571.677 61.013C574.027 59.0196 575.789 56.6153 576.938 53.8151L573.237 52.2969ZM569.066 57.9828C567.24 59.5808 565.016 60.8329 562.359 61.7186L563.624 65.5134C566.727 64.4791 569.431 62.9792 571.701 60.9932L569.066 57.9828ZM562.385 61.7102C559.785 62.5376 556.951 62.96 553.872 62.96V66.96C557.32 66.96 560.566 66.4864 563.598 65.5219L562.385 61.7102ZM587.193 64H585.193V66H587.193V64ZM587.193 16V14H585.193V16H587.193ZM598.617 16L600.609 15.8171L600.442 14H598.617V16ZM599.481 25.408L597.49 25.5909L601.348 26.126L599.481 25.408ZM605.049 17.728L603.883 16.1034L603.873 16.1106L603.863 16.1179L605.049 17.728ZM619.545 16.096L621.526 16.3716L621.715 15.0136L620.517 14.3477L619.545 16.096ZM618.009 27.136L617.266 28.993L619.638 29.9416L619.99 27.4116L618.009 27.136ZM615.609 26.56L615.326 28.5399L615.336 28.5412L615.345 28.5425L615.609 26.56ZM606.489 27.808L607.384 29.5969L607.409 29.5843L607.434 29.571L606.489 27.808ZM602.073 32.032L603.773 33.0867L603.78 33.0739L603.788 33.061L602.073 32.032ZM600.345 64V66H602.345V64H600.345ZM589.193 64V16H585.193V64H589.193ZM587.193 18H598.617V14H587.193V18ZM596.626 16.1829L597.49 25.5909L601.473 25.2251L600.609 15.8171L596.626 16.1829ZM601.348 26.126C602.516 23.0889 604.163 20.8656 606.236 19.3381L603.863 16.1179C601.072 18.1744 599.006 21.0711 597.615 24.69L601.348 26.126ZM606.216 19.3526C608.306 17.8519 610.979 17.04 614.361 17.04V13.04C610.32 13.04 606.785 14.0201 603.883 16.1034L606.216 19.3526ZM614.361 17.04C615.334 17.04 616.183 17.126 616.918 17.2836L617.756 13.3724C616.7 13.146 615.565 13.04 614.361 13.04V17.04ZM616.918 17.2836C617.69 17.4491 618.224 17.6496 618.574 17.8443L620.517 14.3477C619.715 13.9024 618.776 13.5909 617.756 13.3724L616.918 17.2836ZM617.564 15.8204L616.028 26.8604L619.99 27.4116L621.526 16.3716L617.564 15.8204ZM618.752 25.279C617.91 24.9424 616.937 24.7193 615.874 24.5775L615.345 28.5425C616.201 28.6567 616.828 28.8176 617.266 28.993L618.752 25.279ZM615.892 24.5801C614.863 24.4331 613.573 24.368 612.057 24.368V28.368C613.485 28.368 614.564 28.4309 615.326 28.5399L615.892 24.5801ZM612.057 24.368C609.788 24.368 607.61 24.9389 605.545 26.045L607.434 29.571C608.953 28.7571 610.486 28.368 612.057 28.368V24.368ZM605.595 26.0191C603.424 27.1048 601.682 28.7964 600.358 31.003L603.788 33.061C604.768 31.4276 605.971 30.3032 607.384 29.5969L605.595 26.0191ZM600.374 30.9773C598.972 33.2358 598.345 35.9992 598.345 39.136H602.345C602.345 36.5128 602.87 34.5402 603.773 33.0867L600.374 30.9773ZM598.345 39.136V64H602.345V39.136H598.345ZM600.345 62H587.193V66H600.345V62Z" fill="#555555" mask="url(#path-1-outside-1_78_401)"/>
</svg>
