<svg width="798" height="150" viewBox="0 0 798 150" fill="none" xmlns="http://www.w3.org/2000/svg">
<path d="M47.541 15.34C56.519 15.34 64.291 17.015 70.857 20.365C77.557 23.581 82.783 28.204 86.535 34.234C90.287 40.264 92.163 47.433 92.163 55.741C92.163 64.049 90.287 71.218 86.535 77.248C82.783 83.278 77.557 87.968 70.857 91.318C64.291 94.534 56.519 96.142 47.541 96.142H16.788V148H0.708008L0.708008 15.34H47.541ZM45.129 81.067C55.581 81.067 63.219 78.923 68.043 74.635C72.867 70.213 75.279 63.915 75.279 55.741C75.279 47.433 72.867 41.135 68.043 36.847C63.219 32.559 55.581 30.415 45.129 30.415H16.788V81.067H45.129Z" fill="#555555"/>
<path d="M160.214 45.49C169.728 45.49 178.103 47.567 185.339 51.721C192.709 55.875 198.471 61.905 202.625 69.811C206.779 77.583 208.856 86.896 208.856 97.75C208.856 108.604 206.779 117.984 202.625 125.89C198.471 133.662 192.709 139.625 185.339 143.779C178.103 147.933 169.728 150.01 160.214 150.01C150.834 150.01 142.459 147.933 135.089 143.779C127.719 139.625 121.957 133.662 117.803 125.89C113.649 117.984 111.572 108.604 111.572 97.75C111.572 86.896 113.649 77.583 117.803 69.811C121.957 61.905 127.719 55.875 135.089 51.721C142.459 47.567 150.834 45.49 160.214 45.49ZM160.214 59.359C153.38 59.359 147.551 60.9 142.727 63.982C137.903 67.064 134.151 71.486 131.471 77.248C128.925 82.876 127.652 89.71 127.652 97.75C127.652 105.656 128.925 112.49 131.471 118.252C134.151 124.014 137.903 128.436 142.727 131.518C147.551 134.6 153.38 136.141 160.214 136.141C167.048 136.141 172.877 134.6 177.701 131.518C182.525 128.436 186.21 124.014 188.756 118.252C191.436 112.49 192.776 105.656 192.776 97.75C192.776 89.71 191.436 82.876 188.756 77.248C186.21 71.486 182.525 67.064 177.701 63.982C172.877 60.9 167.048 59.359 160.214 59.359Z" fill="#555555"/>
<path d="M239.129 148V47.5H252.194L254.405 63.982C257.219 57.818 261.306 53.195 266.666 50.113C272.16 47.031 278.793 45.49 286.565 45.49C288.307 45.49 290.183 45.624 292.193 45.892C294.337 46.16 296.146 46.696 297.62 47.5L294.806 62.173C293.332 61.637 291.724 61.235 289.982 60.967C288.24 60.699 285.761 60.565 282.545 60.565C278.391 60.565 274.17 61.771 269.882 64.183C265.728 66.595 262.244 70.28 259.43 75.238C256.616 80.062 255.209 86.226 255.209 93.73V148H239.129Z" fill="#555555"/>
<path d="M338.81 18.958V120.262C338.81 125.22 340.217 128.905 343.031 131.317C345.845 133.729 349.463 134.935 353.885 134.935C357.771 134.935 361.121 134.265 363.935 132.925C366.749 131.585 369.295 129.776 371.573 127.498L377.201 140.965C374.119 143.779 370.434 145.99 366.146 147.598C361.992 149.206 357.168 150.01 351.674 150.01C346.582 150.01 341.825 149.139 337.403 147.397C332.981 145.521 329.43 142.64 326.75 138.754C324.204 134.734 322.864 129.508 322.73 123.076V23.38L338.81 18.958ZM375.392 47.5V61.369H302.63V47.5H375.392Z" fill="#555555"/>
<path d="M436.178 0.265015C439.662 0.265015 442.945 0.667014 446.027 1.47101C449.109 2.27501 451.521 3.41401 453.263 4.88802L449.042 17.953C447.434 16.881 445.692 16.144 443.816 15.742C441.94 15.206 439.863 14.938 437.585 14.938C431.823 14.938 427.334 16.345 424.118 19.159C420.902 21.839 419.294 26.194 419.294 32.224V148H403.214V30.616C403.214 26.194 403.884 22.107 405.224 18.355C406.564 14.603 408.574 11.387 411.254 8.70701C414.068 6.02701 417.552 3.95001 421.706 2.47601C425.86 1.00201 430.684 0.265015 436.178 0.265015ZM452.861 47.5V61.369H383.114V47.5H452.861Z" fill="#555555"/>
<path d="M513.142 45.49C522.656 45.49 531.031 47.567 538.267 51.721C545.637 55.875 551.399 61.905 555.553 69.811C559.707 77.583 561.784 86.896 561.784 97.75C561.784 108.604 559.707 117.984 555.553 125.89C551.399 133.662 545.637 139.625 538.267 143.779C531.031 147.933 522.656 150.01 513.142 150.01C503.762 150.01 495.387 147.933 488.017 143.779C480.647 139.625 474.885 133.662 470.731 125.89C466.577 117.984 464.5 108.604 464.5 97.75C464.5 86.896 466.577 77.583 470.731 69.811C474.885 61.905 480.647 55.875 488.017 51.721C495.387 47.567 503.762 45.49 513.142 45.49ZM513.142 59.359C506.308 59.359 500.479 60.9 495.655 63.982C490.831 67.064 487.079 71.486 484.399 77.248C481.853 82.876 480.58 89.71 480.58 97.75C480.58 105.656 481.853 112.49 484.399 118.252C487.079 124.014 490.831 128.436 495.655 131.518C500.479 134.6 506.308 136.141 513.142 136.141C519.976 136.141 525.805 134.6 530.629 131.518C535.453 128.436 539.138 124.014 541.684 118.252C544.364 112.49 545.704 105.656 545.704 97.75C545.704 89.71 544.364 82.876 541.684 77.248C539.138 71.486 535.453 67.064 530.629 63.982C525.805 60.9 519.976 59.359 513.142 59.359Z" fill="#555555"/>
<path d="M607.332 1.27001V122.473C607.332 127.565 608.27 131.116 610.146 133.126C612.022 135.002 615.037 135.94 619.191 135.94C621.871 135.94 624.082 135.739 625.824 135.337C627.566 134.935 629.911 134.198 632.859 133.126L630.246 147.196C628.102 148.134 625.757 148.804 623.211 149.206C620.665 149.742 618.052 150.01 615.372 150.01C607.198 150.01 601.101 147.799 597.081 143.377C593.195 138.955 591.252 132.188 591.252 123.076V1.27001H607.332Z" fill="#555555"/>
<path d="M661.535 28.204C657.917 28.204 654.969 27.132 652.691 24.988C650.547 22.71 649.475 19.762 649.475 16.144C649.475 12.526 650.547 9.64501 652.691 7.50101C654.969 5.22301 657.917 4.08401 661.535 4.08401C665.153 4.08401 668.034 5.22301 670.178 7.50101C672.456 9.64501 673.595 12.526 673.595 16.144C673.595 19.762 672.456 22.71 670.178 24.988C668.034 27.132 665.153 28.204 661.535 28.204ZM669.575 47.5V148H653.495V47.5H669.575Z" fill="#555555"/>
<path d="M748.492 45.49C758.006 45.49 766.381 47.567 773.617 51.721C780.987 55.875 786.749 61.905 790.903 69.811C795.057 77.583 797.134 86.896 797.134 97.75C797.134 108.604 795.057 117.984 790.903 125.89C786.749 133.662 780.987 139.625 773.617 143.779C766.381 147.933 758.006 150.01 748.492 150.01C739.112 150.01 730.737 147.933 723.367 143.779C715.997 139.625 710.235 133.662 706.081 125.89C701.927 117.984 699.85 108.604 699.85 97.75C699.85 86.896 701.927 77.583 706.081 69.811C710.235 61.905 715.997 55.875 723.367 51.721C730.737 47.567 739.112 45.49 748.492 45.49ZM748.492 59.359C741.658 59.359 735.829 60.9 731.005 63.982C726.181 67.064 722.429 71.486 719.749 77.248C717.203 82.876 715.93 89.71 715.93 97.75C715.93 105.656 717.203 112.49 719.749 118.252C722.429 124.014 726.181 128.436 731.005 131.518C735.829 134.6 741.658 136.141 748.492 136.141C755.326 136.141 761.155 134.6 765.979 131.518C770.803 128.436 774.488 124.014 777.034 118.252C779.714 112.49 781.054 105.656 781.054 97.75C781.054 89.71 779.714 82.876 777.034 77.248C774.488 71.486 770.803 67.064 765.979 63.982C761.155 60.9 755.326 59.359 748.492 59.359Z" fill="#555555"/>
</svg>
