<svg width="802" height="155" viewBox="0 0 802 155" fill="none" xmlns="http://www.w3.org/2000/svg">
<mask id="path-1-outside-1_104_6" maskUnits="userSpaceOnUse" x="0.708008" y="0.265137" width="801" height="154" fill="black">
<rect fill="white" x="0.708008" y="0.265137" width="801" height="154"/>
<path d="M49.541 17.3401C58.519 17.3401 66.291 19.0151 72.857 22.3651C79.557 25.5811 84.783 30.2041 88.535 36.2341C92.287 42.2641 94.163 49.4331 94.163 57.7411C94.163 66.0491 92.287 73.2181 88.535 79.2481C84.783 85.2781 79.557 89.9681 72.857 93.3181C66.291 96.5341 58.519 98.1421 49.541 98.1421H18.788V150H2.70801L2.70801 17.3401H49.541ZM47.129 83.0671C57.581 83.0671 65.219 80.9231 70.043 76.6351C74.867 72.2131 77.279 65.9151 77.279 57.7411C77.279 49.4331 74.867 43.1351 70.043 38.8471C65.219 34.5591 57.581 32.4151 47.129 32.4151H18.788V83.0671H47.129ZM162.214 47.4901C171.728 47.4901 180.103 49.5671 187.339 53.7211C194.709 57.8751 200.471 63.9051 204.625 71.8111C208.779 79.5831 210.856 88.8961 210.856 99.7501C210.856 110.604 208.779 119.984 204.625 127.89C200.471 135.662 194.709 141.625 187.339 145.779C180.103 149.933 171.728 152.01 162.214 152.01C152.834 152.01 144.459 149.933 137.089 145.779C129.719 141.625 123.957 135.662 119.803 127.89C115.649 119.984 113.572 110.604 113.572 99.7501C113.572 88.8961 115.649 79.5831 119.803 71.8111C123.957 63.9051 129.719 57.8751 137.089 53.7211C144.459 49.5671 152.834 47.4901 162.214 47.4901ZM162.214 61.3591C155.38 61.3591 149.551 62.9001 144.727 65.9821C139.903 69.0641 136.151 73.4861 133.471 79.2481C130.925 84.8761 129.652 91.7101 129.652 99.7501C129.652 107.656 130.925 114.49 133.471 120.252C136.151 126.014 139.903 130.436 144.727 133.518C149.551 136.6 155.38 138.141 162.214 138.141C169.048 138.141 174.877 136.6 179.701 133.518C184.525 130.436 188.21 126.014 190.756 120.252C193.436 114.49 194.776 107.656 194.776 99.7501C194.776 91.7101 193.436 84.8761 190.756 79.2481C188.21 73.4861 184.525 69.0641 179.701 65.9821C174.877 62.9001 169.048 61.3591 162.214 61.3591ZM241.129 150V49.5001H254.194L256.405 65.9821C259.219 59.8181 263.306 55.1951 268.666 52.1131C274.16 49.0311 280.793 47.4901 288.565 47.4901C290.307 47.4901 292.183 47.6241 294.193 47.8921C296.337 48.1601 298.146 48.6961 299.62 49.5001L296.806 64.1731C295.332 63.6371 293.724 63.2351 291.982 62.9671C290.24 62.6991 287.761 62.5651 284.545 62.5651C280.391 62.5651 276.17 63.7711 271.882 66.1831C267.728 68.5951 264.244 72.2801 261.43 77.2381C258.616 82.0621 257.209 88.2261 257.209 95.7301V150H241.129ZM340.81 20.9581V122.262C340.81 127.22 342.217 130.905 345.031 133.317C347.845 135.729 351.463 136.935 355.885 136.935C359.771 136.935 363.121 136.265 365.935 134.925C368.749 133.585 371.295 131.776 373.573 129.498L379.201 142.965C376.119 145.779 372.434 147.99 368.146 149.598C363.992 151.206 359.168 152.01 353.674 152.01C348.582 152.01 343.825 151.139 339.403 149.397C334.981 147.521 331.43 144.64 328.75 140.754C326.204 136.734 324.864 131.508 324.73 125.076V25.3801L340.81 20.9581ZM377.392 49.5001V63.3691H304.63V49.5001H377.392ZM438.178 2.26514C441.662 2.26514 444.945 2.66714 448.027 3.47113C451.109 4.27513 453.521 5.41413 455.263 6.88814L451.042 19.9531C449.434 18.8811 447.692 18.1441 445.816 17.7421C443.94 17.2061 441.863 16.9381 439.585 16.9381C433.823 16.9381 429.334 18.3451 426.118 21.1591C422.902 23.8391 421.294 28.1941 421.294 34.2241V150H405.214V32.6161C405.214 28.1941 405.884 24.1071 407.224 20.3551C408.564 16.6031 410.574 13.3871 413.254 10.7071C416.068 8.02713 419.552 5.95013 423.706 4.47613C427.86 3.00214 432.684 2.26514 438.178 2.26514ZM454.861 49.5001V63.3691H385.114V49.5001H454.861ZM515.142 47.4901C524.656 47.4901 533.031 49.5671 540.267 53.7211C547.637 57.8751 553.399 63.9051 557.553 71.8111C561.707 79.5831 563.784 88.8961 563.784 99.7501C563.784 110.604 561.707 119.984 557.553 127.89C553.399 135.662 547.637 141.625 540.267 145.779C533.031 149.933 524.656 152.01 515.142 152.01C505.762 152.01 497.387 149.933 490.017 145.779C482.647 141.625 476.885 135.662 472.731 127.89C468.577 119.984 466.5 110.604 466.5 99.7501C466.5 88.8961 468.577 79.5831 472.731 71.8111C476.885 63.9051 482.647 57.8751 490.017 53.7211C497.387 49.5671 505.762 47.4901 515.142 47.4901ZM515.142 61.3591C508.308 61.3591 502.479 62.9001 497.655 65.9821C492.831 69.0641 489.079 73.4861 486.399 79.2481C483.853 84.8761 482.58 91.7101 482.58 99.7501C482.58 107.656 483.853 114.49 486.399 120.252C489.079 126.014 492.831 130.436 497.655 133.518C502.479 136.6 508.308 138.141 515.142 138.141C521.976 138.141 527.805 136.6 532.629 133.518C537.453 130.436 541.138 126.014 543.684 120.252C546.364 114.49 547.704 107.656 547.704 99.7501C547.704 91.7101 546.364 84.8761 543.684 79.2481C541.138 73.4861 537.453 69.0641 532.629 65.9821C527.805 62.9001 521.976 61.3591 515.142 61.3591ZM609.332 3.27014V124.473C609.332 129.565 610.27 133.116 612.146 135.126C614.022 137.002 617.037 137.94 621.191 137.94C623.871 137.94 626.082 137.739 627.824 137.337C629.566 136.935 631.911 136.198 634.859 135.126L632.246 149.196C630.102 150.134 627.757 150.804 625.211 151.206C622.665 151.742 620.052 152.01 617.372 152.01C609.198 152.01 603.101 149.799 599.081 145.377C595.195 140.955 593.252 134.188 593.252 125.076V3.27014H609.332ZM663.535 30.2041C659.917 30.2041 656.969 29.1321 654.691 26.9881C652.547 24.7101 651.475 21.7621 651.475 18.1441C651.475 14.5261 652.547 11.6451 654.691 9.50113C656.969 7.22313 659.917 6.08414 663.535 6.08414C667.153 6.08414 670.034 7.22313 672.178 9.50113C674.456 11.6451 675.595 14.5261 675.595 18.1441C675.595 21.7621 674.456 24.7101 672.178 26.9881C670.034 29.1321 667.153 30.2041 663.535 30.2041ZM671.575 49.5001V150H655.495V49.5001H671.575ZM750.492 47.4901C760.006 47.4901 768.381 49.5671 775.617 53.7211C782.987 57.8751 788.749 63.9051 792.903 71.8111C797.057 79.5831 799.134 88.8961 799.134 99.7501C799.134 110.604 797.057 119.984 792.903 127.89C788.749 135.662 782.987 141.625 775.617 145.779C768.381 149.933 760.006 152.01 750.492 152.01C741.112 152.01 732.737 149.933 725.367 145.779C717.997 141.625 712.235 135.662 708.081 127.89C703.927 119.984 701.85 110.604 701.85 99.7501C701.85 88.8961 703.927 79.5831 708.081 71.8111C712.235 63.9051 717.997 57.8751 725.367 53.7211C732.737 49.5671 741.112 47.4901 750.492 47.4901ZM750.492 61.3591C743.658 61.3591 737.829 62.9001 733.005 65.9821C728.181 69.0641 724.429 73.4861 721.749 79.2481C719.203 84.8761 717.93 91.7101 717.93 99.7501C717.93 107.656 719.203 114.49 721.749 120.252C724.429 126.014 728.181 130.436 733.005 133.518C737.829 136.6 743.658 138.141 750.492 138.141C757.326 138.141 763.155 136.6 767.979 133.518C772.803 130.436 776.488 126.014 779.034 120.252C781.714 114.49 783.054 107.656 783.054 99.7501C783.054 91.7101 781.714 84.8761 779.034 79.2481C776.488 73.4861 772.803 69.0641 767.979 65.9821C763.155 62.9001 757.326 61.3591 750.492 61.3591Z"/>
</mask>
<path d="M49.541 17.3401C58.519 17.3401 66.291 19.0151 72.857 22.3651C79.557 25.5811 84.783 30.2041 88.535 36.2341C92.287 42.2641 94.163 49.4331 94.163 57.7411C94.163 66.0491 92.287 73.2181 88.535 79.2481C84.783 85.2781 79.557 89.9681 72.857 93.3181C66.291 96.5341 58.519 98.1421 49.541 98.1421H18.788V150H2.70801L2.70801 17.3401H49.541ZM47.129 83.0671C57.581 83.0671 65.219 80.9231 70.043 76.6351C74.867 72.2131 77.279 65.9151 77.279 57.7411C77.279 49.4331 74.867 43.1351 70.043 38.8471C65.219 34.5591 57.581 32.4151 47.129 32.4151H18.788V83.0671H47.129ZM162.214 47.4901C171.728 47.4901 180.103 49.5671 187.339 53.7211C194.709 57.8751 200.471 63.9051 204.625 71.8111C208.779 79.5831 210.856 88.8961 210.856 99.7501C210.856 110.604 208.779 119.984 204.625 127.89C200.471 135.662 194.709 141.625 187.339 145.779C180.103 149.933 171.728 152.01 162.214 152.01C152.834 152.01 144.459 149.933 137.089 145.779C129.719 141.625 123.957 135.662 119.803 127.89C115.649 119.984 113.572 110.604 113.572 99.7501C113.572 88.8961 115.649 79.5831 119.803 71.8111C123.957 63.9051 129.719 57.8751 137.089 53.7211C144.459 49.5671 152.834 47.4901 162.214 47.4901ZM162.214 61.3591C155.38 61.3591 149.551 62.9001 144.727 65.9821C139.903 69.0641 136.151 73.4861 133.471 79.2481C130.925 84.8761 129.652 91.7101 129.652 99.7501C129.652 107.656 130.925 114.49 133.471 120.252C136.151 126.014 139.903 130.436 144.727 133.518C149.551 136.6 155.38 138.141 162.214 138.141C169.048 138.141 174.877 136.6 179.701 133.518C184.525 130.436 188.21 126.014 190.756 120.252C193.436 114.49 194.776 107.656 194.776 99.7501C194.776 91.7101 193.436 84.8761 190.756 79.2481C188.21 73.4861 184.525 69.0641 179.701 65.9821C174.877 62.9001 169.048 61.3591 162.214 61.3591ZM241.129 150V49.5001H254.194L256.405 65.9821C259.219 59.8181 263.306 55.1951 268.666 52.1131C274.16 49.0311 280.793 47.4901 288.565 47.4901C290.307 47.4901 292.183 47.6241 294.193 47.8921C296.337 48.1601 298.146 48.6961 299.62 49.5001L296.806 64.1731C295.332 63.6371 293.724 63.2351 291.982 62.9671C290.24 62.6991 287.761 62.5651 284.545 62.5651C280.391 62.5651 276.17 63.7711 271.882 66.1831C267.728 68.5951 264.244 72.2801 261.43 77.2381C258.616 82.0621 257.209 88.2261 257.209 95.7301V150H241.129ZM340.81 20.9581V122.262C340.81 127.22 342.217 130.905 345.031 133.317C347.845 135.729 351.463 136.935 355.885 136.935C359.771 136.935 363.121 136.265 365.935 134.925C368.749 133.585 371.295 131.776 373.573 129.498L379.201 142.965C376.119 145.779 372.434 147.99 368.146 149.598C363.992 151.206 359.168 152.01 353.674 152.01C348.582 152.01 343.825 151.139 339.403 149.397C334.981 147.521 331.43 144.64 328.75 140.754C326.204 136.734 324.864 131.508 324.73 125.076V25.3801L340.81 20.9581ZM377.392 49.5001V63.3691H304.63V49.5001H377.392ZM438.178 2.26514C441.662 2.26514 444.945 2.66714 448.027 3.47113C451.109 4.27513 453.521 5.41413 455.263 6.88814L451.042 19.9531C449.434 18.8811 447.692 18.1441 445.816 17.7421C443.94 17.2061 441.863 16.9381 439.585 16.9381C433.823 16.9381 429.334 18.3451 426.118 21.1591C422.902 23.8391 421.294 28.1941 421.294 34.2241V150H405.214V32.6161C405.214 28.1941 405.884 24.1071 407.224 20.3551C408.564 16.6031 410.574 13.3871 413.254 10.7071C416.068 8.02713 419.552 5.95013 423.706 4.47613C427.86 3.00214 432.684 2.26514 438.178 2.26514ZM454.861 49.5001V63.3691H385.114V49.5001H454.861ZM515.142 47.4901C524.656 47.4901 533.031 49.5671 540.267 53.7211C547.637 57.8751 553.399 63.9051 557.553 71.8111C561.707 79.5831 563.784 88.8961 563.784 99.7501C563.784 110.604 561.707 119.984 557.553 127.89C553.399 135.662 547.637 141.625 540.267 145.779C533.031 149.933 524.656 152.01 515.142 152.01C505.762 152.01 497.387 149.933 490.017 145.779C482.647 141.625 476.885 135.662 472.731 127.89C468.577 119.984 466.5 110.604 466.5 99.7501C466.5 88.8961 468.577 79.5831 472.731 71.8111C476.885 63.9051 482.647 57.8751 490.017 53.7211C497.387 49.5671 505.762 47.4901 515.142 47.4901ZM515.142 61.3591C508.308 61.3591 502.479 62.9001 497.655 65.9821C492.831 69.0641 489.079 73.4861 486.399 79.2481C483.853 84.8761 482.58 91.7101 482.58 99.7501C482.58 107.656 483.853 114.49 486.399 120.252C489.079 126.014 492.831 130.436 497.655 133.518C502.479 136.6 508.308 138.141 515.142 138.141C521.976 138.141 527.805 136.6 532.629 133.518C537.453 130.436 541.138 126.014 543.684 120.252C546.364 114.49 547.704 107.656 547.704 99.7501C547.704 91.7101 546.364 84.8761 543.684 79.2481C541.138 73.4861 537.453 69.0641 532.629 65.9821C527.805 62.9001 521.976 61.3591 515.142 61.3591ZM609.332 3.27014V124.473C609.332 129.565 610.27 133.116 612.146 135.126C614.022 137.002 617.037 137.94 621.191 137.94C623.871 137.94 626.082 137.739 627.824 137.337C629.566 136.935 631.911 136.198 634.859 135.126L632.246 149.196C630.102 150.134 627.757 150.804 625.211 151.206C622.665 151.742 620.052 152.01 617.372 152.01C609.198 152.01 603.101 149.799 599.081 145.377C595.195 140.955 593.252 134.188 593.252 125.076V3.27014H609.332ZM663.535 30.2041C659.917 30.2041 656.969 29.1321 654.691 26.9881C652.547 24.7101 651.475 21.7621 651.475 18.1441C651.475 14.5261 652.547 11.6451 654.691 9.50113C656.969 7.22313 659.917 6.08414 663.535 6.08414C667.153 6.08414 670.034 7.22313 672.178 9.50113C674.456 11.6451 675.595 14.5261 675.595 18.1441C675.595 21.7621 674.456 24.7101 672.178 26.9881C670.034 29.1321 667.153 30.2041 663.535 30.2041ZM671.575 49.5001V150H655.495V49.5001H671.575ZM750.492 47.4901C760.006 47.4901 768.381 49.5671 775.617 53.7211C782.987 57.8751 788.749 63.9051 792.903 71.8111C797.057 79.5831 799.134 88.8961 799.134 99.7501C799.134 110.604 797.057 119.984 792.903 127.89C788.749 135.662 782.987 141.625 775.617 145.779C768.381 149.933 760.006 152.01 750.492 152.01C741.112 152.01 732.737 149.933 725.367 145.779C717.997 141.625 712.235 135.662 708.081 127.89C703.927 119.984 701.85 110.604 701.85 99.7501C701.85 88.8961 703.927 79.5831 708.081 71.8111C712.235 63.9051 717.997 57.8751 725.367 53.7211C732.737 49.5671 741.112 47.4901 750.492 47.4901ZM750.492 61.3591C743.658 61.3591 737.829 62.9001 733.005 65.9821C728.181 69.0641 724.429 73.4861 721.749 79.2481C719.203 84.8761 717.93 91.7101 717.93 99.7501C717.93 107.656 719.203 114.49 721.749 120.252C724.429 126.014 728.181 130.436 733.005 133.518C737.829 136.6 743.658 138.141 750.492 138.141C757.326 138.141 763.155 136.6 767.979 133.518C772.803 130.436 776.488 126.014 779.034 120.252C781.714 114.49 783.054 107.656 783.054 99.7501C783.054 91.7101 781.714 84.8761 779.034 79.2481C776.488 73.4861 772.803 69.0641 767.979 65.9821C763.155 62.9001 757.326 61.3591 750.492 61.3591Z" stroke="#555555" stroke-width="4" mask="url(#path-1-outside-1_104_6)"/>
</svg>
