<svg width="541" height="91" viewBox="0 0 541 91" fill="none" xmlns="http://www.w3.org/2000/svg">
<mask id="path-1-outside-1_78_248" maskUnits="userSpaceOnUse" x="-2" y="-2" width="545" height="95" fill="black">
<rect fill="white" x="-2" y="-2" width="545" height="95"/>
<path d="M69.184 6.64V70H57.184V36.976L57.856 18.448H57.664L40.096 70H29.248L11.776 18.448H11.584L12.256 36.976V70H0.256L0.256 6.64H19.456L30.88 41.2L34.912 55.504H35.104L39.232 41.296L50.56 6.64H69.184ZM106.122 70.96C101.066 70.96 96.6495 69.968 92.8735 67.984C89.1615 66 86.2815 63.152 84.2335 59.44C82.1855 55.728 81.1615 51.248 81.1615 46C81.1615 40.752 82.1855 36.272 84.2335 32.56C86.2815 28.848 89.1295 26 92.7775 24.016C96.4895 22.032 100.714 21.04 105.45 21.04C110.314 21.04 114.442 22.032 117.834 24.016C121.226 25.936 123.818 28.592 125.61 31.984C127.402 35.312 128.298 39.12 128.298 43.408C128.298 44.688 128.266 45.904 128.202 47.056C128.138 48.208 128.042 49.232 127.914 50.128L89.6095 50.128V41.008H122.154L115.818 43.312C115.818 39.28 114.89 36.176 113.034 34C111.242 31.824 108.682 30.736 105.354 30.736C102.922 30.736 100.81 31.312 99.0175 32.464C97.2895 33.616 95.9775 35.344 95.0815 37.648C94.1855 39.888 93.7375 42.736 93.7375 46.192C93.7375 49.584 94.2175 52.4 95.1775 54.64C96.2015 56.816 97.6095 58.448 99.4015 59.536C101.258 60.624 103.466 61.168 106.026 61.168C108.842 61.168 111.114 60.624 112.842 59.536C114.57 58.448 115.914 56.944 116.874 55.024L127.338 59.056C126.314 61.552 124.746 63.696 122.634 65.488C120.586 67.28 118.122 68.656 115.242 69.616C112.426 70.512 109.386 70.96 106.122 70.96ZM158.643 70.96C153.779 70.96 149.331 70.096 145.299 68.368C141.331 66.64 138.099 64.208 135.603 61.072L143.187 53.392C144.723 55.696 146.771 57.584 149.331 59.056C151.891 60.528 154.931 61.264 158.451 61.264C160.947 61.264 162.931 60.912 164.403 60.208C165.939 59.44 166.707 58.256 166.707 56.656C166.707 55.632 166.355 54.768 165.651 54.064C164.947 53.296 163.539 52.688 161.427 52.24L152.979 50.512C147.411 49.36 143.443 47.632 141.075 45.328C138.771 42.96 137.619 39.92 137.619 36.208C137.619 33.584 138.387 31.12 139.923 28.816C141.523 26.512 143.891 24.656 147.027 23.248C150.163 21.776 154.067 21.04 158.739 21.04C163.539 21.04 167.699 21.808 171.219 23.344C174.803 24.816 177.619 27.024 179.667 29.968L171.795 37.648C170.387 35.408 168.531 33.712 166.227 32.56C163.987 31.344 161.619 30.736 159.123 30.736C157.331 30.736 155.795 30.928 154.515 31.312C153.235 31.696 152.275 32.24 151.635 32.944C150.995 33.584 150.675 34.416 150.675 35.44C150.675 36.464 151.123 37.36 152.019 38.128C152.915 38.832 154.547 39.44 156.915 39.952L166.707 41.968C171.443 42.928 174.835 44.56 176.883 46.864C178.931 49.104 179.955 51.824 179.955 55.024C179.955 58.096 179.123 60.848 177.459 63.28C175.859 65.648 173.459 67.536 170.259 68.944C167.123 70.288 163.251 70.96 158.643 70.96ZM219.787 90.16V22H231.595L232.459 37.264L230.827 35.536C231.403 32.72 232.459 30.224 233.995 28.048C235.595 25.872 237.611 24.176 240.043 22.96C242.475 21.68 245.195 21.04 248.203 21.04C252.107 21.04 255.595 22.032 258.667 24.016C261.739 26 264.139 28.848 265.867 32.56C267.659 36.208 268.555 40.656 268.555 45.904C268.555 51.152 267.659 55.664 265.867 59.44C264.075 63.152 261.611 66 258.475 67.984C255.403 69.968 251.883 70.96 247.915 70.96C243.691 70.96 240.171 69.776 237.355 67.408C234.603 65.04 232.715 62.064 231.691 58.48L232.939 56.464V90.16H219.787ZM244.075 60.88C247.595 60.88 250.347 59.632 252.331 57.136C254.379 54.576 255.403 50.864 255.403 46C255.403 41.136 254.411 37.456 252.427 34.96C250.507 32.4 247.787 31.12 244.267 31.12C242.027 31.12 240.043 31.728 238.315 32.944C236.651 34.096 235.339 35.792 234.379 38.032C233.419 40.208 232.939 42.864 232.939 46C232.939 49.072 233.387 51.728 234.283 53.968C235.179 56.208 236.459 57.936 238.123 59.152C239.851 60.304 241.835 60.88 244.075 60.88ZM279.975 70V22H291.399L292.263 31.408C293.543 28.08 295.399 25.52 297.831 23.728C300.327 21.936 303.431 21.04 307.143 21.04C308.231 21.04 309.223 21.136 310.119 21.328C311.015 21.52 311.751 21.776 312.327 22.096L310.791 33.136C310.151 32.88 309.351 32.688 308.391 32.56C307.495 32.432 306.311 32.368 304.839 32.368C302.919 32.368 301.063 32.848 299.271 33.808C297.479 34.704 296.007 36.112 294.855 38.032C293.703 39.888 293.127 42.256 293.127 45.136V70H279.975ZM341.425 21.04C346.289 21.04 350.545 22.032 354.193 24.016C357.905 26 360.785 28.848 362.833 32.56C364.945 36.272 366.001 40.752 366.001 46C366.001 51.184 364.945 55.664 362.833 59.44C360.785 63.152 357.905 66 354.193 67.984C350.545 69.968 346.289 70.96 341.425 70.96C336.625 70.96 332.369 69.968 328.657 67.984C324.945 66 322.033 63.152 319.921 59.44C317.873 55.664 316.849 51.184 316.849 46C316.849 40.752 317.873 36.272 319.921 32.56C322.033 28.848 324.945 26 328.657 24.016C332.369 22.032 336.625 21.04 341.425 21.04ZM341.425 30.832C338.993 30.832 336.913 31.408 335.185 32.56C333.521 33.648 332.241 35.312 331.345 37.552C330.449 39.792 330.001 42.608 330.001 46C330.001 49.392 330.449 52.208 331.345 54.448C332.241 56.688 333.521 58.384 335.185 59.536C336.913 60.624 338.993 61.168 341.425 61.168C343.793 61.168 345.809 60.624 347.473 59.536C349.201 58.384 350.513 56.688 351.409 54.448C352.305 52.208 352.753 49.392 352.753 46C352.753 42.608 352.305 39.792 351.409 37.552C350.513 35.312 349.201 33.648 347.473 32.56C345.809 31.408 343.793 30.832 341.425 30.832ZM383.63 15.088C380.878 15.088 378.83 14.512 377.486 13.36C376.142 12.144 375.47 10.384 375.47 8.08C375.47 5.712 376.142 3.952 377.486 2.8C378.83 1.584 380.878 0.975996 383.63 0.975996C386.382 0.975996 388.43 1.584 389.774 2.8C391.118 3.952 391.79 5.712 391.79 8.08C391.79 10.384 391.118 12.144 389.774 13.36C388.43 14.512 386.382 15.088 383.63 15.088ZM390.158 22V73.552C390.158 77.712 389.39 81.04 387.854 83.536C386.382 86.032 384.366 87.824 381.806 88.912C379.246 90.064 376.334 90.64 373.07 90.64C370.702 90.64 368.558 90.352 366.638 89.776C364.718 89.264 363.054 88.528 361.646 87.568L363.662 78.16C364.43 78.8 365.39 79.344 366.542 79.792C367.694 80.24 368.974 80.464 370.382 80.464C372.366 80.464 373.966 79.856 375.182 78.64C376.398 77.424 377.006 75.312 377.006 72.304V22H390.158ZM426.372 70.96C421.316 70.96 416.9 69.968 413.124 67.984C409.412 66 406.532 63.152 404.484 59.44C402.436 55.728 401.412 51.248 401.412 46C401.412 40.752 402.436 36.272 404.484 32.56C406.532 28.848 409.38 26 413.028 24.016C416.74 22.032 420.964 21.04 425.7 21.04C430.564 21.04 434.692 22.032 438.084 24.016C441.476 25.936 444.068 28.592 445.86 31.984C447.652 35.312 448.548 39.12 448.548 43.408C448.548 44.688 448.516 45.904 448.452 47.056C448.388 48.208 448.292 49.232 448.164 50.128H409.859V41.008L442.404 41.008L436.068 43.312C436.068 39.28 435.14 36.176 433.284 34C431.492 31.824 428.932 30.736 425.604 30.736C423.172 30.736 421.06 31.312 419.268 32.464C417.54 33.616 416.228 35.344 415.332 37.648C414.436 39.888 413.988 42.736 413.988 46.192C413.988 49.584 414.468 52.4 415.428 54.64C416.452 56.816 417.86 58.448 419.652 59.536C421.508 60.624 423.716 61.168 426.276 61.168C429.092 61.168 431.364 60.624 433.092 59.536C434.82 58.448 436.164 56.944 437.124 55.024L447.588 59.056C446.564 61.552 444.996 63.696 442.884 65.488C440.836 67.28 438.372 68.656 435.492 69.616C432.676 70.512 429.636 70.96 426.372 70.96ZM475.842 7.31199V54.352C475.842 56.656 476.418 58.352 477.57 59.44C478.786 60.464 480.418 60.976 482.466 60.976C484.066 60.976 485.474 60.752 486.69 60.304C487.906 59.792 488.994 59.12 489.954 58.288L492.066 67.024C490.53 68.24 488.61 69.2 486.306 69.904C484.002 70.608 481.57 70.96 479.01 70.96C475.81 70.96 472.962 70.48 470.466 69.52C468.034 68.56 466.114 67.024 464.706 64.912C463.362 62.8 462.69 59.984 462.69 56.464V10.96L475.842 7.31199ZM491.202 22V31.792H453.858V22H491.202ZM519.3 70.96C514.436 70.96 509.988 70.096 505.956 68.368C501.988 66.64 498.756 64.208 496.26 61.072L503.844 53.392C505.38 55.696 507.428 57.584 509.988 59.056C512.548 60.528 515.588 61.264 519.108 61.264C521.604 61.264 523.588 60.912 525.06 60.208C526.596 59.44 527.364 58.256 527.364 56.656C527.364 55.632 527.012 54.768 526.308 54.064C525.604 53.296 524.196 52.688 522.084 52.24L513.636 50.512C508.068 49.36 504.1 47.632 501.732 45.328C499.428 42.96 498.276 39.92 498.276 36.208C498.276 33.584 499.044 31.12 500.58 28.816C502.18 26.512 504.548 24.656 507.684 23.248C510.82 21.776 514.724 21.04 519.396 21.04C524.196 21.04 528.356 21.808 531.876 23.344C535.46 24.816 538.276 27.024 540.324 29.968L532.452 37.648C531.044 35.408 529.188 33.712 526.884 32.56C524.644 31.344 522.276 30.736 519.78 30.736C517.988 30.736 516.452 30.928 515.172 31.312C513.892 31.696 512.932 32.24 512.292 32.944C511.652 33.584 511.332 34.416 511.332 35.44C511.332 36.464 511.78 37.36 512.676 38.128C513.572 38.832 515.204 39.44 517.572 39.952L527.364 41.968C532.1 42.928 535.492 44.56 537.54 46.864C539.588 49.104 540.612 51.824 540.612 55.024C540.612 58.096 539.78 60.848 538.116 63.28C536.516 65.648 534.116 67.536 530.916 68.944C527.78 70.288 523.908 70.96 519.3 70.96Z"/>
</mask>
<path d="M69.184 6.64H71.184V4.64H69.184V6.64ZM69.184 70V72H71.184V70H69.184ZM57.184 70H55.184V72H57.184V70ZM57.184 36.976L55.1853 36.9035L55.184 36.9397V36.976L57.184 36.976ZM57.856 18.448L59.8547 18.5205L59.9299 16.448H57.856V18.448ZM57.664 18.448V16.448H56.2326L55.7709 17.8029L57.664 18.448ZM40.096 70V72H41.5274L41.9891 70.6451L40.096 70ZM29.248 70L27.3538 70.642L27.8141 72H29.248V70ZM11.776 18.448L13.6702 17.806L13.2099 16.448H11.776V18.448ZM11.584 18.448V16.448H9.51015L9.58532 18.5205L11.584 18.448ZM12.256 36.976H14.256V36.9397L14.2547 36.9035L12.256 36.976ZM12.256 70V72H14.256V70H12.256ZM0.256001 70H-1.744V72H0.256001V70ZM0.256001 6.64V4.64H-1.744L-1.744 6.64H0.256001ZM19.456 6.64L21.3549 6.01229L20.9013 4.64H19.456V6.64ZM30.88 41.2L32.805 40.6574L32.7929 40.6145L32.7789 40.5723L30.88 41.2ZM34.912 55.504L32.987 56.0466L33.3978 57.504H34.912V55.504ZM35.104 55.504V57.504H36.6056L37.0246 56.062L35.104 55.504ZM39.232 41.296L37.331 40.6746L37.3207 40.7061L37.3114 40.738L39.232 41.296ZM50.56 6.64V4.64H49.1096L48.659 6.01861L50.56 6.64ZM67.184 6.64V70H71.184V6.64H67.184ZM69.184 68H57.184V72H69.184V68ZM59.184 70V36.976L55.184 36.976L55.184 70H59.184ZM59.1827 37.0485L59.8547 18.5205L55.8573 18.3755L55.1853 36.9035L59.1827 37.0485ZM57.856 16.448H57.664V20.448H57.856V16.448ZM55.7709 17.8029L38.2029 69.3549L41.9891 70.6451L59.5571 19.0931L55.7709 17.8029ZM40.096 68H29.248V72H40.096V68ZM31.1422 69.358L13.6702 17.806L9.88183 19.09L27.3538 70.642L31.1422 69.358ZM11.776 16.448H11.584V20.448H11.776V16.448ZM9.58532 18.5205L10.2573 37.0485L14.2547 36.9035L13.5827 18.3755L9.58532 18.5205ZM10.256 36.976V70H14.256V36.976H10.256ZM12.256 68H0.256001V72H12.256V68ZM2.256 70L2.256 6.64H-1.744L-1.744 70H2.256ZM0.256001 8.64H19.456V4.64H0.256001V8.64ZM17.5571 7.2677L28.9811 41.8277L32.7789 40.5723L21.3549 6.01229L17.5571 7.2677ZM28.955 41.7426L32.987 56.0466L36.837 54.9614L32.805 40.6574L28.955 41.7426ZM34.912 57.504H35.104V53.504H34.912V57.504ZM37.0246 56.062L41.1526 41.854L37.3114 40.738L33.1834 54.946L37.0246 56.062ZM41.133 41.9174L52.461 7.26138L48.659 6.01861L37.331 40.6746L41.133 41.9174ZM50.56 8.64H69.184V4.64H50.56V8.64ZM92.8735 67.984L91.9307 69.7479L91.937 69.7512L91.9432 69.7545L92.8735 67.984ZM84.2335 59.44L85.9847 58.4738L84.2335 59.44ZM84.2335 32.56L85.9847 33.5262L84.2335 32.56ZM92.7775 24.016L91.8347 22.2521L91.8283 22.2556L91.822 22.259L92.7775 24.016ZM117.834 24.016L116.824 25.7424L116.836 25.7495L116.848 25.7565L117.834 24.016ZM125.609 31.984L123.841 32.9182L123.845 32.9252L123.849 32.9322L125.609 31.984ZM127.913 50.128V52.128H129.648L129.893 50.4108L127.913 50.128ZM89.6095 50.128H87.6095V52.128H89.6095V50.128ZM89.6095 41.008V39.008H87.6095V41.008H89.6095ZM122.154 41.008L122.837 42.8876L122.154 39.008V41.008ZM115.818 43.312H113.818V46.1674L116.501 45.1916L115.818 43.312ZM113.034 34L111.49 35.2714L111.501 35.2847L111.512 35.2979L113.034 34ZM99.0175 32.464L97.936 30.7816L97.922 30.7907L97.9081 30.7999L99.0175 32.464ZM95.0815 37.648L96.9385 38.3908L96.942 38.3819L96.9455 38.3729L95.0815 37.648ZM95.1775 54.64L93.3392 55.4278L93.353 55.46L93.3679 55.4916L95.1775 54.64ZM99.4015 59.536L98.3635 61.2456L98.3767 61.2536L98.3901 61.2614L99.4015 59.536ZM116.874 55.024L117.593 53.1578L115.897 52.5045L115.085 54.1296L116.874 55.024ZM127.338 59.056L129.188 59.8151L129.963 57.9245L128.057 57.1898L127.338 59.056ZM122.633 65.488L121.34 63.963L121.328 63.9728L121.316 63.9828L122.633 65.488ZM115.242 69.616L115.848 71.5219L115.861 71.5177L115.874 71.5134L115.242 69.616ZM106.122 68.96C101.33 68.96 97.2441 68.0212 93.8038 66.2135L91.9432 69.7545C96.0549 71.9148 100.801 72.96 106.122 72.96V68.96ZM93.8163 66.2201C90.4478 64.4197 87.8474 61.85 85.9847 58.4738L82.4823 60.4062C84.7156 64.454 87.8752 67.5803 91.9307 69.7479L93.8163 66.2201ZM85.9847 58.4738C84.1344 55.1202 83.1615 50.9895 83.1615 46H79.1615C79.1615 51.5065 80.2366 56.3358 82.4823 60.4062L85.9847 58.4738ZM83.1615 46C83.1615 41.0105 84.1344 36.8798 85.9847 33.5262L82.4823 31.5938C80.2366 35.6642 79.1615 40.4935 79.1615 46H83.1615ZM85.9847 33.5262C87.8524 30.1409 90.4276 27.5707 93.733 25.773L91.822 22.259C87.8314 24.4293 84.7106 27.5551 82.4823 31.5938L85.9847 33.5262ZM93.7203 25.7799C97.1075 23.9694 101.001 23.04 105.45 23.04V19.04C100.426 19.04 95.8715 20.0945 91.8347 22.2521L93.7203 25.7799ZM105.45 23.04C110.042 23.04 113.803 23.9756 116.824 25.7424L118.843 22.2896C115.08 20.0884 110.585 19.04 105.45 19.04V23.04ZM116.848 25.7565C119.913 27.4913 122.231 29.87 123.841 32.9182L127.378 31.0498C125.404 27.314 122.538 24.3806 118.819 22.2755L116.848 25.7565ZM123.849 32.9322C125.464 35.9315 126.298 39.4059 126.298 43.408H130.298C130.298 38.8341 129.339 34.6925 127.37 31.0358L123.849 32.9322ZM126.298 43.408C126.298 44.6549 126.266 45.8337 126.205 46.9451L130.198 47.1669C130.265 45.9743 130.298 44.7211 130.298 43.408H126.298ZM126.205 46.9451C126.143 48.0543 126.052 49.0191 125.934 49.8452L129.893 50.4108C130.031 49.4449 130.132 48.3617 130.198 47.1669L126.205 46.9451ZM127.913 48.128L89.6095 48.128V52.128L127.913 52.128V48.128ZM91.6095 50.128V41.008H87.6095V50.128H91.6095ZM89.6095 43.008H122.154V39.008H89.6095V43.008ZM121.47 39.1284L115.134 41.4324L116.501 45.1916L122.837 42.8876L121.47 39.1284ZM117.818 43.312C117.818 38.9971 116.825 35.3638 114.555 32.7021L111.512 35.2979C112.954 36.9882 113.818 39.5629 113.818 43.312H117.818ZM114.577 32.7286C112.335 30.006 109.159 28.736 105.354 28.736V32.736C108.204 32.736 110.148 33.642 111.49 35.2714L114.577 32.7286ZM105.354 28.736C102.594 28.736 100.094 29.394 97.936 30.7816L100.099 34.1464C101.525 33.23 103.249 32.736 105.354 32.736V28.736ZM97.9081 30.7999C95.7769 32.2207 94.2335 34.3105 93.2175 36.9231L96.9455 38.3729C97.7215 36.3775 98.8021 35.0113 100.127 34.1281L97.9081 30.7999ZM93.2245 36.9052C92.2026 39.4601 91.7375 42.5828 91.7375 46.192H95.7375C95.7375 42.8892 96.1684 40.3159 96.9385 38.3908L93.2245 36.9052ZM91.7375 46.192C91.7375 49.7559 92.2394 52.8617 93.3392 55.4278L97.0158 53.8522C96.1956 51.9383 95.7375 49.4121 95.7375 46.192H91.7375ZM93.3679 55.4916C94.5339 57.9694 96.1881 59.9248 98.3635 61.2456L100.439 57.8264C99.0309 56.9712 97.8691 55.6626 96.9871 53.7884L93.3679 55.4916ZM98.3901 61.2614C100.606 62.5607 103.178 63.168 106.025 63.168V59.168C103.753 59.168 101.909 58.6873 100.413 57.8106L98.3901 61.2614ZM106.025 63.168C109.081 63.168 111.761 62.5799 113.907 61.2285L111.776 57.8435C110.466 58.6681 108.602 59.168 106.025 59.168V63.168ZM113.907 61.2285C115.961 59.9354 117.548 58.1481 118.662 55.9184L115.085 54.1296C114.279 55.7399 113.178 56.9606 111.776 57.8435L113.907 61.2285ZM116.154 56.8903L126.618 60.9222L128.057 57.1898L117.593 53.1578L116.154 56.8903ZM125.487 58.2969C124.588 60.4887 123.214 62.3724 121.34 63.963L123.927 67.013C126.277 65.0196 128.039 62.6153 129.188 59.8151L125.487 58.2969ZM121.316 63.9828C119.49 65.5808 117.266 66.8329 114.609 67.7186L115.874 71.5134C118.977 70.4791 121.681 68.9792 123.951 66.9932L121.316 63.9828ZM114.635 67.7102C112.035 68.5376 109.201 68.96 106.122 68.96V72.96C109.57 72.96 112.816 72.4864 115.848 71.5219L114.635 67.7102ZM145.299 68.368L144.501 70.2017L144.511 70.2063L145.299 68.368ZM135.603 61.072L134.18 59.6667L132.933 60.9292L134.038 62.3175L135.603 61.072ZM143.187 53.392L144.851 52.2826L143.489 50.2397L141.764 51.9867L143.187 53.392ZM149.331 59.056L150.328 57.3222L149.331 59.056ZM164.403 60.208L165.266 62.0123L165.282 62.0047L165.298 61.9969L164.403 60.208ZM165.651 54.064L164.177 55.4155L164.206 55.4475L164.237 55.4782L165.651 54.064ZM161.427 52.24L161.842 50.2835L161.835 50.282L161.828 50.2806L161.427 52.24ZM152.979 50.512L152.574 52.4705L152.578 52.4714L152.979 50.512ZM141.075 45.328L139.642 46.7227L139.661 46.7423L139.681 46.7615L141.075 45.328ZM139.923 28.816L138.281 27.6752L138.27 27.6908L138.259 27.7066L139.923 28.816ZM147.027 23.248L147.846 25.0725L147.862 25.0656L147.877 25.0585L147.027 23.248ZM171.219 23.344L170.419 25.1771L170.439 25.1858L170.459 25.194L171.219 23.344ZM179.667 29.968L181.064 31.3996L182.276 30.2165L181.309 28.8259L179.667 29.968ZM171.795 37.648L170.102 38.7123L171.42 40.8086L173.192 39.0796L171.795 37.648ZM166.227 32.56L165.273 34.3177L165.303 34.3338L165.333 34.3489L166.227 32.56ZM154.515 31.312L153.941 29.3963L154.515 31.312ZM151.635 32.944L153.049 34.3582L153.083 34.3246L153.115 34.2893L151.635 32.944ZM152.019 38.128L150.718 39.6465L150.75 39.6743L150.784 39.7006L152.019 38.128ZM156.915 39.952L156.493 41.9068L156.502 41.9089L156.512 41.9109L156.915 39.952ZM166.707 41.968L166.304 43.9269L166.31 43.9281L166.707 41.968ZM176.883 46.864L175.388 48.1927L175.398 48.2032L175.407 48.2135L176.883 46.864ZM177.459 63.28L175.809 62.1506L175.802 62.1603L177.459 63.28ZM170.259 68.944L171.047 70.7823L171.056 70.7785L171.065 70.7746L170.259 68.944ZM158.643 68.96C154.021 68.96 149.844 68.14 146.087 66.5297L144.511 70.2063C148.818 72.052 153.538 72.96 158.643 72.96V68.96ZM146.098 66.5343C142.405 64.9261 139.445 62.6866 137.168 59.8265L134.038 62.3175C136.754 65.7294 140.258 68.3539 144.501 70.2017L146.098 66.5343ZM137.026 62.4773L144.61 54.7973L141.764 51.9867L134.18 59.6667L137.026 62.4773ZM141.523 54.5014C143.242 57.0791 145.525 59.1744 148.334 60.7898L150.328 57.3222C148.018 55.9936 146.205 54.3129 144.851 52.2826L141.523 54.5014ZM148.334 60.7898C151.251 62.467 154.649 63.264 158.451 63.264V59.264C155.214 59.264 152.531 58.589 150.328 57.3222L148.334 60.7898ZM158.451 63.264C161.103 63.264 163.42 62.8952 165.266 62.0123L163.54 58.4037C162.443 58.9288 160.792 59.264 158.451 59.264V63.264ZM165.298 61.9969C166.316 61.4879 167.193 60.7823 167.809 59.8324C168.431 58.8744 168.707 57.7891 168.707 56.656H164.707C164.707 57.1229 164.6 57.4296 164.453 57.6556C164.301 57.8897 164.027 58.1601 163.509 58.4191L165.298 61.9969ZM168.707 56.656C168.707 55.1185 168.156 53.7407 167.065 52.6498L164.237 55.4782C164.554 55.7953 164.707 56.1455 164.707 56.656H168.707ZM167.126 52.7125C165.966 51.4481 164.005 50.7422 161.842 50.2835L161.012 54.1965C163.074 54.6338 163.928 55.1439 164.177 55.4155L167.126 52.7125ZM161.828 50.2806L153.38 48.5526L152.578 52.4714L161.026 54.1994L161.828 50.2806ZM153.384 48.5535C147.952 47.4296 144.432 45.8033 142.47 43.8945L139.681 46.7615C142.455 49.4607 146.87 51.2904 152.574 52.4705L153.384 48.5535ZM142.509 43.9333C140.614 41.986 139.619 39.469 139.619 36.208H135.619C135.619 40.371 136.928 43.934 139.642 46.7227L142.509 43.9333ZM139.619 36.208C139.619 34.0012 140.258 31.92 141.587 29.9254L138.259 27.7066C136.517 30.32 135.619 33.1668 135.619 36.208H139.619ZM141.566 29.9568C142.917 28.012 144.967 26.3652 147.846 25.0725L146.208 21.4235C142.815 22.9468 140.13 25.012 138.281 27.6752L141.566 29.9568ZM147.877 25.0585C150.671 23.7468 154.264 23.04 158.739 23.04V19.04C153.871 19.04 149.655 19.8051 146.177 21.4375L147.877 25.0585ZM158.739 23.04C163.331 23.04 167.206 23.775 170.419 25.1771L172.019 21.5109C168.192 19.841 163.748 19.04 158.739 19.04V23.04ZM170.459 25.194C173.717 26.5321 176.215 28.5075 178.025 31.1101L181.309 28.8259C179.024 25.5405 175.889 23.0999 171.979 21.494L170.459 25.194ZM178.271 28.5364L170.399 36.2164L173.192 39.0796L181.064 31.3996L178.271 28.5364ZM173.489 36.5837C171.891 34.0424 169.762 32.0915 167.122 30.7711L165.333 34.3489C167.3 35.3324 168.883 36.7736 170.102 38.7123L173.489 36.5837ZM167.181 30.8023C164.655 29.4308 161.96 28.736 159.123 28.736V32.736C161.279 32.736 163.32 33.2572 165.273 34.3177L167.181 30.8023ZM159.123 28.736C157.198 28.736 155.458 28.9411 153.941 29.3963L155.09 33.2276C156.132 32.9149 157.464 32.736 159.123 32.736V28.736ZM153.941 29.3963C152.447 29.8445 151.119 30.5384 150.155 31.5987L153.115 34.2893C153.431 33.9416 154.024 33.5475 155.09 33.2276L153.941 29.3963ZM150.221 31.5298C149.155 32.5953 148.675 33.9615 148.675 35.44H152.675C152.675 34.8705 152.835 34.5727 153.049 34.3582L150.221 31.5298ZM148.675 35.44C148.675 37.14 149.454 38.5629 150.718 39.6465L153.321 36.6095C152.793 36.1571 152.675 35.788 152.675 35.44H148.675ZM150.784 39.7006C152.064 40.7068 154.089 41.3872 156.493 41.9068L157.338 37.9972C155.005 37.4928 153.766 36.9572 153.255 36.5554L150.784 39.7006ZM156.512 41.9109L166.304 43.9269L167.111 40.0091L157.319 37.9931L156.512 41.9109ZM166.31 43.9281C170.846 44.8477 173.75 46.35 175.388 48.1927L178.378 45.5353C175.92 42.77 172.04 41.0083 167.105 40.0079L166.31 43.9281ZM175.407 48.2135C177.099 50.0635 177.955 52.2937 177.955 55.024H181.955C181.955 51.3543 180.764 48.1445 178.359 45.5145L175.407 48.2135ZM177.955 55.024C177.955 57.7111 177.235 60.066 175.809 62.1506L179.11 64.4094C181.012 61.63 181.955 58.4809 181.955 55.024H177.955ZM175.802 62.1603C174.456 64.1524 172.386 65.8233 169.454 67.1134L171.065 70.7746C174.533 69.2487 177.262 67.1436 179.116 64.3997L175.802 62.1603ZM169.471 67.1057C166.655 68.3127 163.07 68.96 158.643 68.96V72.96C163.433 72.96 167.591 72.2634 171.047 70.7823L169.471 67.1057ZM219.787 90.16H217.787V92.16H219.787V90.16ZM219.787 22V20H217.787V22H219.787ZM231.595 22L233.592 21.887L233.485 20H231.595V22ZM232.459 37.264L231.005 38.6372L234.765 42.6188L234.456 37.151L232.459 37.264ZM230.827 35.536L228.868 35.1352L228.659 36.1536L229.373 36.9092L230.827 35.536ZM233.995 28.048L232.384 26.8632L232.372 26.8788L232.361 26.8946L233.995 28.048ZM240.043 22.96L240.937 24.7489L240.956 24.7395L240.975 24.7298L240.043 22.96ZM265.867 32.56L264.054 33.4041L264.063 33.423L264.072 33.4418L265.867 32.56ZM265.867 59.44L267.668 60.3095L267.674 60.2975L265.867 59.44ZM258.475 67.984L257.406 66.2938L257.398 66.2988L257.39 66.3039L258.475 67.984ZM237.355 67.408L236.051 68.924L236.059 68.9314L236.068 68.9387L237.355 67.408ZM231.691 58.48L229.99 57.4273L229.525 58.1792L229.768 59.0294L231.691 58.48ZM232.939 56.464H234.939V49.4335L231.238 55.4113L232.939 56.464ZM232.939 90.16V92.16H234.939V90.16H232.939ZM252.331 57.136L250.769 55.8866L250.765 55.8915L252.331 57.136ZM252.427 34.96L250.827 36.16L250.844 36.1825L250.861 36.2045L252.427 34.96ZM238.315 32.944L239.453 34.5884L239.46 34.584L239.466 34.5796L238.315 32.944ZM234.379 38.032L236.209 38.8393L236.213 38.8296L236.217 38.8198L234.379 38.032ZM234.283 53.968L232.426 54.7108L234.283 53.968ZM238.123 59.152L236.943 60.7668L236.978 60.7922L237.014 60.8161L238.123 59.152ZM221.787 90.16V22H217.787V90.16H221.787ZM219.787 24H231.595V20H219.787V24ZM229.598 22.113L230.462 37.377L234.456 37.151L233.592 21.887L229.598 22.113ZM233.913 35.8908L232.281 34.1628L229.373 36.9092L231.005 38.6372L233.913 35.8908ZM232.786 35.9368C233.312 33.3698 234.265 31.1343 235.629 29.2014L232.361 26.8946C230.653 29.3137 229.494 32.0702 228.868 35.1352L232.786 35.9368ZM235.606 29.2328C237.017 27.3139 238.787 25.8241 240.937 24.7489L239.149 21.1711C236.435 22.5279 234.173 24.4301 232.384 26.8632L235.606 29.2328ZM240.975 24.7298C243.093 23.6149 245.488 23.04 248.203 23.04V19.04C244.902 19.04 241.857 19.7451 239.112 21.1902L240.975 24.7298ZM248.203 23.04C251.749 23.04 254.855 23.9352 257.582 25.6961L259.752 22.3359C256.335 20.1288 252.465 19.04 248.203 19.04V23.04ZM257.582 25.6961C260.3 27.4518 262.465 29.9917 264.054 33.4041L267.68 31.7159C265.813 27.7043 263.178 24.5482 259.752 22.3359L257.582 25.6961ZM264.072 33.4418C265.696 36.7475 266.555 40.8758 266.555 45.904H270.555C270.555 40.4362 269.622 35.6685 267.662 31.6782L264.072 33.4418ZM266.555 45.904C266.555 50.9291 265.697 55.1339 264.06 58.5825L267.674 60.2975C269.621 56.1941 270.555 51.3749 270.555 45.904H266.555ZM264.066 58.5705C262.418 61.9844 260.192 64.5313 257.406 66.2938L259.544 69.6742C263.03 67.4687 265.732 64.3196 267.668 60.3095L264.066 58.5705ZM257.39 66.3039C254.669 68.0613 251.532 68.96 247.915 68.96V72.96C252.234 72.96 256.137 71.8747 259.56 69.6641L257.39 66.3039ZM247.915 68.96C244.088 68.96 241.045 67.8979 238.642 65.8773L236.068 68.9387C239.297 71.6541 243.294 72.96 247.915 72.96V68.96ZM238.659 65.892C236.212 63.7859 234.534 61.1495 233.614 57.9306L229.768 59.0294C230.896 62.9785 232.994 66.2941 236.051 68.924L238.659 65.892ZM233.392 59.5327L234.64 57.5167L231.238 55.4113L229.99 57.4273L233.392 59.5327ZM230.939 56.464V90.16H234.939V56.464H230.939ZM232.939 88.16H219.787V92.16H232.939V88.16ZM244.075 62.88C248.132 62.88 251.49 61.4077 253.897 58.3805L250.765 55.8915C249.204 57.8563 247.058 58.88 244.075 58.88V62.88ZM253.893 58.3854C256.333 55.335 257.403 51.1068 257.403 46H253.403C253.403 50.6212 252.425 53.817 250.769 55.8866L253.893 58.3854ZM257.403 46C257.403 40.9098 256.372 36.7089 253.993 33.7155L250.861 36.2045C252.45 38.2031 253.403 41.3622 253.403 46H257.403ZM254.027 33.76C251.688 30.641 248.344 29.12 244.267 29.12V33.12C247.23 33.12 249.326 34.159 250.827 36.16L254.027 33.76ZM244.267 29.12C241.641 29.12 239.25 29.8406 237.164 31.3084L239.466 34.5796C240.836 33.6154 242.413 33.12 244.267 33.12V29.12ZM237.177 31.2996C235.145 32.7058 233.618 34.7296 232.541 37.2442L236.217 38.8198C237.06 36.8544 238.157 35.4862 239.453 34.5884L237.177 31.2996ZM232.549 37.2247C231.447 39.7223 230.939 42.6703 230.939 46H234.939C234.939 43.0577 235.391 40.6937 236.209 38.8393L232.549 37.2247ZM230.939 46C230.939 49.2598 231.414 52.1797 232.426 54.7108L236.14 53.2252C235.36 51.2763 234.939 48.8842 234.939 46H230.939ZM232.426 54.7108C233.437 57.2388 234.927 59.2939 236.943 60.7668L239.303 57.5372C237.991 56.5781 236.921 55.1772 236.14 53.2252L232.426 54.7108ZM237.014 60.8161C239.096 62.2045 241.473 62.88 244.075 62.88V58.88C242.197 58.88 240.606 58.4035 239.232 57.4879L237.014 60.8161ZM279.974 70H277.974V72H279.974V70ZM279.974 22V20H277.974V22H279.974ZM291.398 22L293.39 21.8171L293.223 20H291.398V22ZM292.263 31.408L290.271 31.5909L294.129 32.126L292.263 31.408ZM297.831 23.728L296.664 22.1034L296.654 22.1106L296.644 22.1179L297.831 23.728ZM312.327 22.096L314.307 22.3716L314.496 21.0136L313.298 20.3477L312.327 22.096ZM310.79 33.136L310.048 34.993L312.419 35.9416L312.771 33.4116L310.79 33.136ZM308.391 32.56L308.108 34.5399L308.117 34.5412L308.126 34.5425L308.391 32.56ZM299.271 33.808L300.165 35.5969L300.19 35.5843L300.215 35.571L299.271 33.808ZM294.854 38.032L296.554 39.0867L296.562 39.0739L296.569 39.061L294.854 38.032ZM293.126 70V72H295.126V70H293.126ZM281.974 70V22H277.974V70H281.974ZM279.974 24H291.398V20H279.974V24ZM289.407 22.1829L290.271 31.5909L294.254 31.2251L293.39 21.8171L289.407 22.1829ZM294.129 32.126C295.297 29.0889 296.944 26.8656 299.017 25.3381L296.644 22.1179C293.853 24.1744 291.788 27.0711 290.396 30.69L294.129 32.126ZM298.997 25.3526C301.087 23.8519 303.76 23.04 307.143 23.04V19.04C303.101 19.04 299.566 20.0201 296.664 22.1034L298.997 25.3526ZM307.143 23.04C308.115 23.04 308.964 23.126 309.699 23.2836L310.538 19.3724C309.481 19.146 308.346 19.04 307.143 19.04V23.04ZM309.699 23.2836C310.472 23.4491 311.005 23.6496 311.355 23.8443L313.298 20.3477C312.496 19.9024 311.557 19.5909 310.538 19.3724L309.699 23.2836ZM310.346 21.8204L308.81 32.8604L312.771 33.4116L314.307 22.3716L310.346 21.8204ZM311.533 31.279C310.692 30.9424 309.718 30.7193 308.655 30.5775L308.126 34.5425C308.983 34.6567 309.609 34.8176 310.048 34.993L311.533 31.279ZM308.673 30.5801C307.644 30.4331 306.354 30.368 304.839 30.368V34.368C306.267 34.368 307.345 34.4309 308.108 34.5399L308.673 30.5801ZM304.839 30.368C302.57 30.368 300.391 30.9389 298.326 32.045L300.215 35.571C301.734 34.7571 303.267 34.368 304.839 34.368V30.368ZM298.376 32.0191C296.205 33.1048 294.463 34.7964 293.14 37.003L296.569 39.061C297.55 37.4276 298.752 36.3032 300.165 35.5969L298.376 32.0191ZM293.155 36.9773C291.753 39.2358 291.126 41.9992 291.126 45.136H295.126C295.126 42.5128 295.652 40.5402 296.554 39.0867L293.155 36.9773ZM291.126 45.136V70H295.126V45.136H291.126ZM293.126 68H279.974V72H293.126V68ZM354.193 24.016L353.237 25.773L353.244 25.7764L353.25 25.7799L354.193 24.016ZM362.833 32.56L361.082 33.5262L361.088 33.5376L361.095 33.549L362.833 32.56ZM362.833 59.44L361.087 58.4637L361.082 58.4738L362.833 59.44ZM354.193 67.984L353.25 66.2201L353.244 66.2236L353.237 66.227L354.193 67.984ZM328.657 67.984L329.6 66.2201L328.657 67.984ZM319.921 59.44L318.163 60.3935L318.173 60.4114L318.183 60.429L319.921 59.44ZM319.921 32.56L318.183 31.5709L318.176 31.5824L318.17 31.5938L319.921 32.56ZM328.657 24.016L329.6 25.7799L328.657 24.016ZM335.185 32.56L336.28 34.2339L336.287 34.2291L336.294 34.2241L335.185 32.56ZM331.345 37.552L329.488 36.8092L331.345 37.552ZM331.345 54.448L329.488 55.1908L331.345 54.448ZM335.185 59.536L334.047 61.1804L334.082 61.2052L334.119 61.2285L335.185 59.536ZM347.473 59.536L348.568 61.2099L348.575 61.2051L348.582 61.2001L347.473 59.536ZM351.409 54.448L353.266 55.1908L351.409 54.448ZM351.409 37.552L353.266 36.8092L351.409 37.552ZM347.473 32.56L346.335 34.2044L346.37 34.2292L346.407 34.2525L347.473 32.56ZM341.425 23.04C346.013 23.04 349.929 23.9738 353.237 25.773L355.149 22.259C351.161 20.0902 346.565 19.04 341.425 19.04V23.04ZM353.25 25.7799C356.619 27.5803 359.219 30.15 361.082 33.5262L364.584 31.5938C362.351 27.546 359.191 24.4197 355.136 22.2521L353.25 25.7799ZM361.095 33.549C363 36.8979 364.001 41.0201 364.001 46H368.001C368.001 40.4839 366.89 35.6461 364.571 31.5709L361.095 33.549ZM364.001 46C364.001 50.9098 363.002 55.04 361.087 58.4637L364.579 60.4163C366.888 56.288 368.001 51.4582 368.001 46H364.001ZM361.082 58.4738C359.219 61.85 356.619 64.4197 353.25 66.2201L355.136 69.7479C359.191 67.5803 362.351 64.454 364.584 60.4062L361.082 58.4738ZM353.237 66.227C349.929 68.0262 346.013 68.96 341.425 68.96V72.96C346.565 72.96 351.161 71.9098 355.149 69.741L353.237 66.227ZM341.425 68.96C336.907 68.96 332.983 68.0285 329.6 66.2201L327.714 69.7479C331.755 71.9075 336.343 72.96 341.425 72.96V68.96ZM329.6 66.2201C326.226 64.4169 323.587 61.8399 321.659 58.451L318.183 60.429C320.479 64.4641 323.664 67.5831 327.714 69.7479L329.6 66.2201ZM321.679 58.4865C319.82 55.058 318.849 50.9194 318.849 46H314.849C314.849 51.4486 315.926 56.27 318.163 60.3935L321.679 58.4865ZM318.849 46C318.849 41.0105 319.822 36.8798 321.672 33.5262L318.17 31.5938C315.924 35.6642 314.849 40.4935 314.849 46H318.849ZM321.659 33.549C323.587 30.1601 326.226 27.5831 329.6 25.7799L327.714 22.2521C323.664 24.4169 320.479 27.5359 318.183 31.5709L321.659 33.549ZM329.6 25.7799C332.983 23.9715 336.907 23.04 341.425 23.04V19.04C336.343 19.04 331.755 20.0925 327.714 22.2521L329.6 25.7799ZM341.425 28.832C338.667 28.832 336.185 29.4895 334.076 30.8959L336.294 34.2241C337.641 33.3265 339.319 32.832 341.425 32.832V28.832ZM334.091 30.8861C332.015 32.2431 330.503 34.2707 329.488 36.8092L333.202 38.2948C333.979 36.3533 335.027 35.0529 336.28 34.2339L334.091 30.8861ZM329.488 36.8092C328.468 39.3604 328.001 42.4492 328.001 46H332.001C332.001 42.7668 332.43 40.2236 333.202 38.2948L329.488 36.8092ZM328.001 46C328.001 49.5508 328.468 52.6396 329.488 55.1908L333.202 53.7052C332.43 51.7764 332.001 49.2332 332.001 46H328.001ZM329.488 55.1908C330.501 57.7242 332.002 59.7649 334.047 61.1804L336.323 57.8916C335.04 57.0031 333.981 55.6518 333.202 53.7052L329.488 55.1908ZM334.119 61.2285C336.223 62.553 338.689 63.168 341.425 63.168V59.168C339.297 59.168 337.603 58.695 336.251 57.8435L334.119 61.2285ZM341.425 63.168C344.106 63.168 346.52 62.5485 348.568 61.2099L346.379 57.8621C345.098 58.6995 343.48 59.168 341.425 59.168V63.168ZM348.582 61.2001C350.699 59.7891 352.245 57.744 353.266 55.1908L349.552 53.7052C348.781 55.632 347.703 56.979 346.364 57.8719L348.582 61.2001ZM353.266 55.1908C354.286 52.6396 354.753 49.5508 354.753 46H350.753C350.753 49.2332 350.324 51.7764 349.552 53.7052L353.266 55.1908ZM354.753 46C354.753 42.4492 354.286 39.3604 353.266 36.8092L349.552 38.2948C350.324 40.2236 350.753 42.7668 350.753 46H354.753ZM353.266 36.8092C352.242 34.2503 350.686 32.2193 348.539 30.8675L346.407 34.2525C347.716 35.0767 348.784 36.3737 349.552 38.2948L353.266 36.8092ZM348.611 30.9156C346.559 29.4947 344.129 28.832 341.425 28.832V32.832C343.457 32.832 345.059 33.3213 346.335 34.2044L348.611 30.9156ZM377.486 13.36L376.144 14.8431L376.164 14.8611L376.184 14.8785L377.486 13.36ZM377.486 2.8L378.787 4.31851L378.808 4.30106L378.828 4.28307L377.486 2.8ZM389.774 2.8L388.432 4.28307L388.452 4.30106L388.472 4.31851L389.774 2.8ZM389.774 13.36L391.075 14.8785L391.096 14.8611L391.116 14.8431L389.774 13.36ZM390.158 22H392.158V20H390.158V22ZM387.854 83.536L386.15 82.4878L386.141 82.5038L386.131 82.52L387.854 83.536ZM381.806 88.912L381.023 87.0713L381.004 87.0795L380.985 87.0882L381.806 88.912ZM366.638 89.776L367.212 87.8604L367.183 87.8515L367.153 87.8435L366.638 89.776ZM361.646 87.568L359.69 87.1489L359.409 88.4632L360.519 89.2205L361.646 87.568ZM363.662 78.16L364.942 76.6236L362.4 74.5048L361.706 77.7409L363.662 78.16ZM366.542 79.792L367.267 77.928L366.542 79.792ZM377.006 22V20H375.006V22H377.006ZM383.63 13.088C381.103 13.088 379.615 12.5507 378.787 11.8415L376.184 14.8785C378.045 16.4733 380.653 17.088 383.63 17.088V13.088ZM378.828 11.8769C378.01 11.1375 377.47 9.98245 377.47 8.08H373.47C373.47 10.7855 374.273 13.1505 376.144 14.8431L378.828 11.8769ZM377.47 8.08C377.47 6.0872 378.024 4.97303 378.787 4.31851L376.184 1.28148C374.26 2.93096 373.47 5.3368 373.47 8.08H377.47ZM378.828 4.28307C379.654 3.53576 381.125 2.976 383.63 2.976V-1.024C380.631 -1.024 378.006 -0.367764 376.144 1.31692L378.828 4.28307ZM383.63 2.976C386.135 2.976 387.606 3.53576 388.432 4.28307L391.116 1.31692C389.254 -0.367764 386.629 -1.024 383.63 -1.024V2.976ZM388.472 4.31851C389.236 4.97303 389.79 6.08719 389.79 8.08H393.79C393.79 5.3368 393 2.93096 391.075 1.28148L388.472 4.31851ZM389.79 8.08C389.79 9.98245 389.249 11.1375 388.432 11.8769L391.116 14.8431C392.986 13.1505 393.79 10.7855 393.79 8.08H389.79ZM388.472 11.8415C387.645 12.5507 386.157 13.088 383.63 13.088V17.088C386.607 17.088 389.215 16.4733 391.075 14.8785L388.472 11.8415ZM388.158 22V73.552H392.158V22H388.158ZM388.158 73.552C388.158 77.4895 387.427 80.4127 386.15 82.4878L389.557 84.5842C391.352 81.6673 392.158 77.9345 392.158 73.552H388.158ZM386.131 82.52C384.867 84.6641 383.173 86.1579 381.023 87.0713L382.588 90.7527C385.559 89.4901 387.897 87.3999 389.576 84.552L386.131 82.52ZM380.985 87.0882C378.722 88.1067 376.096 88.64 373.07 88.64V92.64C376.571 92.64 379.77 92.0213 382.626 90.7358L380.985 87.0882ZM373.07 88.64C370.862 88.64 368.916 88.3714 367.212 87.8604L366.063 91.6917C368.2 92.3326 370.541 92.64 373.07 92.64V88.64ZM367.153 87.8435C365.416 87.3802 363.966 86.7292 362.772 85.9156L360.519 89.2205C362.142 90.3268 364.02 91.1478 366.122 91.7085L367.153 87.8435ZM363.601 87.9871L365.617 78.5791L361.706 77.7409L359.69 87.1489L363.601 87.9871ZM362.381 79.6964C363.35 80.5033 364.509 81.1474 365.817 81.656L367.267 77.928C366.271 77.5406 365.51 77.0968 364.942 76.6236L362.381 79.6964ZM365.817 81.656C367.23 82.2055 368.76 82.464 370.382 82.464V78.464C369.188 78.464 368.158 78.2745 367.267 77.928L365.817 81.656ZM370.382 82.464C372.808 82.464 374.947 81.7034 376.596 80.0542L373.768 77.2258C372.985 78.0086 371.924 78.464 370.382 78.464V82.464ZM376.596 80.0542C378.385 78.2653 379.006 75.4747 379.006 72.304L375.006 72.304C375.006 75.1493 374.411 76.5827 373.768 77.2258L376.596 80.0542ZM379.006 72.304V22H375.006V72.304L379.006 72.304ZM377.006 24H390.158V20H377.006V24ZM413.124 67.984L412.181 69.7479L412.187 69.7512L412.193 69.7545L413.124 67.984ZM404.483 59.44L406.235 58.4738L404.483 59.44ZM404.483 32.56L406.235 33.5262L404.483 32.56ZM413.027 24.016L412.085 22.2521L412.078 22.2556L412.072 22.259L413.027 24.016ZM438.083 24.016L437.074 25.7424L437.086 25.7495L437.098 25.7565L438.083 24.016ZM445.859 31.984L444.091 32.9182L444.095 32.9252L444.099 32.9322L445.859 31.984ZM448.164 50.128V52.128H449.898L450.143 50.4108L448.164 50.128ZM409.859 50.128H407.859V52.128H409.859V50.128ZM409.859 41.008V39.008H407.859V41.008H409.859ZM442.404 41.008L443.087 42.8876L442.404 39.008V41.008ZM436.068 43.312H434.068V46.1674L436.751 45.1916L436.068 43.312ZM433.284 34L431.74 35.2714L431.751 35.2847L431.762 35.2979L433.284 34ZM419.267 32.464L418.186 30.7816L418.172 30.7907L418.158 30.7999L419.267 32.464ZM415.332 37.648L417.188 38.3908L417.192 38.3819L417.195 38.3729L415.332 37.648ZM415.427 54.64L413.589 55.4278L413.603 55.46L413.618 55.4916L415.427 54.64ZM419.651 59.536L418.614 61.2456L418.627 61.2536L418.64 61.2614L419.651 59.536ZM437.124 55.024L437.843 53.1578L436.147 52.5045L435.335 54.1296L437.124 55.024ZM447.587 59.056L449.438 59.8151L450.213 57.9245L448.307 57.1898L447.587 59.056ZM442.884 65.488L441.59 63.963L441.578 63.9728L441.566 63.9828L442.884 65.488ZM435.492 69.616L436.098 71.5219L436.111 71.5177L436.124 71.5134L435.492 69.616ZM426.371 68.96C421.58 68.96 417.494 68.0212 414.054 66.2135L412.193 69.7545C416.305 71.9148 421.051 72.96 426.371 72.96V68.96ZM414.066 66.2201C410.698 64.4197 408.097 61.85 406.235 58.4738L402.732 60.4062C404.966 64.454 408.125 67.5803 412.181 69.7479L414.066 66.2201ZM406.235 58.4738C404.384 55.1202 403.411 50.9895 403.411 46H399.411C399.411 51.5065 400.487 56.3358 402.732 60.4062L406.235 58.4738ZM403.411 46C403.411 41.0105 404.384 36.8798 406.235 33.5262L402.732 31.5938C400.487 35.6642 399.411 40.4935 399.411 46H403.411ZM406.235 33.5262C408.102 30.1409 410.678 27.5707 413.983 25.773L412.072 22.259C408.081 24.4293 404.961 27.5551 402.732 31.5938L406.235 33.5262ZM413.97 25.7799C417.357 23.9694 421.251 23.04 425.699 23.04V19.04C420.676 19.04 416.122 20.0945 412.085 22.2521L413.97 25.7799ZM425.699 23.04C430.292 23.04 434.053 23.9756 437.074 25.7424L439.093 22.2896C435.33 20.0884 430.835 19.04 425.699 19.04V23.04ZM437.098 25.7565C440.163 27.4913 442.481 29.87 444.091 32.9182L447.628 31.0498C445.654 27.314 442.788 24.3806 439.069 22.2755L437.098 25.7565ZM444.099 32.9322C445.714 35.9315 446.548 39.4059 446.548 43.408H450.548C450.548 38.8341 449.589 34.6925 447.62 31.0358L444.099 32.9322ZM446.548 43.408C446.548 44.6549 446.516 45.8337 446.455 46.9451L450.448 47.1669C450.515 45.9743 450.548 44.7211 450.548 43.408H446.548ZM446.455 46.9451C446.393 48.0543 446.302 49.0191 446.184 49.8452L450.143 50.4108C450.281 49.4449 450.382 48.3617 450.448 47.1669L446.455 46.9451ZM448.164 48.128H409.859V52.128H448.164V48.128ZM411.859 50.128V41.008H407.859V50.128H411.859ZM409.859 43.008L442.404 43.008V39.008L409.859 39.008V43.008ZM441.72 39.1284L435.384 41.4324L436.751 45.1916L443.087 42.8876L441.72 39.1284ZM438.068 43.312C438.068 38.9971 437.075 35.3638 434.805 32.7021L431.762 35.2979C433.204 36.9882 434.068 39.5629 434.068 43.312H438.068ZM434.827 32.7286C432.585 30.006 429.409 28.736 425.604 28.736V32.736C428.454 32.736 430.398 33.642 431.74 35.2714L434.827 32.7286ZM425.604 28.736C422.844 28.736 420.344 29.394 418.186 30.7816L420.349 34.1464C421.775 33.23 423.499 32.736 425.604 32.736V28.736ZM418.158 30.7999C416.027 32.2207 414.483 34.3105 413.467 36.9231L417.195 38.3729C417.971 36.3775 419.052 35.0113 420.377 34.1281L418.158 30.7999ZM413.475 36.9052C412.453 39.4601 411.987 42.5828 411.987 46.192H415.987C415.987 42.8892 416.418 40.3159 417.188 38.3908L413.475 36.9052ZM411.987 46.192C411.987 49.7559 412.489 52.8617 413.589 55.4278L417.266 53.8522C416.446 51.9383 415.987 49.4121 415.987 46.192H411.987ZM413.618 55.4916C414.784 57.9694 416.438 59.9248 418.614 61.2456L420.689 57.8264C419.281 56.9712 418.119 55.6626 417.237 53.7884L413.618 55.4916ZM418.64 61.2614C420.856 62.5607 423.428 63.168 426.276 63.168V59.168C424.003 59.168 422.159 58.6873 420.663 57.8106L418.64 61.2614ZM426.276 63.168C429.331 63.168 432.011 62.5799 434.157 61.2285L432.026 57.8435C430.716 58.6681 428.852 59.168 426.276 59.168V63.168ZM434.157 61.2285C436.211 59.9354 437.798 58.1481 438.912 55.9184L435.335 54.1296C434.529 55.7399 433.428 56.9606 432.026 57.8435L434.157 61.2285ZM436.404 56.8903L446.868 60.9222L448.307 57.1898L437.843 53.1578L436.404 56.8903ZM445.737 58.2969C444.838 60.4887 443.464 62.3724 441.59 63.963L444.177 67.013C446.527 65.0196 448.289 62.6153 449.438 59.8151L445.737 58.2969ZM441.566 63.9828C439.74 65.5808 437.516 66.8329 434.859 67.7186L436.124 71.5134C439.227 70.4791 441.931 68.9792 444.201 66.9932L441.566 63.9828ZM434.885 67.7102C432.285 68.5376 429.451 68.96 426.371 68.96V72.96C429.82 72.96 433.066 72.4864 436.098 71.5219L434.885 67.7102ZM475.841 7.31199H477.841V4.68174L475.307 5.38476L475.841 7.31199ZM477.569 59.44L476.196 60.894L476.238 60.9331L476.281 60.9698L477.569 59.44ZM486.69 60.304L487.381 62.1807L487.424 62.1649L487.466 62.1473L486.69 60.304ZM489.953 58.288L491.897 57.818L491.126 54.6255L488.644 56.7766L489.953 58.288ZM492.065 67.024L493.307 68.5921L494.31 67.7978L494.009 66.554L492.065 67.024ZM486.306 69.904L485.721 67.9913L486.306 69.904ZM470.466 69.52L469.731 71.3803L469.739 71.3835L469.748 71.3867L470.466 69.52ZM464.706 64.912L463.018 65.9857L463.03 66.0037L463.041 66.0214L464.706 64.912ZM462.69 10.96L462.155 9.03276L460.69 9.43923V10.96H462.69ZM491.202 22H493.202V20H491.202V22ZM491.202 31.792V33.792H493.202V31.792H491.202ZM453.858 31.792H451.858V33.792H453.858V31.792ZM453.858 22V20H451.858V22H453.858ZM473.841 7.31199V54.352H477.841V7.31199H473.841ZM473.841 54.352C473.841 56.9541 474.492 59.2843 476.196 60.894L478.943 57.986C478.343 57.4197 477.841 56.3579 477.841 54.352H473.841ZM476.281 60.9698C477.951 62.3762 480.085 62.976 482.466 62.976V58.976C480.75 58.976 479.62 58.5518 478.858 57.9102L476.281 60.9698ZM482.466 62.976C484.248 62.976 485.898 62.7269 487.381 62.1807L485.998 58.4273C485.049 58.7771 483.883 58.976 482.466 58.976V62.976ZM487.466 62.1473C488.868 61.5566 490.138 60.7747 491.263 59.7994L488.644 56.7766C487.849 57.4653 486.943 58.0274 485.913 58.4607L487.466 62.1473ZM488.01 58.758L490.121 67.494L494.009 66.554L491.897 57.818L488.01 58.758ZM490.824 65.4559C489.523 66.486 487.84 67.344 485.721 67.9913L486.89 71.8167C489.379 71.056 491.536 69.994 493.307 68.5921L490.824 65.4559ZM485.721 67.9913C483.618 68.6339 481.384 68.96 479.009 68.96V72.96C481.755 72.96 484.385 72.5821 486.89 71.8167L485.721 67.9913ZM479.009 68.96C476.008 68.96 473.41 68.5097 471.183 67.6533L469.748 71.3867C472.513 72.4503 475.611 72.96 479.009 72.96V68.96ZM471.2 67.6597C469.135 66.8446 467.544 65.5647 466.37 63.8026L463.041 66.0214C464.683 68.4833 466.932 70.2754 469.731 71.3803L471.2 67.6597ZM466.393 63.8382C465.32 62.1525 464.69 59.7515 464.69 56.464H460.69C460.69 60.2165 461.403 63.4475 463.018 65.9857L466.393 63.8382ZM464.69 56.464V10.96H460.69V56.464H464.69ZM463.224 12.8872L476.376 9.23923L475.307 5.38476L462.155 9.03276L463.224 12.8872ZM489.202 22V31.792H493.202V22H489.202ZM491.202 29.792H453.858V33.792H491.202V29.792ZM455.858 31.792V22H451.858V31.792H455.858ZM453.858 24H491.202V20H453.858V24ZM505.956 68.368L505.157 70.2017L505.168 70.2063L505.956 68.368ZM496.259 61.072L494.836 59.6667L493.59 60.9292L494.695 62.3175L496.259 61.072ZM503.844 53.392L505.508 52.2826L504.146 50.2397L502.42 51.9867L503.844 53.392ZM509.987 59.056L510.984 57.3222L509.987 59.056ZM525.06 60.208L525.922 62.0123L525.938 62.0047L525.954 61.9969L525.06 60.208ZM526.307 54.064L524.833 55.4155L524.863 55.4475L524.893 55.4782L526.307 54.064ZM522.083 52.24L522.499 50.2835L522.491 50.282L522.484 50.2806L522.083 52.24ZM513.635 50.512L513.23 52.4705L513.235 52.4714L513.635 50.512ZM501.732 45.328L500.298 46.7227L500.317 46.7423L500.337 46.7615L501.732 45.328ZM500.579 28.816L498.937 27.6752L498.926 27.6908L498.915 27.7066L500.579 28.816ZM507.683 23.248L508.503 25.0725L508.518 25.0656L508.533 25.0585L507.683 23.248ZM531.875 23.344L531.076 25.1771L531.096 25.1858L531.116 25.194L531.875 23.344ZM540.323 29.968L541.72 31.3996L542.933 30.2165L541.965 28.8259L540.323 29.968ZM532.451 37.648L530.758 38.7123L532.076 40.8086L533.848 39.0796L532.451 37.648ZM526.883 32.56L525.929 34.3177L525.959 34.3338L525.989 34.3489L526.883 32.56ZM515.172 31.312L514.597 29.3963L515.172 31.312ZM512.292 32.944L513.706 34.3582L513.739 34.3246L513.771 34.2893L512.292 32.944ZM512.675 38.128L511.374 39.6465L511.406 39.6743L511.44 39.7006L512.675 38.128ZM517.571 39.952L517.149 41.9068L517.159 41.9089L517.168 41.9109L517.571 39.952ZM527.364 41.968L526.96 43.9269L526.966 43.9281L527.364 41.968ZM537.539 46.864L536.045 48.1927L536.054 48.2032L536.063 48.2135L537.539 46.864ZM538.115 63.28L536.465 62.1506L536.458 62.1603L538.115 63.28ZM530.916 68.944L531.703 70.7823L531.712 70.7785L531.721 70.7746L530.916 68.944ZM519.299 68.96C514.677 68.96 510.501 68.14 506.743 66.5297L505.168 70.2063C509.474 72.052 514.194 72.96 519.299 72.96V68.96ZM506.754 66.5343C503.061 64.9261 500.101 62.6866 497.824 59.8265L494.695 62.3175C497.41 65.7294 500.914 68.3539 505.157 70.2017L506.754 66.5343ZM497.683 62.4773L505.267 54.7973L502.42 51.9867L494.836 59.6667L497.683 62.4773ZM502.179 54.5014C503.898 57.0791 506.181 59.1744 508.991 60.7898L510.984 57.3222C508.674 55.9936 506.861 54.3129 505.508 52.2826L502.179 54.5014ZM508.991 60.7898C511.907 62.467 515.305 63.264 519.107 63.264V59.264C515.87 59.264 513.188 58.589 510.984 57.3222L508.991 60.7898ZM519.107 63.264C521.759 63.264 524.076 62.8952 525.922 62.0123L524.197 58.4037C523.099 58.9288 521.448 59.264 519.107 59.264V63.264ZM525.954 61.9969C526.972 61.4879 527.849 60.7823 528.465 59.8324C529.087 58.8744 529.364 57.7891 529.364 56.656H525.364C525.364 57.1229 525.256 57.4296 525.11 57.6556C524.958 57.8897 524.683 58.1601 524.165 58.4191L525.954 61.9969ZM529.364 56.656C529.364 55.1185 528.813 53.7407 527.722 52.6498L524.893 55.4782C525.21 55.7953 525.364 56.1455 525.364 56.656H529.364ZM527.782 52.7125C526.623 51.4481 524.661 50.7422 522.499 50.2835L521.669 54.1965C523.73 54.6338 524.584 55.1439 524.833 55.4155L527.782 52.7125ZM522.484 50.2806L514.036 48.5526L513.235 52.4714L521.683 54.1994L522.484 50.2806ZM514.041 48.5535C508.608 47.4296 505.088 45.8033 503.126 43.8945L500.337 46.7615C503.111 49.4607 507.527 51.2904 513.23 52.4705L514.041 48.5535ZM503.165 43.9333C501.27 41.986 500.276 39.469 500.276 36.208H496.276C496.276 40.371 497.585 43.934 500.298 46.7227L503.165 43.9333ZM500.276 36.208C500.276 34.0012 500.914 31.92 502.244 29.9254L498.915 27.7066C497.173 30.32 496.276 33.1668 496.276 36.208H500.276ZM502.222 29.9568C503.573 28.012 505.624 26.3652 508.503 25.0725L506.864 21.4235C503.471 22.9468 500.786 25.012 498.937 27.6752L502.222 29.9568ZM508.533 25.0585C511.328 23.7468 514.92 23.04 519.396 23.04V19.04C514.527 19.04 510.311 19.8051 506.834 21.4375L508.533 25.0585ZM519.396 23.04C523.987 23.04 527.863 23.775 531.076 25.1771L532.675 21.5109C528.848 19.841 524.404 19.04 519.396 19.04V23.04ZM531.116 25.194C534.374 26.5321 536.871 28.5075 538.682 31.1101L541.965 28.8259C539.68 25.5405 536.545 23.0999 532.635 21.494L531.116 25.194ZM538.927 28.5364L531.055 36.2164L533.848 39.0796L541.72 31.3996L538.927 28.5364ZM534.145 36.5837C532.547 34.0424 530.419 32.0915 527.778 30.7711L525.989 34.3489C527.956 35.3324 529.54 36.7736 530.758 38.7123L534.145 36.5837ZM527.838 30.8023C525.311 29.4308 522.616 28.736 519.779 28.736V32.736C521.935 32.736 523.976 33.2572 525.929 34.3177L527.838 30.8023ZM519.779 28.736C517.855 28.736 516.114 28.9411 514.597 29.3963L515.746 33.2276C516.789 32.9149 518.12 32.736 519.779 32.736V28.736ZM514.597 29.3963C513.103 29.8445 511.776 30.5384 510.812 31.5987L513.771 34.2893C514.087 33.9416 514.68 33.5475 515.746 33.2276L514.597 29.3963ZM510.877 31.5298C509.812 32.5953 509.331 33.9615 509.331 35.44H513.331C513.331 34.8705 513.491 34.5727 513.706 34.3582L510.877 31.5298ZM509.331 35.44C509.331 37.14 510.11 38.5629 511.374 39.6465L513.977 36.6095C513.449 36.1571 513.331 35.788 513.331 35.44H509.331ZM511.44 39.7006C512.72 40.7068 514.745 41.3872 517.149 41.9068L517.994 37.9972C515.662 37.4928 514.423 36.9572 513.911 36.5554L511.44 39.7006ZM517.168 41.9109L526.96 43.9269L527.767 40.0091L517.975 37.9931L517.168 41.9109ZM526.966 43.9281C531.503 44.8477 534.407 46.35 536.045 48.1927L539.034 45.5353C536.576 42.77 532.696 41.0083 527.761 40.0079L526.966 43.9281ZM536.063 48.2135C537.755 50.0635 538.612 52.2937 538.612 55.024H542.612C542.612 51.3543 541.42 48.1445 539.016 45.5145L536.063 48.2135ZM538.612 55.024C538.612 57.7111 537.891 60.066 536.465 62.1506L539.766 64.4094C541.668 61.63 542.612 58.4809 542.612 55.024H538.612ZM536.458 62.1603C535.112 64.1524 533.042 65.8233 530.11 67.1134L531.721 70.7746C535.189 69.2487 537.919 67.1436 539.773 64.3997L536.458 62.1603ZM530.128 67.1057C527.311 68.3127 523.726 68.96 519.299 68.96V72.96C524.089 72.96 528.248 72.2634 531.703 70.7823L530.128 67.1057Z" fill="#555555" mask="url(#path-1-outside-1_78_248)"/>
</svg>
